<?xml version="1.0" encoding="utf-8"?>
<!-- Generator: Adobe Illustrator 16.0.4, SVG Export Plug-In . SVG Version: 6.00 Build 0)  -->
<!DOCTYPE svg PUBLIC "-//W3C//DTD SVG 1.1//EN" "http://www.w3.org/Graphics/SVG/1.1/DTD/svg11.dtd">
<svg version="1.1" id="Layer_1" xmlns="http://www.w3.org/2000/svg" xmlns:xlink="http://www.w3.org/1999/xlink" x="0px" y="0px"
	 width="165.594px" height="133.927px" viewBox="0 0 165.594 133.927" enable-background="new 0 0 165.594 133.927"
	 xml:space="preserve">
<polygon fill="#817F80" points="82.81,40.943 82.883,38.363 0,86.103 4.171,86.22 "/>
<g>
	<g>
		<polygon fill="#817F80" points="82.819,133.927 0.056,86.135 82.819,38.361 165.565,86.145 		"/>
		<polygon fill="#9A9C9B" points="13.832,85.366 82.803,45.548 151.772,85.366 82.834,125.167 		"/>
		<g>
			<polygon fill="#817F80" points="82.825,125.084 82.825,127.666 154.991,86.139 150.429,86.139 			"/>
			<polygon fill="#817F80" points="82.872,131.347 82.872,133.927 165.594,86.139 161.421,86.139 			"/>
			<polygon fill="#9A9C9B" points="82.825,127.864 82.825,130.444 159.573,86.139 154.991,86.139 			"/>
		</g>
	</g>
	<g>
		<polygon fill="#817F80" points="83.567,45.663 83.616,43.083 154.993,85.954 151.065,85.868 		"/>
		<polygon fill="#817F80" points="82.835,40.943 82.883,38.363 165.594,86.152 161.423,86.075 		"/>
		<polygon fill="#9A9C9B" points="83.195,43.349 83.244,40.769 159.573,86.139 154.603,85.714 		"/>
	</g>
</g>
<polygon fill="#9A9C9B" points="83.229,43.46 83.301,40.881 6.076,86.139 10.804,86.107 "/>
<polygon fill="#817F80" points="83.124,45.04 83.195,43.349 10.709,86.139 15.214,86.571 "/>
<polygon fill="#817F80" points="82.825,125.084 82.825,127.666 10.658,86.139 15.22,86.139 "/>
<polygon fill="#817F80" points="82.776,131.347 82.776,133.927 0.056,86.139 4.227,86.139 "/>
<polygon fill="#9A9C9B" points="82.825,127.864 82.825,130.444 6.076,86.139 10.658,86.139 "/>
<path fill="#F2DA8F" d="M86.163,68.894"/>
<path fill="#F2DA8F" d="M81.729,71.411"/>
<polygon fill="#FFFFFF" points="131.226,87.879 131.226,53.173 83.422,25.407 83.366,60.089 "/>
<polygon fill="#FFFFFF" points="35.292,87.896 35.292,53.189 83.343,25.407 83.398,60.089 "/>
<polygon fill="#B3B1B2" points="83.351,115.647 83.351,80.941 35.302,53.158 35.245,87.84 "/>
<polygon fill="#817F80" points="83.366,115.646 83.366,80.94 131.415,53.157 131.472,87.838 "/>
<polygon fill="#9F9D9E" points="83.351,80.941 35.302,53.158 83.343,25.407 131.415,53.157 "/>
<polygon fill="#817F80" points="83.351,80.941 61.808,58.686 35.292,53.189 "/>
<polygon fill="#817F80" points="39.999,55.265 40.012,76.689 43.05,78.446 43.05,57.045 "/>
<polygon fill="#817F80" points="37.959,75.457 37.968,89.566 39.705,90.571 39.705,76.475 "/>
<polygon fill="#817F80" points="76.29,97.583 76.298,111.694 78.034,112.698 78.034,98.603 "/>
<polygon fill="#817F80" points="49.978,61.22 49.988,82.475 53.028,84.237 53.028,63 "/>
<polygon fill="#817F80" points="61.005,67.72 61.013,88.81 64.054,90.571 64.055,69.501 "/>
<polygon fill="#817F80" points="71.8,74.177 71.812,95.085 74.852,96.877 74.852,75.958 "/>
<polygon fill="#817F80" points="37.959,75.457 37.959,77.109 78.034,100.167 78.034,98.571 "/>
<path fill="#817F80" d="M49.518,89.199c0,0-2.136-4.812-5.972-3.418v6.921l6.021,3.479L49.518,89.199z"/>
<path fill="#817F80" d="M59.848,95.129c0,0-2.132-4.812-5.972-3.42v6.92l6.02,3.479L59.848,95.129z"/>
<path fill="#817F80" d="M70.847,101.465c0,0-2.135-4.812-5.974-3.418v6.92l6.021,3.48L70.847,101.465z"/>
<line fill="none" stroke="#231F20" stroke-width="0.5" stroke-miterlimit="10" x1="83.364" y1="53.053" x2="83.364" y2="46.112"/>
<path fill="#9A9C9B" d="M64.579,54.34"/>
<rect x="85.056" y="39.688" fill="none" width="0" height="3.06"/>
<path fill="#969595" d="M105.533,27.398c0-5.641-6.458-16.671-20.478-16.671v5.776l0,0v-5.776c-14.02,0-20.477,11.031-20.477,16.671
	c0,5.642,0,19.588,0,26.941l0,0c-0.379,5.156,5.4,9.863,14.509,11.226c10.814,1.615,22.253-2.1,25.55-8.3
	c0.52-0.979,0.824-1.959,0.895-2.926l0,0C105.533,46.986,105.533,33.042,105.533,27.398z M85.056,39.688L85.056,39.688"/>
<path fill="#817F80" d="M68.354,35.193v26.245c0,0-1.525-1.303-1.97-1.903V33.291C66.385,33.291,67.573,34.628,68.354,35.193z"/>
<path fill="#817F80" d="M82.646,39.7v26.207c0,0-1.009,0.146-3.558-0.341V39.37C79.088,39.372,81.304,39.701,82.646,39.7z"/>
<path fill="#817F80" d="M74.685,38.335V64.58c0,0-2.268-0.792-2.953-1.125V37.21C71.729,37.21,73.972,38.335,74.685,38.335z"/>
<path fill="#817F80" d="M101.194,34.877v26.245c0,0,1.525-1.303,1.971-1.901V32.975C103.165,32.975,101.976,34.31,101.194,34.877z"
	/>
<path fill="#817F80" d="M86.901,39.542v26.207c0,0,1.009,0.146,3.561-0.341V39.212C90.462,39.213,88.245,39.543,86.901,39.542z"/>
<path fill="#817F80" d="M94.863,38.018v26.243c0,0,2.269-0.792,2.956-1.125V36.894C97.819,36.894,95.577,38.018,94.863,38.018z"/>
<path fill="#817F80" d="M85.068,39.831c0,0,18.903,0.671,20.479-10.786l0.016-1.757c0,0-2.301,6.529-8.646,8.368
	c-5.838,1.693-11.072,1.708-11.869,1.699v-0.003c0,0-5.496,0.141-11.84-1.696c-6.344-1.838-8.646-8.368-8.646-8.368l0.021,1.757
	c1.572,11.457,20.476,10.786,20.476,10.786"/>
<path fill="#817F80" d="M85.068,65.936c0,0,18.903,0.671,20.479-10.785l0.016-1.758c0,0-2.301,6.53-8.646,8.368
	c-5.838,1.693-11.072,1.708-11.869,1.699v-0.002c0,0-5.496,0.142-11.84-1.697c-6.344-1.838-8.646-8.368-8.646-8.368l0.021,1.758
	c1.572,11.457,20.476,10.785,20.476,10.785"/>
<path fill="#817F80" d="M92.273,17.292c-1.218,2.288-5.437,3.66-9.427,3.063c-3.993-0.597-6.242-2.935-5.025-5.222
	c1.217-2.287,5.437-3.659,9.428-3.062C91.241,12.668,93.489,15.005,92.273,17.292z"/>
<polygon fill="#F2DA8F" points="87.641,15.847 85.282,17.186 85.282,0 "/>
<polygon fill="#CFBA75" points="82.925,15.847 85.282,17.186 85.282,0 "/>
</svg>
