<?xml version="1.0" encoding="utf-8"?>
<!-- Generator: Adobe Illustrator 17.0.0, SVG Export Plug-In . SVG Version: 6.00 Build 0)  -->
<!DOCTYPE svg PUBLIC "-//W3C//DTD SVG 1.1//EN" "http://www.w3.org/Graphics/SVG/1.1/DTD/svg11.dtd">
<svg version="1.1" xmlns="http://www.w3.org/2000/svg" xmlns:xlink="http://www.w3.org/1999/xlink" x="0px" y="0px"
	 width="2077.684px" height="1198.551px" viewBox="0 0 2077.684 1198.551" enable-background="new 0 0 2077.684 1198.551"
	 xml:space="preserve">
<g id="Grid">
	<g>
	</g>
	<g>
	</g>
</g>
<g id="Layer_3">
	<polygon opacity="0.7" fill="#00A79D" points="2077.684,599.831 1038.841,0 0,599.831 1038.67,1198.551 	"/>
	<polygon fill="#8DC63F" points="501.245,521.676 458.585,496.943 415.926,521.676 458.578,546.363 	"/>
	<polygon fill="#8DC63F" points="1359.039,545.157 883.037,270.423 407.035,545.157 882.958,819.382 	"/>
	<polygon fill="#8DC63F" points="323.045,742.786 286.465,723.237 249.886,742.786 286.459,762.299 	"/>
	<polygon fill="#8DC63F" points="1723.438,420.207 1677.894,393.801 1632.35,420.207 1677.886,446.563 	"/>
	<polygon fill="#8DC63F" points="1705.051,395.104 1653.941,365.227 1613.718,387.771 1666.384,418.104 	"/>
	<polygon fill="#8DC63F" points="1474.881,293.859 1429.337,267.453 1383.793,293.859 1429.329,320.215 	"/>
	<polygon fill="#8DC63F" points="1421.425,277.019 1375.881,250.614 1330.337,277.019 1375.874,303.376 	"/>
	<polygon fill="#8DC63F" points="1410.943,251.76 1365.399,225.355 1319.856,251.76 1365.392,278.117 	"/>
	<polygon fill="#8DC63F" points="1366.921,278.072 1321.377,251.666 1275.833,278.072 1321.37,304.428 	"/>
	<g>
		<polygon fill="#006838" points="324.042,733.251 293.025,714.829 330.974,692.883 303.666,677.059 334.115,660.828 
			317.017,651.695 338.335,640.331 337.903,640.101 357.18,629.825 345.368,623.516 346.039,623.158 348.039,624.224 
			356.693,619.612 357.462,620.022 376.526,609.86 373.879,608.446 386.995,601.454 386.515,601.198 411.101,588.075 
			415.841,590.603 438.843,578.341 415.845,566.057 413.498,567.311 403.282,561.854 380.283,574.138 385.745,577.051 
			365.626,587.797 368.833,591.753 367.935,591.273 348.875,601.454 351.51,602.86 348.82,604.297 348.043,603.882 332.259,612.312 
			330.244,611.237 311.184,621.417 319.06,625.617 311.184,629.825 311.597,630.045 292.338,640.331 292.68,640.514 
			259.799,658.076 256.691,656.416 216.957,677.639 222.292,680.484 198.112,693.399 214.132,701.942 191.718,709.771 
			208.384,718.438 211.385,714.985 301.385,772.319 		"/>
		<path fill="#006838" d="M1704.4,464.658l28.555-16.513l-65.802-38.129l15.257-8.823l-35.408-20.517l0.858-0.496l-45.492-26.361
			l-2.003,1.161l-34.641-20.073l-10.022,5.807l-24.528-14.213l-16.38,9.491l-45.391-26.302l-18.807,10.898l-9.741-5.644l-6.79,3.934
			l-53.934-31.252l-0.537,0.311l-25.112-14.5l-20.717,11.962l-59.621-34.548l-47.868,27.738l-17.043-9.876l-45.877,26.584
			l-9.612-5.57l-7.993,4.631l-9.806-5.682l-10.545,6.111l-25.051-14.516l-10.147,5.88l-73.61-42.654l-33.901,19.644l-21.209-12.29
			l-79.471,46.05l-10.568-6.124L428.248,547.589l7.164,4.144l-0.721-0.385l-22.998,12.284l22.994,12.262l8.885-4.736l7.75,4.133
			l-3.752,2.004l27.149,14.477l-8.304,4.435l29.385,15.669l9.518-5.074l25.348,13.517l-11.904,6.358l17.2,9.172l-40.519,23.479
			l-6.836-3.961L291.718,765.771l216,123.333l2.667,4l212.667,122.667l6.742,3.003l40.838,23.624l25.254-14.604l7.506,4.156
			l-23.168,13.425l13.292,7.689l-1.798,2.041l22.667,14l5.905-3.972l-9.784-5.404l21.949-12.693l10.145,5.869l39.355-22.759
			l-13.691-7.933l16.271-9.409l-12.813-7.425l12.762-7.38l7.732,4.473l42.772-24.734l24.594,14.227l9.409-5.441l0.987,0.571
			l-8.824,5.113l0.514,0.298l-13.078,7.578l13.113,7.586l-34.053,19.732l4.359,2.521l-13.781,7.986l45.485,26.312l45.5-26.312
			l-1.662-0.963l38.306-22.152l-8.211-4.758l3.09-1.787l35.003,20.249l45.5-26.312l-20.901-12.111l16.296-9.424l-10.309-5.974
			l23.29-13.468l-45.492-26.361l-29.261,16.956l-14.369-8.326l30.173-17.449l2.77,1.602l50.349-29.117l10.374,6.001l6.868-3.972
			l2.063,1.193l-2.904,1.683l45.485,26.312l45.5-26.312l-18.981-10.999l6.417-3.711l-9.291-5.384l19.761-11.427l-24.747-14.339
			l21.287-12.31l8.004,4.63l53.668-31.036l-45.433-26.326l21.519-12.444l24.825,14.361l28.038-16.214l7.632,4.415l45.5-26.312
			l-7.625-4.419l1.208-0.698l-24.805-14.373l45.592-26.365l12.561,7.266l121.947-70.52l-13.066-7.571l30.894-17.865l12.892,7.458
			l32.75-18.939l9.128,5.28l18.123-10.48l1.77,1.024l45.5-26.312l-10.752-6.23l12.846-7.429l-13.018-7.543l42.001-24.289
			l-18.425-10.676l37.892-21.912l-10.937-6.338l30.829-17.828L1704.4,464.658z M519.61,888.766l1.808-0.901l0.131,0.076
			L519.61,888.766z"/>
	</g>
	<path fill="#8DC63F" d="M1701.4,458.658l28.555-16.513l-39.292-22.768l12.073-6.954l-26.586-15.345l3.26-1.885l-35.408-20.517
		l0.858-0.496l-45.492-26.361l-2.003,1.16l-34.641-20.073l-10.022,5.807l-24.528-14.213l-16.38,9.491l-45.391-26.302l-18.807,10.898
		l-9.741-5.645l-6.79,3.935l-53.934-31.252l-0.537,0.311l-25.112-14.5l-20.717,11.962l-11.638-6.743l44.613-25.813l-45.544-26.405
		l-44.581,25.847l-2.472-1.432l-47.868,27.738l-17.043-9.876l-45.877,26.584l-9.612-5.57l-7.992,4.631l-9.806-5.682l-10.545,6.111
		l-25.051-14.516l-10.147,5.88l-73.61-42.654l-33.901,19.644l-21.209-12.29l-79.471,46.05l-10.568-6.124l-0.475,0.275l-27.081-15.63
		l-39.85,23l27.182,15.662L425.248,541.589l7.164,4.144l-0.721-0.385l-22.998,12.284l22.994,12.262l8.885-4.736l7.75,4.133
		l-3.752,2.004l27.149,14.477l-8.304,4.435l29.385,15.669l9.518-5.074l25.348,13.517l-11.904,6.358l17.2,9.172l-40.519,23.479
		l-6.836-3.961l-151.518,86.235l-44.065-26.771l37.949-21.945l-27.308-15.824l30.449-16.231l-17.098-9.133l21.318-11.364
		l-0.432-0.231l19.277-10.276l-11.812-6.309l0.671-0.358l2,1.067l8.654-4.613l0.769,0.41l19.064-10.162l-2.647-1.414l13.116-6.992
		l-0.481-0.257l24.587-13.122l4.74,2.528l23.002-12.261l-22.998-12.284l-2.348,1.254l-10.216-5.457l-22.998,12.284l5.462,2.912
		l-20.12,10.747l3.207,3.956l-0.898-0.48l-19.061,10.181l2.636,1.405l-2.69,1.437l-0.777-0.415l-15.784,8.431l-2.014-1.076
		l-19.06,10.181l7.877,4.2l-7.877,4.207l0.413,0.22l-19.258,10.286l0.342,0.182L256.8,652.077l-3.109-1.66l-39.734,21.223
		l5.335,2.845l-24.18,12.916l16.02,8.542l-23.349,12.471l18.501,9.865l-0.771-0.619l80.492,45.308l-1.621,0.922l218.667,125.213
		l0.07,0.386l219.263,126.28l4.41-2.996l40.837,23.624l25.254-14.604l7.506,4.156l-23.167,13.425l13.292,7.689l-7.776,3.664
		l25.127,14.71l9.423-6.304l-9.784-5.404l21.949-12.693l10.145,5.869l39.355-22.759l-13.691-7.933l16.271-9.409l-12.813-7.425
		l12.762-7.38l7.732,4.473l42.771-24.734l24.595,14.227l1.97-1.194l1.167,0.5l-1.565,0.938l0.514,0.298l-13.078,7.578l13.113,7.586
		l-34.053,19.732l4.359,2.521l-13.781,7.986l45.485,26.312l45.5-26.312l-1.662-0.963l38.306-22.152l-8.212-4.758l3.09-1.787
		l35.003,20.249l45.5-26.312l-20.901-12.111l16.296-9.424l-10.309-5.974l23.29-13.468l-45.492-26.361l-29.262,16.956l-14.368-8.326
		l30.173-17.449l2.77,1.602l50.349-29.117l10.374,6.001l6.868-3.972l2.063,1.193l-2.904,1.683l45.485,26.312l45.5-26.312
		l-18.981-10.999l6.417-3.711l-9.291-5.384l19.761-11.427l-24.746-14.34l21.287-12.31l8.004,4.63l53.668-31.036l-45.433-26.326
		l21.519-12.444l24.826,14.361l28.038-16.214l7.632,4.415l45.5-26.312l-7.625-4.418l1.208-0.699l-24.805-14.373l45.592-26.365
		l12.561,7.266l121.947-70.52l-13.066-7.571l30.894-17.865l12.892,7.458l32.75-18.939l9.128,5.28l18.122-10.48l1.77,1.024
		l45.5-26.312l-10.752-6.23l12.846-7.429l-13.018-7.543l42.001-24.289l-18.425-10.676l37.892-21.912l-10.937-6.338l30.829-17.828
		L1701.4,458.658z M516.61,882.767l1.808-0.901l0.131,0.076L516.61,882.767z"/>
</g>
<g id="Layer_4">
	<polygon opacity="0.4" fill="#2B3990" points="926.342,1128.562 1967.499,534.692 1665.622,363.948 634.323,966.171 	"/>
	<polygon fill="#F9ED32" points="917.187,1126.401 1963.294,531.165 1660.7,358.754 624.467,962.414 	"/>
	<polygon fill="#8DC63F" points="291.718,765.771 1340.384,174.438 1038.841,0 0,599.831 	"/>
	<polygon fill="#8DC63F" points="592.384,939.771 1641.051,348.438 1339.507,174 300.667,773.831 	"/>
	<polygon fill="#8DC63F" points="739.051,1022.438 1787.718,431.104 1486.174,256.667 447.333,856.497 	"/>
	<polygon fill="#8DC63F" points="895.486,1114.438 1945.718,523.104 1643.724,348.667 603.333,948.497 	"/>
</g>
</svg>
