<?xml version="1.0" encoding="utf-8"?>
<!-- Generator: Adobe Illustrator 17.0.0, SVG Export Plug-In . SVG Version: 6.00 Build 0)  -->
<!DOCTYPE svg PUBLIC "-//W3C//DTD SVG 1.1//EN" "http://www.w3.org/Graphics/SVG/1.1/DTD/svg11.dtd">
<svg version="1.1" id="Layer_1" xmlns="http://www.w3.org/2000/svg" xmlns:xlink="http://www.w3.org/1999/xlink" x="0px" y="0px"
	 width="40.964px" height="23.535px" viewBox="0 0 40.964 23.535" enable-background="new 0 0 40.964 23.535" xml:space="preserve">
<g>
	<g>
		<polygon fill="#808285" points="20.413,23.535 27.258,19.583 33.988,15.697 40.964,11.669 20.413,0 13.616,3.917 6.79,7.85 
			0,11.763 		"/>
		<path fill="#808285" stroke="#000000" stroke-miterlimit="10" d="M33.661,15.55"/>
		<path fill="#808285" stroke="#000000" stroke-miterlimit="10" d="M13.111,3.576"/>
		<polygon fill="#D1D3D4" stroke="#D1D3D4" stroke-width="0.25" stroke-miterlimit="10" points="33.909,15.646 13.705,3.963 
			6.936,7.864 27.235,19.5 		"/>
		<path fill="#808285" stroke="#000000" stroke-miterlimit="10" d="M13.327,3.683"/>
		<g>
			<line fill="#808285" x1="10.199" y1="5.976" x2="30.398" y2="17.653"/>
			<g>
				<line fill="none" stroke="#FFF200" stroke-width="0.5" stroke-miterlimit="10" x1="10.199" y1="5.976" x2="10.523" y2="6.163"/>
				
					<line fill="none" stroke="#FFF200" stroke-width="0.5" stroke-miterlimit="10" stroke-dasharray="0.7284,0.7284" x1="11.154" y1="6.528" x2="29.758" y2="17.283"/>
				
					<line fill="none" stroke="#FFF200" stroke-width="0.5" stroke-miterlimit="10" x1="30.073" y1="17.465" x2="30.398" y2="17.653"/>
			</g>
		</g>
	</g>
	<polygon fill="#D1D3D4" stroke="#D1D3D4" stroke-width="0.25" stroke-miterlimit="10" points="7.019,15.646 27.223,3.963 
		33.992,7.864 13.693,19.5 	"/>
	<g>
		<line fill="#808285" x1="30.729" y1="5.976" x2="10.53" y2="17.653"/>
		<g>
			<line fill="none" stroke="#FFF200" stroke-width="0.5" stroke-miterlimit="10" x1="30.729" y1="5.976" x2="30.405" y2="6.163"/>
			
				<line fill="none" stroke="#FFF200" stroke-width="0.5" stroke-miterlimit="10" stroke-dasharray="0.7284,0.7284" x1="29.774" y1="6.528" x2="11.17" y2="17.283"/>
			<line fill="none" stroke="#FFF200" stroke-width="0.5" stroke-miterlimit="10" x1="10.855" y1="17.465" x2="10.53" y2="17.653"/>
		</g>
	</g>
</g>
</svg>
