<?xml version="1.0" encoding="utf-8"?>
<!-- Generator: Adobe Illustrator 16.0.4, SVG Export Plug-In . SVG Version: 6.00 Build 0)  -->
<!DOCTYPE svg PUBLIC "-//W3C//DTD SVG 1.1//EN" "http://www.w3.org/Graphics/SVG/1.1/DTD/svg11.dtd">
<svg version="1.1" id="Layer_1" xmlns="http://www.w3.org/2000/svg" xmlns:xlink="http://www.w3.org/1999/xlink" x="0px" y="0px"
	 width="41.565px" height="38.468px" viewBox="0 0 41.565 38.468" enable-background="new 0 0 41.565 38.468" xml:space="preserve">
<symbol  id="New_Symbol" viewBox="-3.676 -4.647 7.353 9.294">
	<polygon fill="#607FBF" points="-3.676,-0.604 -3.676,4.647 3.677,0.52 3.677,-2.397 3.677,-4.647 	"/>
	<polygon fill="#BDBEC0" points="-3.044,-0.5 -3.044,3.849 3.045,0.431 3.045,-1.985 3.045,-3.849 	"/>
</symbol>
<symbol  id="basemnt_wndw_west" viewBox="-5.745 -8.844 11.49 17.687">
	<polygon fill="#607FBF" points="-5.745,-1.341 -5.745,8.843 5.745,1.184 5.745,-8.844 	"/>
	<polygon fill="#A8AAAD" points="-4.5,-1.44 -4.5,6.536 4.5,0.537 4.5,-7.317 	"/>
</symbol>
<symbol  id="bush" viewBox="-7.372 -5.245 14.744 10.49">
	<path fill="#06A14B" stroke="#019547" stroke-width="1.3679" stroke-miterlimit="10" d="M2.269,0.244
		c0.591,0.432,0.98,1.135,0.98,1.933c0,1.316-1.048,2.384-2.34,2.384c-0.932,0-1.73-0.56-2.106-1.363
		c-0.474,0.348-1.148,0.569-1.906,0.569c-1.43,0-2.589-0.776-2.589-1.735c0-0.158,0.042-0.309,0.101-0.454
		c-0.661-0.4-1.096-1.049-1.096-1.785c0-1.216,1.176-2.203,2.628-2.203c1.452,0,2.629,0.987,2.629,2.203
		c0,0.29-0.071,0.565-0.192,0.818C-1.42,0.706-1.245,0.824-1.09,0.953c0.151-0.254,0.346-0.476,0.576-0.657
		C-1.149-0.088-1.566-0.73-1.566-1.463c0-1.177,1.078-2.13,2.408-2.13c1.329,0,2.407,0.953,2.407,2.13
		C3.249-0.762,2.86-0.145,2.269,0.244z"/>
	<path fill="#06A14B" stroke="#019547" stroke-width="1.3679" stroke-miterlimit="10" d="M4.968,2.177c-0.95,0-1.72-0.815-1.72-1.82
		s0.77-1.819,1.72-1.819s1.72,0.814,1.72,1.819S5.918,2.177,4.968,2.177z"/>
	<path fill="#06A14B" stroke="#019547" stroke-width="1.3679" stroke-miterlimit="10" d="M-4.896-2.411
		c-0.99,0-1.792-0.481-1.792-1.075c0-0.595,0.802-1.075,1.792-1.075c0.99,0,1.792,0.48,1.792,1.075
		C-3.104-2.893-3.906-2.411-4.896-2.411z"/>
	<path fill="#06A14B" stroke="#019547" stroke-width="1.3679" stroke-miterlimit="10" d="M-3.104-3.539
		c0-0.03,0.344-0.054,0.769-0.054c0.425,0,0.769,0.023,0.769,0.054c0,0.029-0.344,0.053-0.769,0.053
		C-2.76-3.486-3.104-3.51-3.104-3.539z"/>
</symbol>
<symbol  id="east_window" viewBox="-4.164 -11.487 8.328 22.975">
	<polygon fill="#607FBF" points="-4.138,-11.487 -4.138,6.502 4.164,11.488 4.164,-6.704 	"/>
	<polygon fill="#BDBEC0" points="-3.4,-10.003 -3.4,5.228 3.628,9.448 3.628,-5.954 	"/>
	<polygon fill="#607FBF" points="3.695,1.609 -4.164,-2.479 -3.733,-3.31 4.126,0.778 	"/>
</symbol>
<g>
	<polygon fill="#85C98D" points="0.004,26.469 20.782,14.469 41.565,26.466 20.788,38.468 0,26.805 	"/>
	<polygon fill="#A9BCE1" points="10.59,19.921 13.159,18.562 13.27,20.128 10.717,21.602 	"/>
	<polyline id="NEW_SOUTH_WALL" fill="#BFE2F4" points="23.557,14.16 23.828,31.993 34.042,26.273 33.951,8.035 23.669,14.063 	"/>
	<polygon fill="#607FBF" points="19.854,6.003 14.723,10.085 21.16,7.501 22.443,7.586 	"/>
	<polyline fill="#A9BCE1" points="10.758,20.159 13.015,21.419 13.094,23.068 10.59,21.751 10.758,20.159 	"/>
	<polygon fill="#607FBF" points="12.199,13.665 13.403,11.554 14.121,12.885 	"/>
	<g>
		
			<ellipse transform="matrix(-0.6146 0.7889 -0.7889 -0.6146 38.6719 31.7057)" fill="#06A14B" stroke="#019547" stroke-width="0.8744" stroke-miterlimit="10" cx="11.59" cy="25.3" rx="0.272" ry="0.294"/>
		<path fill="#06A14B" stroke="#019547" stroke-width="1.4746" stroke-miterlimit="10" d="M11.443,23.635
			c0.146-0.127,0.243-0.332,0.243-0.566c0-0.386-0.26-0.699-0.58-0.699c-0.23,0-0.428,0.164-0.521,0.399
			c-0.118-0.102-0.284-0.166-0.472-0.166c-0.354,0-0.641,0.228-0.641,0.509c0,0.046,0.01,0.091,0.025,0.133
			c-0.164,0.117-0.271,0.308-0.271,0.523c0,0.356,0.292,0.646,0.651,0.646c0.36,0,0.651-0.29,0.651-0.646
			c0-0.085-0.017-0.166-0.047-0.24c0.05-0.028,0.094-0.062,0.132-0.101c0.037,0.075,0.085,0.14,0.142,0.193
			c-0.157,0.112-0.26,0.301-0.26,0.515c0,0.346,0.267,0.626,0.596,0.626s0.597-0.28,0.597-0.626
			C11.686,23.93,11.589,23.749,11.443,23.635z"/>
		
			<ellipse fill="#06A14B" stroke="#019547" stroke-width="1.4746" stroke-miterlimit="10" cx="12.111" cy="23.602" rx="0.426" ry="0.533"/>
		
			<ellipse fill="#06A14B" stroke="#019547" stroke-width="1.4746" stroke-miterlimit="10" cx="9.668" cy="24.729" rx="0.444" ry="0.315"/>
		
			<ellipse fill="#06A14B" stroke="#019547" stroke-width="1.4746" stroke-miterlimit="10" cx="10.302" cy="24.744" rx="0.19" ry="0.017"/>
	</g>
	<polygon fill="#A9BCE1" points="10.717,21.755 10.717,24.467 12.115,25.079 13.113,25.602 13.506,23.046 10.717,21.602 	"/>
	<polygon fill="#BFE2F4" points="11.462,26.324 11.462,25.733 11.89,25.611 11.935,24.987 12.526,24.842 12.493,24.232 
		13.13,24.033 13.078,23.41 13.074,23.286 13.4,23.286 15.485,24.66 15.503,27.213 14.145,27.661 13.4,27.327 	"/>
	<polyline fill="#607FBF" points="13.822,27.675 13.755,27.009 14.214,27.009 14.275,26.271 14.961,26.07 14.961,25.304 
		15.369,25.216 15.369,24.324 15.521,24.302 15.691,24.302 15.612,27.344 13.822,27.675 	"/>
	<polygon fill="none" points="10.62,24.754 10.62,15.759 15.869,18.789 15.869,27.754 	"/>
	<polygon id="PORCH_FLOOR" fill="#BFE2F4" points="10.688,21.671 13.26,20.159 15.78,21.775 18.063,23.019 15.732,24.661 	"/>
	
		<rect x="10.388" y="19.104" transform="matrix(0.8839 -0.4677 0.4677 0.8839 -7.5944 7.7652)" fill="#607FBF" width="2.906" height="0.146"/>
	
		<rect x="11.982" y="20.325" transform="matrix(0.8632 -0.5049 0.5049 0.8632 -8.5548 9.2489)" fill="#607FBF" width="1.607" height="0.164"/>
	
		<rect x="13.758" y="25.454" fill="#736759" stroke="#736759" stroke-width="0.2649" stroke-miterlimit="10" width="0.396" height="2.322"/>
	<rect x="10.285" y="15.356" fill="#5271B7" width="0.403" height="9.75"/>
	<g>
		<path fill="#06A14B" stroke="#019547" stroke-width="1.3736" stroke-miterlimit="10" d="M35.942,24.424
			c0.136-0.118,0.226-0.31,0.226-0.528c0-0.359-0.242-0.651-0.54-0.651c-0.215,0-0.399,0.153-0.486,0.373
			c-0.109-0.095-0.265-0.156-0.44-0.156c-0.33,0-0.597,0.213-0.597,0.475c0,0.043,0.01,0.084,0.023,0.124
			c-0.153,0.109-0.253,0.286-0.253,0.487c0,0.332,0.271,0.602,0.606,0.602s0.606-0.27,0.606-0.602c0-0.079-0.016-0.154-0.044-0.224
			c0.047-0.025,0.087-0.058,0.123-0.094c0.035,0.069,0.08,0.13,0.133,0.18c-0.146,0.104-0.243,0.281-0.243,0.48
			c0,0.321,0.249,0.582,0.556,0.582c0.307,0,0.555-0.261,0.555-0.582C36.168,24.698,36.079,24.529,35.942,24.424z"/>
		
			<ellipse fill="#06A14B" stroke="#019547" stroke-width="1.3736" stroke-miterlimit="10" cx="36.565" cy="24.393" rx="0.397" ry="0.497"/>
		
			<ellipse fill="#06A14B" stroke="#019547" stroke-width="1.3736" stroke-miterlimit="10" cx="34.289" cy="25.442" rx="0.414" ry="0.294"/>
		
			<ellipse fill="#06A14B" stroke="#019547" stroke-width="1.3736" stroke-miterlimit="10" cx="34.88" cy="25.457" rx="0.177" ry="0.015"/>
	</g>
	<g>
		<path fill="#06A14B" stroke="#019547" stroke-width="1.3736" stroke-miterlimit="10" d="M35.564,22.806
			c0.172-0.055,0.331-0.195,0.417-0.396c0.142-0.33,0.036-0.693-0.239-0.812c-0.197-0.085-0.427-0.018-0.593,0.149
			c-0.063-0.129-0.182-0.247-0.343-0.315c-0.303-0.131-0.632-0.042-0.736,0.199c-0.017,0.039-0.024,0.081-0.027,0.123
			c-0.184,0.04-0.345,0.162-0.425,0.347c-0.131,0.306,0.012,0.66,0.319,0.793c0.308,0.133,0.664-0.008,0.795-0.312
			c0.031-0.073,0.045-0.148,0.047-0.223c0.053-0.006,0.103-0.02,0.15-0.038c0.004,0.077,0.022,0.151,0.051,0.218
			c-0.176,0.038-0.333,0.161-0.413,0.345c-0.127,0.296-0.001,0.633,0.28,0.755c0.282,0.121,0.613-0.021,0.741-0.315
			C35.663,23.147,35.647,22.957,35.564,22.806z"/>
		
			<ellipse transform="matrix(0.395 -0.9187 0.9187 0.395 0.7185 47.1389)" fill="#06A14B" stroke="#019547" stroke-width="1.3736" stroke-miterlimit="10" cx="36.148" cy="23.024" rx="0.497" ry="0.397"/>
		
			<ellipse transform="matrix(0.3953 -0.9185 0.9185 0.3953 -0.8644 44.8636)" fill="#06A14B" stroke="#019547" stroke-width="1.3736" stroke-miterlimit="10" cx="33.643" cy="23.088" rx="0.294" ry="0.413"/>
		
			<ellipse transform="matrix(-0.9183 -0.3959 0.3959 -0.9183 56.3289 58.2955)" fill="#06A14B" stroke="#019547" stroke-width="1.3736" stroke-miterlimit="10" cx="34.18" cy="23.335" rx="0.178" ry="0.015"/>
	</g>
	<polygon id="porch_back_wall" fill="#A9BCE1" points="16.236,22.001 16.008,18.188 12.988,16.454 13.237,20.262 	"/>
	<polygon id="PORCH_GUTTER" fill="#5271B7" points="10.56,15.972 10.245,15.461 10.391,15.196 11.359,15.834 16.177,18.283 
		16.188,18.812 	"/>
	
		<rect x="12.784" y="23.762" transform="matrix(0.8555 0.5178 -0.5178 0.8555 14.4436 -3.9517)" fill="#607FBF" width="3.036" height="0.282"/>
	
		<rect x="11.347" y="24.298" fill="#736759" stroke="#736759" stroke-width="0.2566" stroke-miterlimit="10" width="0.396" height="2.179"/>
	
		<rect x="12.345" y="25.32" transform="matrix(0.878 0.4787 -0.4787 0.878 13.8266 -3.4535)" fill="#607FBF" width="2.685" height="0.146"/>
	<ellipse fill="#A9BCE1" cx="11.505" cy="24.025" rx="0.27" ry="0.276"/>
	<ellipse fill="#A9BCE1" cx="13.956" cy="25.219" rx="0.27" ry="0.262"/>
	<rect x="15.222" y="22.186" fill="#5271B7" width="0.423" height="2.394"/>
	<ellipse fill="#A9BCE1" cx="15.434" cy="21.978" rx="0.281" ry="0.295"/>
	
		<rect x="10.271" y="22.259" transform="matrix(0.8673 0.4978 -0.4978 0.8673 12.7035 -2.9049)" fill="#607FBF" width="3.059" height="0.233"/>
	
		<rect x="10.289" y="20.541" transform="matrix(0.8778 0.4791 -0.4791 0.8778 11.3115 -3.106)" fill="#607FBF" width="2.907" height="0.145"/>
	<rect x="13.015" y="21.2" fill="#5271B7" width="0.396" height="2.013"/>
	<ellipse fill="#A9BCE1" cx="13.212" cy="21.017" rx="0.27" ry="0.261"/>
	
		<rect x="12.944" y="24.437" transform="matrix(0.8779 0.4788 -0.4788 0.8779 13.4716 -3.8172)" fill="#607FBF" width="2.556" height="0.147"/>
	
		<rect id="bannister_right" x="14.914" y="23.137" transform="matrix(0.7417 0.6707 -0.6707 0.7417 20.4803 -3.6655)" fill="#607FBF" width="0.172" height="3.247"/>
	
		<rect id="bannister_left" x="12.271" y="22.549" transform="matrix(0.704 0.7102 -0.7102 0.704 20.6231 -1.6989)" fill="#607FBF" width="0.157" height="2.683"/>
	<path fill="#06A14B" stroke="#019547" stroke-width="0.8743" stroke-miterlimit="10" d="M11.007,25.432
		c0.119,0.011,0.236-0.031,0.31-0.125c0.121-0.154,0.077-0.391-0.097-0.526c-0.126-0.099-0.285-0.116-0.409-0.062
		c-0.032-0.091-0.103-0.188-0.205-0.267c-0.193-0.15-0.42-0.181-0.508-0.068c-0.015,0.019-0.022,0.041-0.028,0.064
		c-0.125-0.023-0.244,0.008-0.312,0.095c-0.111,0.144-0.043,0.383,0.152,0.535c0.196,0.153,0.445,0.161,0.557,0.018
		c0.027-0.035,0.042-0.074,0.049-0.117c0.036,0.011,0.071,0.016,0.104,0.016c-0.003,0.046,0.003,0.093,0.018,0.139
		c-0.121-0.022-0.236,0.01-0.304,0.096c-0.108,0.14-0.05,0.364,0.129,0.504c0.18,0.14,0.413,0.142,0.521,0.003
		C11.047,25.652,11.051,25.539,11.007,25.432z"/>
	
		<ellipse transform="matrix(-0.6146 0.7889 -0.7889 -0.6146 38.4547 32.1145)" fill="#06A14B" stroke="#019547" stroke-width="0.8744" stroke-miterlimit="10" cx="11.382" cy="25.452" rx="0.272" ry="0.294"/>
	
		<ellipse transform="matrix(0.6165 -0.7874 0.7874 0.6165 -16.0571 17.2693)" fill="#06A14B" stroke="#019547" stroke-width="0.8743" stroke-miterlimit="10" cx="9.698" cy="25.117" rx="0.16" ry="0.306"/>
	
		<ellipse transform="matrix(-0.7899 -0.6133 0.6133 -0.7899 2.3945 51.6066)" fill="#06A14B" stroke="#019547" stroke-width="0.8743" stroke-miterlimit="10" cx="10.039" cy="25.393" rx="0.131" ry="0.008"/>
	
		<rect x="11.622" y="26.143" transform="matrix(0.8779 0.4789 -0.4789 0.8779 14.142 -3.0188)" fill="#607FBF" width="2.734" height="0.146"/>
	<polygon id="PORCH_GUTTER_1_" fill="#BE202E" points="15.85,18.104 15.57,17.585 15.71,17.324 16.59,17.982 20.986,20.539 
		20.986,21.068 	"/>
	<polygon fill="#BFE2F4" points="10.914,15.256 15.535,12.704 16.664,11.991 16.457,17.831 15.812,18.201 10.927,15.613 	"/>
	<polygon fill="#607FBF" points="14.498,14.179 17.123,12.764 17.123,15.049 14.498,16.348 	"/>
	<polygon fill="#A9BCE1" points="12.713,15.388 12.713,12.97 14.528,13.928 14.498,16.348 	"/>
	<polygon fill="#BFE2F4" points="12.695,13.012 13.445,12.013 14.778,14.053 	"/>
	<polygon fill="#A9BCE1" points="13.308,11.546 14.852,15.196 18.04,13.104 16.592,9.94 	"/>
	<path id="NEW_FLAT_ROOF" fill="#BFE2F4" d="M15.943,9.592C15.82,9.663,25.997,3.698,26.076,3.696
		c0.08-0.001,7.825,4.472,7.825,4.472l-10.394,6.125l-7.521-4.822"/>
	<polygon fill="#A9BCE1" points="18.908,9.682 18.908,7.557 20.289,6.759 22.074,9.312 22.074,11.397 	"/>
	<polygon fill="#5271B7" points="13.667,19.395 13.667,18.308 15.189,19.162 15.189,19.766 15.189,20.231 	"/>
	<polygon fill="#97999C" points="13.788,19.375 13.788,18.46 15.069,19.179 15.069,19.687 15.069,20.079 	"/>
	
		<use xlink:href="#New_Symbol"  width="7.353" height="9.294" x="-3.676" y="-4.647" transform="matrix(0.25 0 0 -0.25 20.2407 9.1221)" overflow="visible"/>
	
		<ellipse transform="matrix(0.9796 0.2009 -0.2009 0.9796 1.9815 -3.8668)" fill="#607FBF" cx="20.046" cy="7.832" rx="0.396" ry="0.328"/>
	<polyline id="FRONT_WALL" fill="#A9BCE1" points="15.903,9.512 23.857,13.838 24.129,31.862 15.905,27.366 15.986,9.888 	"/>
	
		<use xlink:href="#basemnt_wndw_west"  width="11.49" height="17.687" x="-5.745" y="-8.844" transform="matrix(0.2028 0 0 -0.2028 17.8374 28.0498)" overflow="visible"/>
	
		<use xlink:href="#basemnt_wndw_west"  width="11.49" height="17.687" x="-5.745" y="-8.844" transform="matrix(0.2028 0 0 -0.2028 21.1782 30.0068)" overflow="visible"/>
	<g>
		<path fill="#06A14B" stroke="#019547" stroke-width="1.2564" stroke-miterlimit="10" d="M22.69,30.75
			c0.125-0.108,0.207-0.283,0.207-0.483c0-0.328-0.221-0.596-0.494-0.596c-0.197,0-0.365,0.14-0.444,0.341
			c-0.1-0.086-0.242-0.143-0.402-0.143c-0.302,0-0.546,0.194-0.546,0.434c0,0.04,0.009,0.077,0.021,0.114
			c-0.14,0.1-0.231,0.262-0.231,0.445c0,0.304,0.248,0.551,0.555,0.551c0.306,0,0.555-0.247,0.555-0.551
			c0-0.072-0.015-0.141-0.041-0.204c0.043-0.023,0.08-0.054,0.112-0.086c0.032,0.063,0.073,0.119,0.122,0.164
			c-0.134,0.096-0.222,0.257-0.222,0.44c0,0.293,0.228,0.531,0.508,0.531c0.28,0,0.508-0.238,0.508-0.531
			C22.897,31.001,22.815,30.847,22.69,30.75z"/>
		
			<ellipse fill="#06A14B" stroke="#019547" stroke-width="1.2564" stroke-miterlimit="10" cx="23.26" cy="30.722" rx="0.363" ry="0.455"/>
		
			<ellipse fill="#06A14B" stroke="#019547" stroke-width="1.2564" stroke-miterlimit="10" cx="21.178" cy="31.682" rx="0.378" ry="0.269"/>
		
			<ellipse fill="#06A14B" stroke="#019547" stroke-width="1.2564" stroke-miterlimit="10" cx="21.719" cy="31.694" rx="0.162" ry="0.014"/>
	</g>
	<g>
		<path fill="#06A14B" stroke="#019547" stroke-width="1.2564" stroke-miterlimit="10" d="M24.991,32.043
			c0.16,0.042,0.351,0.011,0.516-0.102c0.272-0.185,0.368-0.517,0.215-0.742c-0.111-0.162-0.321-0.224-0.531-0.177
			c0.015-0.131-0.019-0.279-0.109-0.412c-0.169-0.249-0.467-0.343-0.666-0.208c-0.032,0.022-0.059,0.051-0.082,0.082
			c-0.161-0.06-0.347-0.045-0.499,0.06c-0.251,0.171-0.315,0.515-0.143,0.768s0.516,0.32,0.767,0.149
			c0.06-0.041,0.108-0.092,0.146-0.148c0.043,0.021,0.089,0.036,0.134,0.045c-0.035,0.062-0.058,0.127-0.068,0.192
			c-0.154-0.057-0.337-0.039-0.488,0.063c-0.243,0.165-0.312,0.487-0.154,0.72c0.158,0.231,0.482,0.286,0.726,0.12
			C24.9,32.354,24.981,32.2,24.991,32.043z"/>
		
			<ellipse transform="matrix(0.8267 -0.5626 0.5626 0.8267 -13.8936 19.8846)" fill="#06A14B" stroke="#019547" stroke-width="1.2564" stroke-miterlimit="10" cx="25.335" cy="32.498" rx="0.455" ry="0.363"/>
		
			<ellipse transform="matrix(0.8273 -0.5618 0.5618 0.8273 -13.5574 18.5392)" fill="#06A14B" stroke="#019547" stroke-width="1.2564" stroke-miterlimit="10" cx="23.37" cy="31.317" rx="0.269" ry="0.377"/>
		
			<ellipse transform="matrix(-0.5637 -0.826 0.826 -0.5637 10.7599 69.2265)" fill="#06A14B" stroke="#019547" stroke-width="1.2564" stroke-miterlimit="10" cx="23.663" cy="31.771" rx="0.162" ry="0.013"/>
	</g>
	<g>
		<path fill="#06A14B" stroke="#019547" stroke-width="1.2564" stroke-miterlimit="10" d="M23.197,32.388
			c0.159,0.042,0.351,0.012,0.515-0.101c0.272-0.185,0.368-0.518,0.215-0.744c-0.11-0.162-0.321-0.223-0.531-0.175
			c0.015-0.132-0.019-0.28-0.109-0.413c-0.169-0.25-0.467-0.343-0.666-0.208c-0.032,0.022-0.059,0.051-0.082,0.082
			c-0.161-0.06-0.347-0.044-0.499,0.06c-0.251,0.171-0.316,0.515-0.144,0.768c0.173,0.254,0.516,0.32,0.768,0.149
			c0.06-0.041,0.108-0.092,0.146-0.148c0.044,0.022,0.089,0.036,0.134,0.044c-0.035,0.062-0.058,0.128-0.068,0.193
			c-0.154-0.057-0.337-0.039-0.488,0.064c-0.243,0.164-0.312,0.486-0.154,0.719c0.158,0.232,0.482,0.286,0.726,0.12
			C23.105,32.7,23.187,32.545,23.197,32.388z"/>
		
			<ellipse transform="matrix(0.8267 -0.5626 0.5626 0.8267 -14.3985 18.9348)" fill="#06A14B" stroke="#019547" stroke-width="1.2564" stroke-miterlimit="10" cx="23.541" cy="32.843" rx="0.455" ry="0.363"/>
		
			<ellipse transform="matrix(0.8273 -0.5618 0.5618 0.8273 -14.061 17.5906)" fill="#06A14B" stroke="#019547" stroke-width="1.2564" stroke-miterlimit="10" cx="21.576" cy="31.662" rx="0.269" ry="0.378"/>
		
			<ellipse transform="matrix(-0.5613 -0.8276 0.8276 -0.5613 7.5637 68.2409)" fill="#06A14B" stroke="#019547" stroke-width="1.2564" stroke-miterlimit="10" cx="21.869" cy="32.116" rx="0.162" ry="0.013"/>
	</g>
	
		<use xlink:href="#bush"  width="14.744" height="10.49" x="-7.372" y="-5.245" transform="matrix(0.25 0 0 -0.25 29.3535 28.6572)" overflow="visible"/>
	
		<use xlink:href="#bush"  width="14.744" height="10.49" x="-7.372" y="-5.245" transform="matrix(0.25 0 0 -0.25 29.9019 28.1982)" overflow="visible"/>
	<rect x="11.346" y="24.384" fill="#5271B7" width="0.396" height="2.18"/>
	<rect x="13.744" y="25.48" fill="#5271B7" width="0.424" height="2.334"/>
	
		<use xlink:href="#east_window"  width="8.328" height="22.975" x="-4.164" y="-11.487" transform="matrix(0.25 0 0 -0.25 27.0537 18.2607)" overflow="visible"/>
	
		<use xlink:href="#east_window"  width="8.328" height="22.975" x="-4.164" y="-11.487" transform="matrix(0.25 0 0 -0.25 27.4922 24.1348)" overflow="visible"/>
	
		<use xlink:href="#east_window"  width="8.328" height="22.975" x="-4.164" y="-11.487" transform="matrix(-0.25 0 0 -0.25 17.4629 14.8242)" overflow="visible"/>
	
		<use xlink:href="#east_window"  width="8.328" height="22.975" x="-4.164" y="-11.487" transform="matrix(-0.25 0 0 -0.25 21.1782 16.8242)" overflow="visible"/>
	
		<use xlink:href="#east_window"  width="8.328" height="22.975" x="-4.164" y="-11.487" transform="matrix(-0.25 0 0 -0.25 21.0107 23.8906)" overflow="visible"/>
	
		<use xlink:href="#east_window"  width="8.328" height="22.975" x="-4.164" y="-11.487" transform="matrix(-0.25 0 0 -0.25 17.4663 22.207)" overflow="visible"/>
	
		<use xlink:href="#east_window"  width="8.328" height="22.975" x="-4.164" y="-11.487" transform="matrix(0.25 0 0 -0.25 31.0249 15.9287)" overflow="visible"/>
	
		<use xlink:href="#east_window"  width="8.328" height="22.975" x="-4.164" y="-11.487" transform="matrix(0.25 0 0 -0.25 31.0205 22.1152)" overflow="visible"/>
	
		<use xlink:href="#basemnt_wndw_west"  width="11.49" height="17.687" x="-5.745" y="-8.844" transform="matrix(-0.1835 0 0 -0.1835 27.7734 28.7998)" overflow="visible"/>
	
		<use xlink:href="#basemnt_wndw_west"  width="11.49" height="17.687" x="-5.745" y="-8.844" transform="matrix(-0.1898 0 0 -0.1898 31.459 26.5547)" overflow="visible"/>
	
		<use xlink:href="#bush"  width="14.744" height="10.49" x="-7.372" y="-5.245" transform="matrix(0.25 0 0 -0.25 29.9907 28.0176)" overflow="visible"/>
	
		<use xlink:href="#bush"  width="14.744" height="10.49" x="-7.372" y="-5.245" transform="matrix(0.25 0 0 -0.25 33.5688 26.2158)" overflow="visible"/>
	<g>
		<path fill="#06A14B" stroke="#019547" stroke-width="0.8743" stroke-miterlimit="10" d="M20.177,30.371
			c0.119,0.012,0.236-0.03,0.309-0.124c0.121-0.155,0.078-0.392-0.097-0.527c-0.125-0.099-0.285-0.116-0.409-0.061
			c-0.033-0.091-0.103-0.188-0.206-0.269c-0.192-0.149-0.42-0.181-0.508-0.066c-0.014,0.018-0.023,0.04-0.028,0.063
			c-0.125-0.022-0.244,0.009-0.311,0.095c-0.112,0.144-0.043,0.384,0.152,0.536s0.445,0.16,0.557,0.017
			c0.027-0.034,0.042-0.074,0.049-0.117c0.036,0.011,0.07,0.016,0.104,0.017c-0.003,0.046,0.003,0.092,0.017,0.138
			c-0.121-0.021-0.236,0.011-0.303,0.097c-0.108,0.138-0.05,0.364,0.129,0.504c0.18,0.14,0.413,0.141,0.521,0.002
			C20.217,30.593,20.221,30.479,20.177,30.371z"/>
		
			<ellipse transform="matrix(0.6154 -0.7882 0.7882 0.6154 -16.2478 27.9824)" fill="#06A14B" stroke="#019547" stroke-width="0.8743" stroke-miterlimit="10" cx="20.552" cy="30.642" rx="0.271" ry="0.294"/>
		
			<ellipse transform="matrix(0.614 -0.7893 0.7893 0.614 -16.4409 26.4929)" fill="#06A14B" stroke="#019547" stroke-width="0.8743" stroke-miterlimit="10" cx="18.868" cy="30.057" rx="0.16" ry="0.307"/>
		
			<ellipse transform="matrix(-0.7899 -0.6133 0.6133 -0.7899 15.7788 66.0717)" fill="#06A14B" stroke="#019547" stroke-width="0.8743" stroke-miterlimit="10" cx="19.209" cy="30.333" rx="0.131" ry="0.007"/>
	</g>
	
		<use xlink:href="#New_Symbol"  width="7.353" height="9.294" x="-3.676" y="-4.647" transform="matrix(0.1365 0 0 -0.1365 13.5708 14.7861)" overflow="visible"/>
	<polygon fill="#A9BCE1" points="24.208,15.001 34.6,9 30.241,0 19.854,6.003 	"/>
</g>
</svg>
