<?xml version="1.0" encoding="utf-8"?>
<!-- Generator: Adobe Illustrator 16.0.4, SVG Export Plug-In . SVG Version: 6.00 Build 0)  -->
<!DOCTYPE svg PUBLIC "-//W3C//DTD SVG 1.1//EN" "http://www.w3.org/Graphics/SVG/1.1/DTD/svg11.dtd">
<svg version="1.1" id="Layer_1" xmlns="http://www.w3.org/2000/svg" xmlns:xlink="http://www.w3.org/1999/xlink" x="0px" y="0px"
	 width="42.143px" height="30.239px" viewBox="0 0 42.143 30.239" enable-background="new 0 0 42.143 30.239" xml:space="preserve">
<g>
	<polygon fill="#41833E" points="0,18.08 21.071,30.239 42.143,18.08 21.064,5.914 	"/>
	<g>
		<polygon fill="#C2B370" points="6.133,17.302 7.165,17.854 7.165,14.339 6.093,13.859 		"/>
		<polygon fill="#D9CEA2" points="7.165,14.339 6.093,13.859 10.744,11.316 11.708,11.867 		"/>
		<polygon fill="#A09129" points="7.165,17.854 11.921,14.882 11.708,11.867 7.165,14.339 		"/>
		<polygon fill="#895749" points="7.368,17.737 7.368,16.811 10.799,18.714 10.799,19.669 		"/>
		<polygon fill="#6E3528" points="7.368,16.817 8.391,16.27 11.866,18.146 10.799,18.714 		"/>
		<polygon fill="#895749" points="8.387,16.271 8.387,15.345 11.818,17.247 11.818,18.202 		"/>
		<polygon fill="#6E3528" points="8.387,15.352 9.41,14.803 12.885,16.68 11.818,17.247 		"/>
		<polygon fill="#895749" points="9.417,14.808 9.417,13.881 12.847,15.784 12.847,16.739 		"/>
		<polygon fill="#6E3528" points="9.417,13.888 10.439,13.339 13.915,15.216 12.847,15.784 		"/>
		<polygon fill="#C2B370" points="10.599,19.848 21.256,26.056 21.276,13.302 10.599,7.135 		"/>
		<polygon fill="#A09129" points="21.256,26.056 31.952,19.942 31.952,7.735 21.256,13.897 		"/>
		<path fill="#895749" d="M13.268,8.781l5.51,3.456c0,0-1.634,0.747-4.478-1.023C14.3,11.214,13.053,10.287,13.268,8.781z"/>
		<polygon fill="#895749" points="12.961,21.224 12.961,17.168 16.739,19.369 16.739,23.425 		"/>
		<path fill="#76391B" d="M13.187,14.882c0,0-0.379,3.138,5.424,3.486l0.167-6.131c0,0-5.81,0.218-5.51-3.456L13.187,14.882z"/>
		<path fill="#E75300" d="M19.934,16.365c0,0-4.351-9.649-12.004-8.624l13.359-7.713c0,0,7.525-0.981,12.004,8.624L19.934,16.365z"
			/>
		<path fill="#D9CEA2" d="M13.517,11.214v3.577c0,0,0.769,2.274,4.107,2.18l0.003-3.574C14.524,13.186,13.517,11.214,13.517,11.214z
			"/>
	</g>
</g>
</svg>
