<?xml version="1.0" encoding="utf-8"?>
<!-- Generator: Adobe Illustrator 17.0.0, SVG Export Plug-In . SVG Version: 6.00 Build 0)  -->
<!DOCTYPE svg PUBLIC "-//W3C//DTD SVG 1.1//EN" "http://www.w3.org/Graphics/SVG/1.1/DTD/svg11.dtd">
<svg version="1.1" id="Layer_1" xmlns="http://www.w3.org/2000/svg" xmlns:xlink="http://www.w3.org/1999/xlink" x="0px" y="0px"
	 width="64px" height="58px" viewBox="0 0 64 58" enable-background="new 0 0 64 58" xml:space="preserve">
<polygon fill="#CDCCCC" points="5.206,38.695 33.27,22.496 61.33,38.692 33.27,54.895 "/>
<polygon fill="#7096CE" points="51.97,38.693 33.263,49.497 14.561,38.693 14.561,11.696 33.27,22.496 51.968,11.696 "/>
<polygon fill="#99BCE2" points="14.561,38.693 14.561,11.696 33.27,22.496 33.263,49.497 "/>
<polygon fill="#4E5E75" points="21.548,22.723 23.888,24.069 23.883,32.171 21.548,30.824 "/>
<polygon fill="#4E5E75" points="24.622,24.486 26.96,25.833 26.956,33.933 24.622,32.587 "/>
<polygon fill="#4E5E75" points="27.662,26.321 30,27.667 29.994,35.768 27.662,34.421 "/>
<polygon fill="#4E5E75" points="21.423,32.348 23.763,33.694 23.758,41.796 21.423,40.449 "/>
<polygon fill="#4E5E75" points="24.497,34.111 26.835,35.458 26.831,43.558 24.497,42.212 "/>
<polygon fill="#4E5E75" points="27.537,35.946 29.875,37.292 29.869,45.393 27.537,44.046 "/>
<g>
	<defs>
		<rect id="SVGID_1_" x="-11.602" y="-15.75" width="178.201" height="137.7"/>
	</defs>
	<clipPath id="SVGID_2_">
		<use xlink:href="#SVGID_1_"  overflow="visible"/>
	</clipPath>
	<path clip-path="url(#SVGID_2_)" fill="#4E5E75" d="M15.624,33.805l2.9,1.677l0.006-6.715c0-4.559-2.909-5.546-2.915-1.683
		C15.609,32.362,15.624,33.805,15.624,33.805"/>
	<polygon clip-path="url(#SVGID_2_)" fill="#8D9399" points="18.636,35.535 18.53,35.474 18.53,35.468 18.507,35.46 15.513,33.73 
		13.948,34.63 13.948,36.438 12.381,37.34 12.38,39.148 10.816,40.049 10.819,41.856 13.945,43.661 18.53,41.017 18.53,35.596 	"/>
	<polygon clip-path="url(#SVGID_2_)" fill="#AFB0B2" points="10.816,40.049 12.38,39.148 15.509,40.953 13.948,41.854 	"/>
	<polygon clip-path="url(#SVGID_2_)" fill="#AFB0B2" points="12.381,37.344 13.942,36.442 17.073,38.247 15.511,39.148 	"/>
	<polygon clip-path="url(#SVGID_2_)" fill="#AFB0B2" points="13.945,34.637 15.507,33.736 18.636,35.541 17.075,36.442 	"/>
	<polygon clip-path="url(#SVGID_2_)" fill="#667A8E" points="14.561,11.696 33.27,0.897 51.968,11.696 33.27,22.496 	"/>
	<polygon clip-path="url(#SVGID_2_)" fill="#D2D3D4" points="22.561,11.782 32.892,5.818 43.218,11.782 32.892,17.746 	"/>
</g>
<path fill="#58CAF4" d="M42.148,20.846c1.845,5.885,3.512,4.422,3.931,1.547c0,0,4.208-1.66,4.319-1.066
	c1.432,7.638-6.316,18.086-7.113,18.186c-0.797,0.1-7.348-5.42-8.148-10.878c-0.16-1.083,3.729-2.237,4.074-3.112
	C42.61,28.674,41.958,26.088,42.148,20.846z"/>
<path fill="#337FC1" d="M42.604,23.559c1.511,4.814,3.557,2.351,3.899,0c0,0,2.992-1.514,3.084-1.029
	c1.172,6.249-5.73,16.123-6.383,16.205c-0.652,0.082-6.648-5.176-7.305-9.641c-0.131-0.887,2.682-1.463,2.963-2.178
	C41.646,29.497,42.448,27.846,42.604,23.559z"/>
</svg>
