<?xml version="1.0" encoding="utf-8"?>
<!-- Generator: Adobe Illustrator 17.0.0, SVG Export Plug-In . SVG Version: 6.00 Build 0)  -->
<!DOCTYPE svg PUBLIC "-//W3C//DTD SVG 1.1//EN" "http://www.w3.org/Graphics/SVG/1.1/DTD/svg11.dtd">
<svg version="1.1" id="Layer_1" xmlns="http://www.w3.org/2000/svg" xmlns:xlink="http://www.w3.org/1999/xlink" x="0px" y="0px"
	 width="40.964px" height="23.535px" viewBox="0 0 40.964 23.535" enable-background="new 0 0 40.964 23.535" xml:space="preserve">
<polygon fill="#808285" points="20.413,23.535 27.257,19.583 33.988,15.697 40.964,11.669 20.413,0 13.616,3.917 6.79,7.85 
	0,11.763 "/>
<path fill="#808285" stroke="#000000" stroke-miterlimit="10" d="M33.662,15.55"/>
<path fill="#808285" stroke="#000000" stroke-miterlimit="10" d="M13.111,3.576"/>
<polygon fill="#D1D3D4" stroke="#D1D3D4" stroke-width="0.25" stroke-miterlimit="10" points="33.91,15.646 13.705,3.963 
	6.936,7.864 27.235,19.5 "/>
<g>
	<line fill="none" x1="10.199" y1="5.976" x2="30.398" y2="17.652"/>
	<g>
		<line fill="none" stroke="#FFF200" stroke-width="0.5" stroke-miterlimit="10" x1="10.199" y1="5.976" x2="10.523" y2="6.163"/>
		
			<line fill="none" stroke="#FFF200" stroke-width="0.5" stroke-miterlimit="10" stroke-dasharray="0.7284,0.7284" x1="11.154" y1="6.528" x2="29.757" y2="17.283"/>
		<line fill="none" stroke="#FFF200" stroke-width="0.5" stroke-miterlimit="10" x1="30.074" y1="17.465" x2="30.398" y2="17.652"/>
	</g>
</g>
<polygon fill="#D1D3D4" stroke="#D1D3D4" stroke-width="0.25" stroke-miterlimit="10" points="26.862,12.035 34.144,7.861 
	27.232,3.893 20.187,8.182 "/>
<g>
	<line fill="none" x1="22.949" y1="9.562" x2="43.148" y2="-2.114"/>
	<g>
		<path fill="none" stroke="#FFF200" stroke-width="0.5" stroke-miterlimit="10" d="M43.148-2.114"/>
		
			<line fill="none" stroke="#FFF200" stroke-width="0.5" stroke-miterlimit="10" stroke-dasharray="0.7284,0.7284" x1="24.589" y1="9.693" x2="30.857" y2="5.893"/>
	</g>
</g>
<path fill="#808285" stroke="#000000" stroke-miterlimit="10" d="M13.327,3.683"/>
</svg>
