<?xml version="1.0" encoding="utf-8"?>
<!-- Generator: Adobe Illustrator 16.0.4, SVG Export Plug-In . SVG Version: 6.00 Build 0)  -->
<!DOCTYPE svg PUBLIC "-//W3C//DTD SVG 1.1//EN" "http://www.w3.org/Graphics/SVG/1.1/DTD/svg11.dtd">
<svg version="1.1" id="Layer_1" xmlns="http://www.w3.org/2000/svg" xmlns:xlink="http://www.w3.org/1999/xlink" x="0px" y="0px"
	 width="81.935px" height="203.455px" viewBox="-2.844 -10.742 81.935 203.455"
	 enable-background="new -2.844 -10.742 81.935 203.455" xml:space="preserve">
<g>
	<polygon fill="#E6E7E8" points="35.237,30.66 29.212,28.079 25.629,30.19 30.514,33.24 	"/>
	<polygon fill="#929497" points="31.817,34.105 25.629,30.088 24.652,96.825 30.026,101.513 35.237,36.114 	"/>
	<polygon fill="#929497" points="37.983,192.712 79.091,168.98 37.983,145.64 -2.844,169.166 	"/>
	<polygon fill="#58595B" points="38.047,189.138 71.887,168.964 37.149,149.767 3.881,168.964 	"/>
	<polygon fill="#929497" points="37.516,-10.312 38.982,-9.419 67.977,156.759 66.899,161.923 37.842,186.105 7.88,162.447 
		6.539,156.554 36.702,-9.643 	"/>
	<polygon fill="#BBBDBF" points="37.516,-9.195 38.42,174.24 68.454,157.554 38.982,-9.419 37.516,-10.312 	"/>
	<polygon fill="#A6A8AB" points="68.355,157.22 38.59,174.289 38.101,186.166 67.016,168.535 	"/>
	<polygon fill="#404041" points="29.521,35.989 36.513,39.962 36.672,44.57 28.726,39.326 	"/>
	<polygon fill="#404041" points="36.513,64.434 25.389,57.601 26.322,52.67 36.672,58.555 	"/>
	<polygon fill="#404041" points="36.513,54.104 26.978,48.384 27.91,43.454 36.354,48.226 	"/>
	<polygon fill="#404041" points="36.661,75.677 23.483,68.089 24.367,62.295 36.513,69.042 	"/>
	<polygon fill="#404041" points="36.539,86.056 21.893,77.623 22.847,72.062 36.513,79.53 	"/>
	<polygon fill="#404041" points="36.661,96.937 20.304,86.681 21.258,81.596 36.672,90.654 	"/>
	<polygon fill="#404041" points="36.661,107.818 18.397,96.852 19.351,91.767 36.831,101.937 	"/>
	<polygon fill="#404041" points="36.661,119.369 16.808,107.498 17.762,102.096 36.831,113.218 	"/>
	<polygon fill="#404041" points="36.661,130.417 15.06,118.146 16.014,112.742 36.831,124.343 	"/>
	<polygon fill="#404041" points="36.661,142.134 13.312,128.316 14.425,122.119 36.637,135.078 	"/>
	<polygon fill="#404041" points="36.661,153.517 11.246,138.644 12.359,132.128 36.672,146.75 	"/>
	<polygon fill="#404041" points="36.513,164.546 9.34,149.291 10.452,143.093 36.672,158.031 	"/>
	<polygon fill="#58595B" points="44.384,37.285 39.327,40.231 39.104,44.54 47.287,39.267 	"/>
	<polyline fill="#58595B" points="39.214,48.226 47.983,43.615 48.838,47.801 39.19,54.107 	"/>
	<polygon fill="#58595B" points="39.373,64.752 50.78,57.883 49.984,53.49 39.373,58.865 	"/>
	<polygon fill="#58595B" points="39.336,75.931 51.768,68.089 51.63,62.549 39.532,69.042 	"/>
	<polygon fill="#58595B" points="39.348,97.438 54.946,87.158 53.993,82.708 39.373,90.972 	"/>
	<polygon fill="#58595B" points="39.348,86.315 53.357,78.577 52.403,73.174 39.532,79.53 	"/>
	<polygon fill="#58595B" points="39.348,108.32 56.536,97.964 55.741,93.037 39.373,102.096 	"/>
	<polygon fill="#58595B" points="40.009,119.257 58.442,109.087 57.462,103.353 40.009,113.218 	"/>
	<polygon fill="#58595B" points="39.891,130.197 60.032,118.623 59.395,113.537 40.009,124.66 	"/>
	<polygon fill="#58595B" points="39.984,142.001 61.938,128.792 60.985,123.388 40.054,135.242 	"/>
	<polygon fill="#58595B" points="40.054,153.138 63.645,138.658 62.891,132.923 40.217,146.792 	"/>
	<polygon fill="#58595B" points="40.009,164.388 65.753,149.451 64.799,143.73 40.009,158.349 	"/>
	<polygon fill="#929497" points="45.495,36.337 52.661,38.347 52.661,99.057 47.287,103.744 42.076,38.347 	"/>
	<polygon fill="#BBBDBF" points="52.661,38.43 47.775,41.471 47.221,104.093 52.833,100.43 	"/>
	<polygon fill="#E6E7E8" points="52.721,38.373 45.495,36.337 42.28,38.263 47.837,41.694 	"/>
	<polygon fill="#6D6E70" points="38.42,174.24 6.539,157.205 8.545,168.519 38.102,186.318 	"/>
	<polyline fill="#6D6E70" points="28.784,33.073 25.65,50.762 26.219,31.566 	"/>
	<polygon fill="#E6E7E8" points="38.989,-9.541 37.552,-8.228 36.593,-9.541 37.826,-10.742 	"/>
</g>
</svg>
