<?xml version="1.0" encoding="utf-8"?>
<!-- Generator: Adobe Illustrator 17.0.0, SVG Export Plug-In . SVG Version: 6.00 Build 0)  -->
<!DOCTYPE svg PUBLIC "-//W3C//DTD SVG 1.1//EN" "http://www.w3.org/Graphics/SVG/1.1/DTD/svg11.dtd">
<svg version="1.1" id="Layer_1" xmlns="http://www.w3.org/2000/svg" xmlns:xlink="http://www.w3.org/1999/xlink" x="0px" y="0px"
	 width="24.269px" height="94.646px" viewBox="0 0 24.269 94.646" enable-background="new 0 0 24.269 94.646" xml:space="preserve">
<g>
	<polygon fill="#8DC63F" points="24.269,88.657 13.878,82.657 3.484,88.657 13.877,94.646 	"/>
	<path fill="#603913" d="M16.232,87.44c-2.975,2.495-4.009,0.715-4.666,0c4.009-64.983-0.587-79.582-0.587-79.582l2.334-1.197
		c0,0,2.148,59.756,2.919,78.02"/>
	<polygon fill="#39B54A" points="10.979,7.352 6.395,9.6 4.248,14.667 0.908,17.333 2.816,13.866 3.056,7.467 7.827,5.333 	"/>
	<polygon fill="#39B54A" points="13.313,6.261 10.908,1 7.575,0 7.169,3.797 4.864,5.768 2.575,4.667 0.768,8.231 0,12.667 
		2.305,7.739 4.352,8.231 4.864,10.695 8.449,7.739 	"/>
	<polygon fill="#39B54A" points="10.241,7.667 15.234,2.333 16.795,3.667 18.575,6.667 22.908,8.667 17.731,9 14.923,7 	"/>
	<polygon fill="#39B54A" points="10.941,6.508 13.164,0.102 14.835,0.938 18.672,2.437 22.678,2.82 17.313,5.725 14.435,4.6 	"/>
</g>
</svg>
