<?xml version="1.0" encoding="utf-8"?>
<!-- Generator: Adobe Illustrator 17.0.0, SVG Export Plug-In . SVG Version: 6.00 Build 0)  -->
<!DOCTYPE svg PUBLIC "-//W3C//DTD SVG 1.1//EN" "http://www.w3.org/Graphics/SVG/1.1/DTD/svg11.dtd">
<svg version="1.1" id="Layer_1" xmlns="http://www.w3.org/2000/svg" xmlns:xlink="http://www.w3.org/1999/xlink" x="0px" y="0px"
	 width="103.221px" height="69.561px" viewBox="0 0 103.221 69.561" enable-background="new 0 0 103.221 69.561"
	 xml:space="preserve">
<g>
	<polygon fill="#B4D676" points="0,39.769 51.609,69.561 103.221,39.764 51.601,9.971 	"/>
	<g>
		<polygon fill="#8DC63F" points="49.294,11.323 51.574,10.007 53.853,11.323 51.574,12.636 		"/>
		<path fill="#603913" d="M50.995,11.383c0.731,0.535,1.024,0,1.024,0V8.2l-0.512-0.055C51.507,8.145,51.164,10.537,50.995,11.383z"
			/>
		<ellipse fill="#009444" cx="50.995" cy="8.04" rx="1.514" ry="1.221"/>
		<ellipse fill="#39B54A" cx="53.02" cy="7.569" rx="1.514" ry="1.221"/>
		<ellipse fill="#009444" cx="51.633" cy="6.907" rx="1.514" ry="1.221"/>
		<ellipse fill="#009444" cx="52.364" cy="8.32" rx="1.514" ry="1.221"/>
		<ellipse fill="#39B54A" cx="51.278" cy="7.694" rx="1.231" ry="0.992"/>
	</g>
	<g>
		<polygon fill="#8DC63F" points="59.637,17.302 61.917,15.986 64.196,17.302 61.917,18.616 		"/>
		<path fill="#603913" d="M61.338,17.363c0.731,0.535,1.024,0,1.024,0v-3.184l-0.512-0.055
			C61.849,14.124,61.507,16.516,61.338,17.363z"/>
		<ellipse fill="#009444" cx="61.338" cy="14.019" rx="1.514" ry="1.221"/>
		<ellipse fill="#39B54A" cx="63.363" cy="13.548" rx="1.514" ry="1.221"/>
		<ellipse fill="#009444" cx="61.976" cy="12.886" rx="1.514" ry="1.221"/>
		<ellipse fill="#009444" cx="62.707" cy="14.299" rx="1.514" ry="1.221"/>
		<ellipse fill="#39B54A" cx="61.621" cy="13.673" rx="1.231" ry="0.992"/>
	</g>
	<g>
		<polygon fill="#8DC63F" points="72.501,24.854 74.78,23.538 77.059,24.854 74.78,26.168 		"/>
		<path fill="#603913" d="M74.201,24.915c0.731,0.535,1.024,0,1.024,0v-3.184l-0.512-0.055
			C74.713,21.676,74.37,24.068,74.201,24.915z"/>
		<ellipse fill="#009444" cx="74.201" cy="21.572" rx="1.514" ry="1.221"/>
		<ellipse fill="#39B54A" cx="76.227" cy="21.101" rx="1.514" ry="1.221"/>
		<ellipse fill="#009444" cx="74.839" cy="20.439" rx="1.514" ry="1.221"/>
		<ellipse fill="#009444" cx="75.57" cy="21.851" rx="1.514" ry="1.221"/>
		<ellipse fill="#39B54A" cx="74.484" cy="21.226" rx="1.231" ry="0.992"/>
	</g>
	<g>
		<polygon fill="#8DC63F" points="66.017,20.971 68.297,19.655 70.576,20.971 68.297,22.285 		"/>
		<path fill="#603913" d="M67.717,21.032c0.731,0.535,1.024,0,1.024,0v-3.184l-0.512-0.055
			C68.229,17.793,67.887,20.185,67.717,21.032z"/>
		<ellipse fill="#009444" cx="67.717" cy="17.689" rx="1.514" ry="1.221"/>
		<ellipse fill="#39B54A" cx="69.743" cy="17.218" rx="1.514" ry="1.221"/>
		<ellipse fill="#009444" cx="68.356" cy="16.556" rx="1.514" ry="1.221"/>
		<ellipse fill="#009444" cx="69.086" cy="17.968" rx="1.514" ry="1.221"/>
		<ellipse fill="#39B54A" cx="68" cy="17.342" rx="1.231" ry="0.992"/>
	</g>
	<g>
		<polygon fill="#8DC63F" points="54.533,13.99 55.643,13.349 56.752,13.99 55.643,14.629 		"/>
		<path fill="#603913" d="M55.361,14.019c0.356,0.26,0.498,0,0.498,0V12.47l-0.249-0.027C55.61,12.443,55.443,13.607,55.361,14.019z
			"/>
		<ellipse fill="#009444" cx="55.361" cy="12.392" rx="0.737" ry="0.594"/>
		<ellipse fill="#39B54A" cx="56.347" cy="12.163" rx="0.737" ry="0.594"/>
		<ellipse fill="#009444" cx="55.671" cy="11.841" rx="0.737" ry="0.594"/>
		<ellipse fill="#009444" cx="56.027" cy="12.528" rx="0.737" ry="0.594"/>
		<ellipse fill="#39B54A" cx="55.499" cy="12.224" rx="0.599" ry="0.483"/>
	</g>
	<g>
		<polygon fill="#8DC63F" points="46.05,14.3 47.159,13.66 48.268,14.3 47.159,14.939 		"/>
		<path fill="#603913" d="M46.877,14.33c0.356,0.26,0.498,0,0.498,0V12.78l-0.249-0.027C47.126,12.753,46.96,13.918,46.877,14.33z"
			/>
		<ellipse fill="#009444" cx="46.877" cy="12.703" rx="0.737" ry="0.594"/>
		<ellipse fill="#39B54A" cx="47.863" cy="12.473" rx="0.737" ry="0.594"/>
		<ellipse fill="#009444" cx="47.188" cy="12.151" rx="0.737" ry="0.594"/>
		<ellipse fill="#009444" cx="47.544" cy="12.839" rx="0.737" ry="0.594"/>
		<ellipse fill="#39B54A" cx="47.015" cy="12.534" rx="0.599" ry="0.483"/>
	</g>
	<g>
		<polygon fill="#8DC63F" points="78.984,28.579 81.263,27.263 83.543,28.579 81.263,29.893 		"/>
		<path fill="#603913" d="M80.684,28.64c0.731,0.535,1.024,0,1.024,0v-3.184l-0.512-0.055C81.196,25.401,80.853,27.793,80.684,28.64
			z"/>
		<ellipse fill="#009444" cx="80.684" cy="25.296" rx="1.514" ry="1.221"/>
		<ellipse fill="#39B54A" cx="82.71" cy="24.825" rx="1.514" ry="1.221"/>
		<ellipse fill="#009444" cx="81.322" cy="24.163" rx="1.514" ry="1.221"/>
		<ellipse fill="#009444" cx="82.053" cy="25.576" rx="1.514" ry="1.221"/>
		<ellipse fill="#39B54A" cx="80.967" cy="24.95" rx="1.231" ry="0.992"/>
	</g>
	<g>
		<polygon fill="#8DC63F" points="42.944,17.509 40.664,16.193 38.385,17.509 40.664,18.822 		"/>
		<path fill="#603913" d="M41.244,17.569c-0.731,0.535-1.024,0-1.024,0v-3.184l0.512-0.055
			C40.732,14.33,41.074,16.722,41.244,17.569z"/>
		<ellipse fill="#009444" cx="41.243" cy="14.226" rx="1.514" ry="1.221"/>
		<ellipse fill="#39B54A" cx="39.218" cy="13.755" rx="1.514" ry="1.221"/>
		<ellipse fill="#009444" cx="40.605" cy="13.093" rx="1.514" ry="1.221"/>
		<ellipse fill="#009444" cx="39.874" cy="14.506" rx="1.514" ry="1.221"/>
		<ellipse fill="#39B54A" cx="40.96" cy="13.88" rx="1.231" ry="0.992"/>
	</g>
	<g>
		<polygon fill="#8DC63F" points="30.081,25.061 27.801,23.745 25.522,25.061 27.801,26.375 		"/>
		<path fill="#603913" d="M28.381,25.122c-0.731,0.535-1.024,0-1.024,0v-3.184l0.512-0.055
			C27.869,21.883,28.211,24.275,28.381,25.122z"/>
		<ellipse fill="#009444" cx="28.38" cy="21.779" rx="1.514" ry="1.221"/>
		<ellipse fill="#39B54A" cx="26.355" cy="21.308" rx="1.514" ry="1.221"/>
		<ellipse fill="#009444" cx="27.742" cy="20.646" rx="1.514" ry="1.221"/>
		<ellipse fill="#009444" cx="27.011" cy="22.058" rx="1.514" ry="1.221"/>
		<ellipse fill="#39B54A" cx="28.097" cy="21.432" rx="1.231" ry="0.992"/>
	</g>
	<g>
		<polygon fill="#8DC63F" points="36.564,21.178 34.285,19.862 32.005,21.178 34.285,22.492 		"/>
		<path fill="#603913" d="M34.864,21.239c-0.731,0.535-1.024,0-1.024,0v-3.184L34.352,18C34.352,18,34.695,20.392,34.864,21.239z"/>
		<ellipse fill="#009444" cx="34.864" cy="17.895" rx="1.514" ry="1.221"/>
		<ellipse fill="#39B54A" cx="32.838" cy="17.424" rx="1.514" ry="1.221"/>
		<ellipse fill="#009444" cx="34.226" cy="16.762" rx="1.514" ry="1.221"/>
		<ellipse fill="#009444" cx="33.495" cy="18.175" rx="1.514" ry="1.221"/>
		<ellipse fill="#39B54A" cx="34.581" cy="17.549" rx="1.231" ry="0.992"/>
	</g>
	<g>
		<polygon fill="#8DC63F" points="23.598,28.786 21.318,27.47 19.039,28.786 21.318,30.099 		"/>
		<path fill="#603913" d="M21.897,28.846c-0.731,0.535-1.024,0-1.024,0v-3.184l0.512-0.055
			C21.386,25.607,21.728,27.999,21.897,28.846z"/>
		<ellipse fill="#009444" cx="21.897" cy="25.503" rx="1.514" ry="1.221"/>
		<ellipse fill="#39B54A" cx="19.872" cy="25.032" rx="1.514" ry="1.221"/>
		<ellipse fill="#009444" cx="21.259" cy="24.37" rx="1.514" ry="1.221"/>
		<ellipse fill="#009444" cx="20.528" cy="25.783" rx="1.514" ry="1.221"/>
		<ellipse fill="#39B54A" cx="21.614" cy="25.157" rx="1.231" ry="0.992"/>
	</g>
	<g>
		<polygon fill="#8DC63F" points="87.951,31.461 86.421,30.578 84.891,31.461 86.421,32.343 		"/>
		<path fill="#603913" d="M86.768,31.282c-0.438,0.367-0.59,0.105-0.687,0c0.59-9.565-0.086-11.713-0.086-11.713l0.343-0.176
			c0,0,0.316,8.795,0.43,11.484"/>
		<polygon fill="#39B54A" points="85.995,19.494 85.32,19.824 85.004,20.57 84.512,20.963 84.793,20.453 84.828,19.51 
			85.531,19.196 		"/>
		<polygon fill="#39B54A" points="86.338,19.333 85.984,18.559 85.493,18.411 85.434,18.97 85.094,19.261 84.757,19.099 
			84.492,19.623 84.378,20.276 84.718,19.551 85.019,19.623 85.094,19.985 85.622,19.551 		"/>
		<polygon fill="#39B54A" points="85.886,19.54 86.621,18.755 86.85,18.951 87.112,19.393 87.75,19.687 86.988,19.736 
			86.575,19.442 		"/>
		<polygon fill="#39B54A" points="85.989,19.37 86.316,18.426 86.562,18.549 87.127,18.77 87.716,18.826 86.927,19.254 
			86.503,19.089 		"/>
	</g>
	<g>
		<polygon fill="#8DC63F" points="94.092,35.082 92.562,34.199 91.033,35.082 92.562,35.964 		"/>
		<path fill="#603913" d="M92.909,34.903c-0.438,0.367-0.59,0.105-0.687,0c0.59-9.565-0.086-11.713-0.086-11.713l0.343-0.176
			c0,0,0.316,8.795,0.43,11.484"/>
		<polygon fill="#39B54A" points="92.136,23.115 91.461,23.445 91.145,24.191 90.654,24.584 90.934,24.074 90.97,23.131 
			91.672,22.817 		"/>
		<polygon fill="#39B54A" points="92.479,22.954 92.125,22.179 91.635,22.032 91.575,22.591 91.236,22.881 90.899,22.72 
			90.633,23.244 90.52,23.897 90.859,23.172 91.161,23.244 91.236,23.606 91.763,23.172 		"/>
		<polygon fill="#39B54A" points="92.027,23.161 92.762,22.376 92.992,22.572 93.254,23.014 93.892,23.308 93.129,23.357 
			92.716,23.063 		"/>
		<polygon fill="#39B54A" points="92.13,22.991 92.458,22.047 92.703,22.17 93.268,22.391 93.858,22.447 93.068,22.875 
			92.645,22.71 		"/>
	</g>
	<g>
		<polygon fill="#8DC63F" points="17.741,31.875 16.211,30.992 14.682,31.875 16.211,32.757 		"/>
		<path fill="#603913" d="M16.558,31.696c-0.438,0.367-0.59,0.105-0.687,0c0.59-9.565-0.086-11.713-0.086-11.713l0.343-0.176
			c0,0,0.316,8.795,0.43,11.484"/>
		<polygon fill="#39B54A" points="15.785,19.908 15.11,20.238 14.794,20.984 14.302,21.377 14.583,20.867 14.619,19.924 
			15.321,19.61 		"/>
		<polygon fill="#39B54A" points="16.128,19.747 15.774,18.972 15.284,18.825 15.224,19.384 14.885,19.674 14.548,19.512 
			14.282,20.037 14.169,20.69 14.508,19.965 14.809,20.037 14.885,20.399 15.412,19.965 		"/>
		<polygon fill="#39B54A" points="15.676,19.954 16.411,19.169 16.641,19.365 16.903,19.806 17.541,20.101 16.778,20.15 
			16.365,19.856 		"/>
		<polygon fill="#39B54A" points="15.779,19.783 16.106,18.84 16.352,18.963 16.917,19.184 17.507,19.24 16.717,19.668 
			16.293,19.503 		"/>
	</g>
	<g>
		<polygon fill="#8DC63F" points="11.741,35.289 10.211,34.406 8.681,35.289 10.211,36.171 		"/>
		<path fill="#603913" d="M10.558,35.11c-0.438,0.367-0.59,0.105-0.687,0c0.59-9.565-0.086-11.713-0.086-11.713l0.343-0.176
			c0,0,0.316,8.795,0.43,11.484"/>
		<polygon fill="#39B54A" points="9.784,23.322 9.11,23.652 8.794,24.398 8.302,24.791 8.583,24.281 8.618,23.338 9.32,23.024 		"/>
		<polygon fill="#39B54A" points="10.128,23.161 9.774,22.386 9.283,22.239 9.223,22.798 8.884,23.088 8.547,22.927 8.281,23.451 
			8.168,24.104 8.507,23.379 8.809,23.451 8.884,23.813 9.412,23.379 		"/>
		<polygon fill="#39B54A" points="9.676,23.368 10.411,22.583 10.64,22.779 10.902,23.221 11.54,23.515 10.778,23.564 10.365,23.27 
					"/>
		<polygon fill="#39B54A" points="9.779,23.198 10.106,22.254 10.352,22.377 10.916,22.598 11.506,22.654 10.717,23.082 
			10.293,22.917 		"/>
	</g>
	<polygon fill="#818285" points="4.627,39.472 51.61,66.593 98.595,39.467 51.602,12.345 	"/>
	<polygon fill="#A8AAAD" points="9.789,40.24 51.745,64.58 93.832,40.121 93.709,38.458 51.738,14.6 9.788,38.458 	"/>
	<polygon fill="#D2D3D4" points="10,38.524 51.848,62.681 93.697,38.52 51.84,14.363 	"/>
	<polygon fill="#FFFFFF" points="14.3,36.085 55.49,60.42 56.915,59.707 15.25,35.61 	"/>
	<polygon fill="#FFFFFF" points="18.128,33.949 59.319,58.283 60.743,57.571 19.078,33.474 	"/>
	<polygon fill="#FFFFFF" points="21.867,31.723 63.058,56.058 64.482,55.345 22.817,31.248 	"/>
	<polygon fill="#FFFFFF" points="25.517,29.675 66.708,54.01 68.133,53.298 26.467,29.2 	"/>
	<polygon fill="#FFFFFF" points="29.435,27.361 70.626,51.695 72.05,50.983 30.384,26.886 	"/>
	<polygon fill="#FFFFFF" points="32.996,25.224 74.187,49.559 75.611,48.846 33.946,24.749 	"/>
	<polygon fill="#FFFFFF" points="36.824,22.909 78.015,47.244 79.439,46.531 37.774,22.434 	"/>
	<polygon fill="#FFFFFF" points="40.741,20.861 81.932,45.196 83.357,44.484 41.691,20.386 	"/>
	<polygon fill="#FFFFFF" points="44.391,18.725 85.582,43.059 87.007,42.347 45.341,18.25 	"/>
	<polygon fill="#FFFFFF" points="47.864,16.678 89.054,41.012 90.479,40.3 48.813,16.202 	"/>
	<polygon fill="#A8AAAD" points="23.713,33.44 60.309,54.848 81.137,42.696 44.613,21.556 	"/>
	<polygon fill="#D2D3D4" points="27.954,33.862 59.407,52.262 77.309,41.817 45.917,23.648 	"/>
	<g>
		<g>
			<polygon fill="#8C9299" points="44.327,58.368 44.264,58.331 44.264,58.328 44.25,58.323 42.465,57.292 41.534,57.829 
				41.534,58.905 40.6,59.443 40.599,60.52 39.668,61.058 39.67,62.134 41.532,63.21 44.264,61.634 44.264,58.404 			"/>
			<polygon fill="#AEAFB1" points="39.668,61.058 40.599,60.52 42.463,61.595 41.534,62.132 			"/>
			<polygon fill="#AEAFB1" points="40.6,59.444 41.531,58.907 43.395,59.983 42.465,60.52 			"/>
			<polygon fill="#AEAFB1" points="41.532,57.833 42.463,57.296 44.327,58.37 43.398,58.907 			"/>
		</g>
		<g>
			<polygon fill="#8C9299" points="46.035,59.393 45.973,59.356 45.973,59.353 45.958,59.348 44.174,58.317 43.242,58.854 
				43.242,59.929 42.308,60.468 42.307,61.545 41.377,62.083 41.378,63.159 43.24,64.234 45.973,62.658 45.973,59.429 			"/>
			<polygon fill="#AEAFB1" points="41.377,62.083 42.307,61.545 44.172,62.62 43.242,63.157 			"/>
			<polygon fill="#AEAFB1" points="42.308,60.469 43.239,59.932 45.104,61.008 44.174,61.545 			"/>
			<polygon fill="#AEAFB1" points="43.24,58.858 44.171,58.321 46.035,59.395 45.106,59.932 			"/>
		</g>
		<g>
			<polygon fill="#8C9299" points="47.856,60.417 47.793,60.38 47.793,60.377 47.779,60.372 45.995,59.34 45.063,59.877 
				45.063,60.953 44.129,61.492 44.128,62.569 43.198,63.106 43.199,64.182 45.061,65.258 47.793,63.682 47.793,60.452 			"/>
			<polygon fill="#AEAFB1" points="43.198,63.106 44.128,62.569 45.993,63.643 45.063,64.181 			"/>
			<polygon fill="#AEAFB1" points="44.129,61.492 45.06,60.956 46.925,62.032 45.995,62.569 			"/>
			<polygon fill="#AEAFB1" points="45.061,59.881 45.992,59.344 47.856,60.418 46.927,60.956 			"/>
		</g>
	</g>
	<g>
		<g>
			<polygon fill="#8C9299" points="14.48,41.4 14.418,41.363 14.418,41.36 14.404,41.355 12.619,40.324 11.687,40.862 
				11.687,41.937 10.753,42.475 10.753,43.552 9.822,44.09 9.824,45.166 11.685,46.242 14.418,44.666 14.418,41.436 			"/>
			<polygon fill="#AEAFB1" points="9.822,44.09 10.753,43.552 12.617,44.627 11.687,45.164 			"/>
			<polygon fill="#AEAFB1" points="10.753,42.476 11.684,41.939 13.549,43.015 12.619,43.552 			"/>
			<polygon fill="#AEAFB1" points="11.685,40.865 12.616,40.328 14.48,41.402 13.551,41.939 			"/>
		</g>
		<g>
			<polygon fill="#8C9299" points="16.189,42.425 16.126,42.388 16.126,42.385 16.112,42.38 14.327,41.349 13.396,41.886 
				13.396,42.961 12.461,43.5 12.461,44.577 11.53,45.115 11.532,46.191 13.394,47.267 16.126,45.69 16.126,42.461 			"/>
			<polygon fill="#AEAFB1" points="11.53,45.115 12.461,44.577 14.325,45.652 13.396,46.189 			"/>
			<polygon fill="#AEAFB1" points="12.461,43.501 13.392,42.964 15.257,44.04 14.327,44.577 			"/>
			<polygon fill="#AEAFB1" points="13.394,41.89 14.325,41.353 16.189,42.427 15.259,42.964 			"/>
		</g>
		<g>
			<polygon fill="#8C9299" points="18.01,43.449 17.947,43.412 17.947,43.409 17.933,43.404 16.148,42.372 15.217,42.909 
				15.217,43.985 14.282,44.524 14.282,45.601 13.351,46.138 13.353,47.214 15.214,48.29 17.947,46.714 17.947,43.484 			"/>
			<polygon fill="#AEAFB1" points="13.351,46.138 14.282,45.601 16.146,46.676 15.217,47.213 			"/>
			<polygon fill="#AEAFB1" points="14.282,44.524 15.213,43.988 17.078,45.064 16.148,45.601 			"/>
			<polygon fill="#AEAFB1" points="15.214,42.914 16.145,42.376 18.01,43.45 17.08,43.988 			"/>
		</g>
	</g>
	<g>
		<g>
			<polygon fill="#8C9299" points="59.129,58.575 59.192,58.538 59.192,58.535 59.206,58.53 60.991,57.499 61.923,58.036 
				61.923,59.112 62.857,59.651 62.857,60.727 63.788,61.264 63.786,62.341 61.925,63.417 59.192,61.841 59.192,58.61 			"/>
			<polygon fill="#AEAFB1" points="63.788,61.264 62.857,60.727 60.993,61.802 61.923,62.34 			"/>
			<polygon fill="#AEAFB1" points="62.857,59.651 61.926,59.114 60.061,60.19 60.991,60.727 			"/>
			<polygon fill="#AEAFB1" points="61.925,58.04 60.994,57.502 59.129,58.576 60.059,59.114 			"/>
		</g>
		<g>
			<polygon fill="#8C9299" points="57.421,59.6 57.484,59.563 57.484,59.56 57.498,59.555 59.283,58.523 60.214,59.061 
				60.214,60.137 61.148,60.675 61.149,61.752 62.08,62.289 62.078,63.365 60.216,64.442 57.484,62.866 57.484,59.636 			"/>
			<polygon fill="#AEAFB1" points="62.08,62.289 61.149,61.752 59.285,62.827 60.214,63.364 			"/>
			<polygon fill="#AEAFB1" points="61.148,60.676 60.218,60.139 58.353,61.214 59.283,61.752 			"/>
			<polygon fill="#AEAFB1" points="60.216,59.065 59.285,58.527 57.421,59.601 58.351,60.139 			"/>
		</g>
		<g>
			<polygon fill="#8C9299" points="55.6,60.623 55.663,60.586 55.663,60.583 55.677,60.578 57.462,59.547 58.393,60.085 
				58.393,61.16 59.327,61.698 59.328,62.775 60.259,63.313 60.257,64.388 58.395,65.465 55.663,63.889 55.663,60.659 			"/>
			<polygon fill="#AEAFB1" points="60.259,63.313 59.328,62.775 57.464,63.85 58.393,64.387 			"/>
			<polygon fill="#AEAFB1" points="59.327,61.699 58.397,61.162 56.532,62.238 57.462,62.775 			"/>
			<polygon fill="#AEAFB1" points="58.395,60.088 57.465,59.551 55.6,60.625 56.53,61.162 			"/>
		</g>
	</g>
	<g>
		<g>
			<polygon fill="#8C9299" points="88.925,41.297 88.987,41.261 88.987,41.257 89.002,41.253 90.787,40.221 91.718,40.759 
				91.718,41.834 92.652,42.373 92.653,43.45 93.584,43.988 93.582,45.064 91.72,46.14 88.987,44.564 88.987,41.334 			"/>
			<polygon fill="#AEAFB1" points="93.584,43.988 92.653,43.45 90.788,44.525 91.718,45.062 			"/>
			<polygon fill="#AEAFB1" points="92.652,42.374 91.721,41.837 89.856,42.912 90.787,43.45 			"/>
			<polygon fill="#AEAFB1" points="91.72,40.763 90.789,40.226 88.925,41.3 89.854,41.837 			"/>
		</g>
		<g>
			<polygon fill="#8C9299" points="87.217,42.322 87.279,42.286 87.279,42.282 87.293,42.278 89.078,41.246 90.01,41.784 
				90.01,42.859 90.944,43.398 90.945,44.475 91.875,45.012 91.874,46.089 90.012,47.164 87.279,45.588 87.279,42.358 			"/>
			<polygon fill="#AEAFB1" points="91.875,45.012 90.945,44.475 89.08,45.549 90.01,46.087 			"/>
			<polygon fill="#AEAFB1" points="90.944,43.398 90.013,42.862 88.148,43.937 89.078,44.475 			"/>
			<polygon fill="#AEAFB1" points="90.012,41.788 89.081,41.25 87.217,42.324 88.146,42.862 			"/>
		</g>
		<g>
			<polygon fill="#8C9299" points="85.396,43.346 85.459,43.309 85.459,43.306 85.472,43.301 87.257,42.27 88.189,42.807 
				88.189,43.883 89.123,44.422 89.124,45.498 90.054,46.035 90.053,47.112 88.191,48.188 85.459,46.612 85.459,43.382 			"/>
			<polygon fill="#AEAFB1" points="90.054,46.035 89.124,45.498 87.259,46.573 88.189,47.111 			"/>
			<polygon fill="#AEAFB1" points="89.123,44.422 88.192,43.885 86.327,44.961 87.257,45.498 			"/>
			<polygon fill="#AEAFB1" points="88.191,42.811 87.26,42.273 85.396,43.348 86.325,43.885 			"/>
		</g>
	</g>
	<g>
		<polygon fill="#8DC63F" points="98.84,42.085 96.561,40.769 94.281,42.085 96.561,43.399 		"/>
		<path fill="#603913" d="M97.14,42.146c-0.731,0.535-1.024,0-1.024,0v-3.184l0.512-0.055C96.628,38.907,96.971,41.299,97.14,42.146
			z"/>
		<ellipse fill="#009444" cx="97.14" cy="38.803" rx="1.514" ry="1.221"/>
		<ellipse fill="#39B54A" cx="95.114" cy="38.332" rx="1.514" ry="1.221"/>
		<ellipse fill="#009444" cx="96.502" cy="37.67" rx="1.514" ry="1.221"/>
		<ellipse fill="#009444" cx="95.771" cy="39.082" rx="1.514" ry="1.221"/>
		<ellipse fill="#39B54A" cx="96.857" cy="38.457" rx="1.231" ry="0.992"/>
	</g>
	<g>
		<polygon fill="#8DC63F" points="86.322,49.327 84.042,48.011 81.763,49.327 84.042,50.641 		"/>
		<path fill="#603913" d="M84.622,49.388c-0.731,0.535-1.024,0-1.024,0v-3.184l0.512-0.055
			C84.11,46.149,84.453,48.541,84.622,49.388z"/>
		<ellipse fill="#009444" cx="84.622" cy="46.045" rx="1.514" ry="1.221"/>
		<ellipse fill="#39B54A" cx="82.596" cy="45.574" rx="1.514" ry="1.221"/>
		<ellipse fill="#009444" cx="83.984" cy="44.912" rx="1.514" ry="1.221"/>
		<ellipse fill="#009444" cx="83.253" cy="46.324" rx="1.514" ry="1.221"/>
		<ellipse fill="#39B54A" cx="84.339" cy="45.699" rx="1.231" ry="0.992"/>
	</g>
	<g>
		<polygon fill="#8DC63F" points="75.666,55.535 73.386,54.219 71.107,55.535 73.386,56.848 		"/>
		<path fill="#603913" d="M73.966,55.596c-0.731,0.535-1.024,0-1.024,0v-3.184l0.512-0.055
			C73.454,52.357,73.797,54.749,73.966,55.596z"/>
		<ellipse fill="#009444" cx="73.966" cy="52.252" rx="1.514" ry="1.221"/>
		<ellipse fill="#39B54A" cx="71.94" cy="51.781" rx="1.514" ry="1.221"/>
		<ellipse fill="#009444" cx="73.328" cy="51.119" rx="1.514" ry="1.221"/>
		<ellipse fill="#009444" cx="72.597" cy="52.532" rx="1.514" ry="1.221"/>
		<ellipse fill="#39B54A" cx="73.683" cy="51.906" rx="1.231" ry="0.992"/>
	</g>
	<g>
		<polygon fill="#8DC63F" points="81.178,52.376 78.898,51.06 76.619,52.376 78.898,53.689 		"/>
		<path fill="#603913" d="M79.478,52.436c-0.731,0.535-1.024,0-1.024,0v-3.184l0.512-0.055
			C78.966,49.197,79.308,51.589,79.478,52.436z"/>
		<ellipse fill="#009444" cx="79.477" cy="49.093" rx="1.514" ry="1.221"/>
		<ellipse fill="#39B54A" cx="77.452" cy="48.622" rx="1.514" ry="1.221"/>
		<ellipse fill="#009444" cx="78.839" cy="47.96" rx="1.514" ry="1.221"/>
		<ellipse fill="#009444" cx="78.108" cy="49.373" rx="1.514" ry="1.221"/>
		<ellipse fill="#39B54A" cx="79.194" cy="48.747" rx="1.231" ry="0.992"/>
	</g>
	<g>
		<polygon fill="#8DC63F" points="69.665,58.845 67.386,57.529 65.106,58.845 67.386,60.159 		"/>
		<path fill="#603913" d="M67.965,58.906c-0.731,0.535-1.024,0-1.024,0v-3.184l0.512-0.055
			C67.453,55.667,67.796,58.059,67.965,58.906z"/>
		<ellipse fill="#009444" cx="67.965" cy="55.563" rx="1.514" ry="1.221"/>
		<ellipse fill="#39B54A" cx="65.939" cy="55.092" rx="1.514" ry="1.221"/>
		<ellipse fill="#009444" cx="67.327" cy="54.43" rx="1.514" ry="1.221"/>
		<ellipse fill="#009444" cx="66.596" cy="55.842" rx="1.514" ry="1.221"/>
		<ellipse fill="#39B54A" cx="67.682" cy="55.217" rx="1.231" ry="0.992"/>
	</g>
	<g>
		<polygon fill="#8DC63F" points="17.483,49.808 19.762,48.492 22.041,49.808 19.762,51.121 		"/>
		<path fill="#603913" d="M19.183,49.868c0.731,0.535,1.024,0,1.024,0v-3.184l-0.512-0.055
			C19.695,46.629,19.352,49.021,19.183,49.868z"/>
		<ellipse fill="#009444" cx="19.183" cy="46.525" rx="1.514" ry="1.221"/>
		<ellipse fill="#39B54A" cx="21.209" cy="46.054" rx="1.514" ry="1.221"/>
		<ellipse fill="#009444" cx="19.821" cy="45.392" rx="1.514" ry="1.221"/>
		<ellipse fill="#009444" cx="20.552" cy="46.805" rx="1.514" ry="1.221"/>
		<ellipse fill="#39B54A" cx="19.466" cy="46.179" rx="1.231" ry="0.992"/>
	</g>
	<g>
		<polygon fill="#8DC63F" points="27.518,55.602 29.797,54.286 32.077,55.602 29.797,56.915 		"/>
		<path fill="#603913" d="M29.218,55.662c0.731,0.535,1.024,0,1.024,0v-3.184l-0.512-0.055
			C29.73,52.423,29.387,54.815,29.218,55.662z"/>
		<ellipse fill="#009444" cx="29.218" cy="52.319" rx="1.514" ry="1.221"/>
		<ellipse fill="#39B54A" cx="31.244" cy="51.848" rx="1.514" ry="1.221"/>
		<ellipse fill="#009444" cx="29.856" cy="51.186" rx="1.514" ry="1.221"/>
		<ellipse fill="#009444" cx="30.587" cy="52.599" rx="1.514" ry="1.221"/>
		<ellipse fill="#39B54A" cx="29.501" cy="51.973" rx="1.231" ry="0.992"/>
	</g>
	<g>
		<polygon fill="#8DC63F" points="22.213,52.545 24.493,51.229 26.772,52.545 24.493,53.859 		"/>
		<path fill="#603913" d="M23.913,52.606c0.731,0.535,1.024,0,1.024,0v-3.184l-0.512-0.055
			C24.425,49.367,24.083,51.759,23.913,52.606z"/>
		<ellipse fill="#009444" cx="23.913" cy="49.263" rx="1.514" ry="1.221"/>
		<ellipse fill="#39B54A" cx="25.939" cy="48.792" rx="1.514" ry="1.221"/>
		<ellipse fill="#009444" cx="24.552" cy="48.13" rx="1.514" ry="1.221"/>
		<ellipse fill="#009444" cx="25.282" cy="49.542" rx="1.514" ry="1.221"/>
		<ellipse fill="#39B54A" cx="24.196" cy="48.917" rx="1.231" ry="0.992"/>
	</g>
	<g>
		<polygon fill="#8DC63F" points="33.208,58.912 35.488,57.596 37.767,58.912 35.488,60.226 		"/>
		<path fill="#603913" d="M34.908,58.973c0.731,0.535,1.024,0,1.024,0v-3.184l-0.512-0.055
			C35.42,55.734,35.078,58.126,34.908,58.973z"/>
		<ellipse fill="#009444" cx="34.908" cy="55.63" rx="1.514" ry="1.221"/>
		<ellipse fill="#39B54A" cx="36.934" cy="55.159" rx="1.514" ry="1.221"/>
		<ellipse fill="#009444" cx="35.547" cy="54.497" rx="1.514" ry="1.221"/>
		<ellipse fill="#009444" cx="36.278" cy="55.909" rx="1.514" ry="1.221"/>
		<ellipse fill="#39B54A" cx="35.192" cy="55.283" rx="1.231" ry="0.992"/>
	</g>
	<g>
		<polygon fill="#8DC63F" points="53.837,67.846 51.557,66.53 49.278,67.846 51.557,69.16 		"/>
		<path fill="#603913" d="M52.136,67.907c-0.731,0.535-1.024,0-1.024,0v-3.184l0.512-0.055
			C51.625,64.668,51.967,67.06,52.136,67.907z"/>
		<ellipse fill="#009444" cx="52.136" cy="64.564" rx="1.514" ry="1.221"/>
		<ellipse fill="#39B54A" cx="50.111" cy="64.093" rx="1.514" ry="1.221"/>
		<ellipse fill="#009444" cx="51.498" cy="63.431" rx="1.514" ry="1.221"/>
		<ellipse fill="#009444" cx="50.767" cy="64.843" rx="1.514" ry="1.221"/>
		<ellipse fill="#39B54A" cx="51.853" cy="64.218" rx="1.231" ry="0.992"/>
	</g>
	<polygon fill="#BCBEC0" points="31.099,32.691 61.752,50.849 62.812,50.318 31.806,32.336 	"/>
	<polygon fill="#BCBEC0" points="34.824,30.518 65.477,48.676 66.537,48.145 35.531,30.163 	"/>
	<polygon fill="#BCBEC0" points="39.066,28.24 69.619,46.297 70.675,45.769 39.77,27.887 	"/>
	<polygon fill="#BCBEC0" points="42.376,26.173 72.929,44.331 73.986,43.8 43.081,25.818 	"/>
	<g>
		<path fill="#9EA6AF" d="M60.479,38.493v-3.058h-1.083L58.816,8.287h0.681V7.573h0.244V6.723h-0.959h-1.249h-1.03v0.849h0.314
			v0.714H57.5l-0.581,27.148h-1.083v3.058h-0.783c0,0-0.095,0.44,0,1.942c1.854,2.02,6.139,0.908,6.139,0
			c0-0.907-0.113-1.812-0.113-1.812L60.479,38.493z"/>
		<polygon fill="#9EA6AF" points="57.269,4.152 56.914,5.582 58.253,5.492 57.537,7.055 58.253,7.055 58.854,5.695 60.171,6.296 
			60.171,6.073 58.854,5.314 58.653,4.197 58.455,3.616 58.854,3.081 60.171,4.197 60.171,4.019 59.01,2.768 59.01,2.01 
			58.253,1.608 57.805,1.652 57.507,0.461 57.179,0 57.566,2.128 57.537,3.438 		"/>
		<path fill="#677173" d="M58.872,8.315L58.36,8.086l0.098,27.438l1.345,0.31l0.005,3.173h0.714c0,0,0.005,0.965-0.719,2.207
			c0.828-0.517,1.241-0.724,1.241-0.724l0.1-2.012l-0.715,0.124l0.149-3.284l-1.086-0.31L58.872,8.315z"/>
		<path fill="#677173" d="M58.757,5.224c-0.06,0.059-0.811-0.209-0.811-0.209l0.037-1.22l0.298-1.071l0.595,0.356
			c0,0-0.476,0.298-0.536,0.595C58.698,4.034,58.757,5.224,58.757,5.224z"/>
	</g>
	<g>
		<polygon fill="#8DC63F" points="55.527,65.637 56.636,64.996 57.746,65.637 56.636,66.276 		"/>
		<path fill="#603913" d="M56.354,65.666c0.356,0.26,0.498,0,0.498,0v-1.549l-0.249-0.027C56.604,64.09,56.437,65.254,56.354,65.666
			z"/>
		<ellipse fill="#009444" cx="56.355" cy="64.039" rx="0.737" ry="0.594"/>
		<ellipse fill="#39B54A" cx="57.34" cy="63.81" rx="0.737" ry="0.594"/>
		<ellipse fill="#009444" cx="56.665" cy="63.488" rx="0.737" ry="0.594"/>
		<ellipse fill="#009444" cx="57.021" cy="64.175" rx="0.737" ry="0.594"/>
		<ellipse fill="#39B54A" cx="56.492" cy="63.871" rx="0.599" ry="0.483"/>
	</g>
	<g>
		<polygon fill="#8DC63F" points="44.768,65.74 45.877,65.1 46.986,65.74 45.877,66.379 		"/>
		<path fill="#603913" d="M45.595,65.77c0.356,0.26,0.498,0,0.498,0V64.22l-0.249-0.027C45.844,64.193,45.677,65.357,45.595,65.77z"
			/>
		<ellipse fill="#009444" cx="45.595" cy="64.143" rx="0.737" ry="0.594"/>
		<ellipse fill="#39B54A" cx="46.581" cy="63.913" rx="0.737" ry="0.594"/>
		<ellipse fill="#009444" cx="45.906" cy="63.591" rx="0.737" ry="0.594"/>
		<ellipse fill="#009444" cx="46.261" cy="64.279" rx="0.737" ry="0.594"/>
		<ellipse fill="#39B54A" cx="45.733" cy="63.974" rx="0.599" ry="0.483"/>
	</g>
</g>
</svg>
