<?xml version="1.0" encoding="utf-8"?>
<!-- Generator: Adobe Illustrator 14.0.0, SVG Export Plug-In . SVG Version: 6.00 Build 43363)  -->
<!DOCTYPE svg PUBLIC "-//W3C//DTD SVG 1.1//EN" "http://www.w3.org/Graphics/SVG/1.1/DTD/svg11.dtd">
<svg version="1.1" id="Layer_1" xmlns="http://www.w3.org/2000/svg" xmlns:xlink="http://www.w3.org/1999/xlink" x="0px" y="0px"
	 width="2077.684px" height="1198.551px" viewBox="0 0 2077.684 1198.551" enable-background="new 0 0 2077.684 1198.551"
	 xml:space="preserve">
<polygon opacity="0.7" fill="none" stroke="#BE4E27" enable-background="new    " points="2077.684,599.831 1038.841,0 0,599.831 
	1038.67,1198.551 "/>
<polygon fill="#8DC63F" points="501.245,521.676 458.585,496.943 415.926,521.676 458.578,546.364 "/>
<polygon fill="#8DC63F" points="1567.428,574.135 942.231,224.725 317.035,574.135 942.127,922.897 "/>
<polygon fill="#8DC63F" points="593.045,625.11 503.464,577.237 413.886,625.11 503.45,672.895 "/>
<polygon fill="#8DC63F" points="637.045,667.11 547.464,619.237 457.886,667.11 547.45,714.895 "/>
<polygon fill="#8DC63F" points="737.045,685.11 647.464,637.237 557.886,685.11 647.45,732.895 "/>
<polygon fill="#8DC63F" points="785.045,745.11 695.464,697.237 605.886,745.11 695.45,792.895 "/>
<polygon fill="#8DC63F" points="979.018,861.505 861.359,800.62 743.704,861.505 861.34,922.277 "/>
<polygon fill="#8DC63F" points="1126.122,874.223 1008.464,813.338 890.809,874.223 1008.445,934.996 "/>
<polygon fill="#8DC63F" points="1662.002,617.316 1544.345,556.432 1426.688,617.316 1544.324,678.09 "/>
<polygon fill="#8DC63F" points="1625.226,558.814 1507.568,497.929 1389.912,558.814 1507.548,619.586 "/>
<polygon fill="#8DC63F" points="1559.555,551.183 1441.897,490.297 1324.241,551.183 1441.877,611.955 "/>
<polygon fill="#8DC63F" points="1501.764,640.209 1384.106,579.324 1266.45,640.209 1384.086,700.982 "/>
<polygon fill="#8DC63F" points="947.045,271.11 857.465,223.237 767.886,271.11 857.449,318.895 "/>
<polygon fill="#8DC63F" points="1168.151,256.123 1050.494,195.237 932.838,256.123 1050.475,316.895 "/>
<polygon fill="#8DC63F" points="1296.868,295.549 1179.211,234.663 1061.555,295.549 1179.19,356.322 "/>
<polygon fill="#8DC63F" points="1441.861,463.551 1382.044,429.967 1322.224,463.551 1382.032,497.07 "/>
<polygon fill="#8DC63F" points="1417.711,431.625 1350.583,393.627 1297.752,422.298 1366.925,460.875 "/>
<polygon fill="#8DC63F" points="1404.354,394.431 1344.535,360.849 1284.716,394.431 1344.524,427.95 "/>
<polygon fill="#8DC63F" points="1344.65,390.819 1284.832,357.237 1225.013,390.819 1284.822,424.339 "/>
<polygon fill="#8DC63F" points="1478.512,470.633 1418.692,437.051 1358.874,470.633 1418.684,504.154 "/>
<polygon fill="#8DC63F" points="1275.72,371.412 1215.901,337.83 1156.082,371.412 1215.891,404.934 "/>
<polygon fill="#8DC63F" points="1354.496,435.399 1294.678,401.817 1234.858,435.399 1294.668,468.918 "/>
<polygon fill="#8DC63F" points="1725.039,670.793 1099.843,321.382 474.647,670.793 1099.739,1019.555 "/>
<polygon fill="#8DC63F" points="1551.045,655.11 1461.465,607.237 1371.886,655.11 1461.449,702.895 "/>
<polygon fill="#8DC63F" points="1215.436,1014.122 1097.777,953.236 980.122,1014.122 1097.758,1074.895 "/>
<polygon fill="#8DC63F" points="1523.045,609.11 1433.465,561.237 1343.886,609.11 1433.449,656.895 "/>
<polygon fill="#8DC63F" points="1717.166,647.841 1599.509,586.955 1481.853,647.841 1599.488,708.612 "/>
<polygon fill="#8DC63F" points="1659.375,736.868 1541.718,675.981 1424.062,736.868 1541.697,797.64 "/>
<polygon fill="#8DC63F" points="1325.764,352.78 1208.106,291.895 1090.45,352.78 1208.086,413.553 "/>
<polygon fill="#8DC63F" points="1454.479,392.207 1336.822,331.321 1219.166,392.207 1336.802,452.979 "/>
<polygon fill="#8DC63F" points="1599.473,560.209 1539.655,526.625 1479.835,560.209 1539.644,593.728 "/>
<polygon fill="#8DC63F" points="1575.323,528.282 1508.194,490.285 1455.363,518.956 1524.537,557.533 "/>
<polygon fill="#8DC63F" points="1561.966,491.088 1502.146,457.506 1442.328,491.088 1502.137,524.608 "/>
<polygon fill="#8DC63F" points="1502.263,487.477 1442.443,453.895 1382.625,487.477 1442.435,520.997 "/>
<polygon fill="#8DC63F" points="1411.342,539.775 1365.798,513.371 1320.254,539.775 1365.791,566.132 "/>
<polygon fill="#8DC63F" points="1433.332,468.069 1373.513,434.487 1313.693,468.069 1373.502,501.591 "/>
<polygon fill="#8DC63F" points="1512.107,532.057 1452.289,498.475 1392.471,532.057 1452.28,565.576 "/>
</svg>
