<?xml version="1.0" encoding="utf-8"?>
<!-- Generator: Adobe Illustrator 14.0.0, SVG Export Plug-In . SVG Version: 6.00 Build 43363)  -->
<!DOCTYPE svg PUBLIC "-//W3C//DTD SVG 1.1//EN" "http://www.w3.org/Graphics/SVG/1.1/DTD/svg11.dtd">
<svg version="1.1" id="Layer_1" xmlns="http://www.w3.org/2000/svg" xmlns:xlink="http://www.w3.org/1999/xlink" x="0px" y="0px"
	 width="2077.684px" height="1198.551px" viewBox="0 0 2077.684 1198.551" enable-background="new 0 0 2077.684 1198.551"
	 xml:space="preserve">
<polygon opacity="0.7" fill="none" stroke="#BE4E27" enable-background="new    " points="2077.684,599.831 1038.841,0 0,599.831 
	1038.67,1198.551 "/>
<polygon fill="#8DC63F" points="501.245,521.676 458.585,496.943 415.926,521.676 458.578,546.364 "/>
<polygon fill="#8DC63F" points="593.045,625.11 503.464,577.237 413.886,625.11 503.45,672.895 "/>
<polygon fill="#8DC63F" points="637.045,667.11 547.464,619.237 457.886,667.11 547.45,714.895 "/>
<polygon fill="#8DC63F" points="737.045,685.11 647.464,637.237 557.886,685.11 647.45,732.895 "/>
<polygon fill="#8DC63F" points="785.045,745.11 695.464,697.237 605.886,745.11 695.45,792.895 "/>
<polygon fill="#8DC63F" points="899.94,810.958 701.357,708.196 502.778,810.958 701.325,913.529 "/>
<polygon fill="#8DC63F" points="1148.223,832.423 949.64,729.661 751.061,832.423 949.607,934.996 "/>
<polygon fill="#8DC63F" points="1662.002,617.316 1544.345,556.432 1426.688,617.316 1544.324,678.09 "/>
<polygon fill="#8DC63F" points="1625.226,558.814 1507.568,497.929 1389.912,558.814 1507.548,619.586 "/>
<polygon fill="#8DC63F" points="1559.555,551.183 1441.897,490.297 1324.241,551.183 1441.877,611.955 "/>
<polygon fill="#8DC63F" points="1501.764,640.209 1384.106,579.324 1266.45,640.209 1384.086,700.982 "/>
<polygon fill="#8DC63F" points="947.045,271.11 857.465,223.237 767.886,271.11 857.449,318.895 "/>
<polygon fill="#8DC63F" points="1168.151,256.123 1050.494,195.237 932.838,256.123 1050.475,316.895 "/>
<polygon fill="#8DC63F" points="1296.868,295.549 1179.211,234.663 1061.555,295.549 1179.19,356.322 "/>
<polygon fill="#8DC63F" points="1441.861,463.551 1382.044,429.967 1322.224,463.551 1382.032,497.07 "/>
<polygon fill="#8DC63F" points="1417.711,431.625 1350.583,393.627 1297.752,422.298 1366.925,460.875 "/>
<polygon fill="#8DC63F" points="1404.354,394.431 1344.535,360.849 1284.716,394.431 1344.524,427.95 "/>
<polygon fill="#8DC63F" points="1344.65,390.819 1284.832,357.237 1225.013,390.819 1284.822,424.339 "/>
<polygon fill="#8DC63F" points="1478.512,470.633 1418.692,437.051 1358.874,470.633 1418.684,504.154 "/>
<polygon fill="#8DC63F" points="1275.72,371.412 1215.901,337.83 1156.082,371.412 1215.891,404.934 "/>
<polygon fill="#8DC63F" points="1354.496,435.399 1294.678,401.817 1234.858,435.399 1294.668,468.918 "/>
<polygon fill="#8DC63F" points="1551.045,655.11 1461.465,607.237 1371.886,655.11 1461.449,702.895 "/>
<polygon fill="#8DC63F" points="1221.436,904.122 1103.777,843.236 986.122,904.122 1103.758,964.895 "/>
<polygon fill="#8DC63F" points="1523.045,609.11 1433.465,561.237 1343.886,609.11 1433.449,656.895 "/>
<polygon fill="#8DC63F" points="1717.166,647.841 1599.509,586.955 1481.853,647.841 1599.488,708.612 "/>
<polygon fill="#8DC63F" points="1203.2,356.153 1004.618,253.389 806.038,356.153 1004.584,458.723 "/>
<polygon fill="#8DC63F" points="1141.2,342.153 942.618,239.389 744.038,342.153 942.584,444.723 "/>
<polygon fill="#8DC63F" points="1061.2,470.153 862.618,367.389 664.038,470.153 862.584,572.723 "/>
<polygon fill="#8DC63F" points="843.2,548.153 644.618,445.389 446.038,548.153 644.584,650.723 "/>
<polygon fill="#8DC63F" points="829.2,602.153 630.618,499.389 432.038,602.153 630.584,704.723 "/>
<polygon fill="#8DC63F" points="1037.2,632.153 838.618,529.389 640.038,632.153 838.584,734.723 "/>
<polygon fill="#8DC63F" points="1009.2,716.153 810.618,613.389 612.038,716.153 810.584,818.723 "/>
<polygon fill="#8DC63F" points="1197.2,680.153 998.618,577.389 800.038,680.153 998.584,782.723 "/>
<polygon fill="#8DC63F" points="1189.2,570.153 990.618,467.389 792.038,570.153 990.584,672.723 "/>
<polygon fill="#8DC63F" points="1345.2,434.153 1146.618,331.389 948.038,434.153 1146.584,536.723 "/>
<polygon fill="#8DC63F" points="1309.2,488.153 1110.618,385.389 912.038,488.153 1110.584,590.723 "/>
<polygon fill="#8DC63F" points="1483.2,490.153 1284.618,387.389 1086.038,490.153 1284.584,592.723 "/>
<polygon fill="#8DC63F" points="1467.2,572.153 1268.618,469.389 1070.038,572.153 1268.584,674.723 "/>
<polygon fill="#8DC63F" points="1443.2,668.153 1244.618,565.389 1046.038,668.153 1244.584,770.723 "/>
<polygon fill="#8DC63F" points="1401.2,654.153 1202.618,551.389 1004.038,654.153 1202.584,756.723 "/>
<polygon fill="#8DC63F" points="1375.2,704.153 1176.618,601.389 978.038,704.153 1176.584,806.723 "/>
<polygon fill="#8DC63F" points="1475.2,740.153 1276.618,637.389 1078.038,740.153 1276.584,842.723 "/>
<polygon fill="#8DC63F" points="1463.2,774.153 1264.618,671.389 1066.038,774.153 1264.584,876.723 "/>
<polygon fill="#8DC63F" points="1669.2,524.153 1470.618,421.389 1272.038,524.153 1470.584,626.723 "/>
<polygon fill="#8DC63F" points="1325.764,352.78 1208.106,291.895 1090.45,352.78 1208.086,413.553 "/>
<polygon fill="#8DC63F" points="1454.479,392.207 1336.822,331.321 1219.166,392.207 1336.802,452.979 "/>
<polygon fill="#8DC63F" points="1599.473,560.209 1539.655,526.625 1479.835,560.209 1539.644,593.728 "/>
<polygon fill="#8DC63F" points="1575.323,528.282 1508.194,490.285 1455.363,518.956 1524.537,557.533 "/>
<polygon fill="#8DC63F" points="1561.966,491.088 1502.146,457.506 1442.328,491.088 1502.137,524.608 "/>
<polygon fill="#8DC63F" points="1502.263,487.477 1442.443,453.895 1382.625,487.477 1442.435,520.997 "/>
<polygon fill="#8DC63F" points="1411.342,539.775 1365.798,513.371 1320.254,539.775 1365.791,566.132 "/>
<polygon fill="#8DC63F" points="1433.332,468.069 1373.513,434.487 1313.693,468.069 1373.502,501.591 "/>
<polygon fill="#8DC63F" points="1512.107,532.057 1452.289,498.475 1392.471,532.057 1452.28,565.576 "/>
</svg>
