<?xml version="1.0" encoding="utf-8"?>
<!-- Generator: Adobe Illustrator 17.0.0, SVG Export Plug-In . SVG Version: 6.00 Build 0)  -->
<!DOCTYPE svg PUBLIC "-//W3C//DTD SVG 1.1//EN" "http://www.w3.org/Graphics/SVG/1.1/DTD/svg11.dtd">
<svg version="1.1" id="Layer_1" xmlns="http://www.w3.org/2000/svg" xmlns:xlink="http://www.w3.org/1999/xlink" x="0px" y="0px"
	 width="166.223px" height="134.875px" viewBox="-1 -1 166.223 134.875" enable-background="new -1 -1 166.223 134.875"
	 xml:space="preserve">
<g>
	<g>
		<polygon fill="#A6A8AB" points="81.828,133.875 165.223,85.727 81.828,38.377 -1,86.106 		"/>
		<polygon fill="#58595B" points="154.395,66.579 154.463,86.126 112.213,111.744 79.734,117.783 67.182,111.837 58.262,116.792 
			33.816,102.587 28.529,92.677 31.834,91.025 26.549,81.775 24.896,77.811 32.494,73.517 24.896,71.534 22.254,65.588 
			30.842,62.945 126.644,50.062 		"/>
		<polygon fill="#262261" points="69.033,13.021 69.033,-0.192 65.975,0.724 67.504,13.021 		"/>
		<polygon fill="#5A4A42" points="146.656,62.906 142.23,47.994 110.23,28.661 75.873,28.142 20.98,57.258 54.105,81.343 
			86.381,91.479 		"/>
		<polygon fill="#808184" points="87.283,43.706 92.141,21.452 77.232,30.247 84.271,43.706 		"/>
		<polygon fill="#C3996B" points="111.881,93.818 79.898,101.024 67.768,95.871 67.881,77.448 79.834,79.853 107.014,73.078 
			112.297,74.472 112.381,77.389 145.047,57.805 149.797,58.972 149.963,62.305 153.797,63.305 153.797,67.305 128.713,83.305 		"/>
		<polygon fill="#C1B49A" points="34.59,91.876 26.631,78.139 44.297,69.472 68.047,77.472 54.803,87.671 55.084,104.555 		"/>
		<polygon fill="#A87C4F" points="50.963,88.139 54.803,104.548 67.768,95.871 68.047,77.472 		"/>
		<polyline fill="#C1B49A" points="39.914,71.978 26.932,67.215 20.98,57.258 30.447,58.534 37.066,62.906 43.316,64.617 
			42.697,70.787 		"/>
		<polygon fill="#C1B49A" points="136.41,49.255 136.41,9.96 132.93,7.028 132.93,47.173 		"/>
		<polyline fill="#C1B49A" points="119.48,38.373 119.48,1.068 116.609,-1 116.047,37.822 		"/>
		<polygon fill="#C1B49A" points="100.73,31.994 100.914,7.028 98.098,8.864 98.064,32.661 		"/>
		<polygon fill="#A6A8AB" points="116.941,69.868 140.963,55.805 139.23,50.327 109.396,31.994 89.896,32.327 81.057,37.673 
			70.279,37.302 43.316,47.173 63.342,51.672 66.102,57.59 85.096,68.341 108.652,68.341 		"/>
		<polygon fill="#404041" points="85.49,72.639 105.287,70.223 134.396,52.161 108.178,37.543 95.396,36.672 67.92,51.801 		"/>
		<polygon fill="#8BC53F" points="86.494,73.145 104.441,70.889 131.73,53.92 107.064,40.38 95.475,39.566 70.562,53.69 		"/>
		<path fill="#262261" d="M110.881,52.889c-62.17,0.741-64.973-4.436-58.32-3.425l4.721-5.526l3.443-1.988l12.226-4.484
			l-3.109-6.499l11.021-18.911l-15.902-1.903l-7.82,3.455l6.904-3.172L34.81,20.344c0,0-9.963,8.073-10.906,10.684
			c-0.941,2.611,2.645,13.418,2.645,13.418s16.99,2.54,21.803,21.473c15.383,6.244,21.143,7.599,21.143,7.599L85.02,76.82
			l26.43-6.277v-6.938l-4.152-0.301L110.881,52.889z M38.047,46.406c-1.576-0.498-2.904-1.026-3.941-1.583L38.047,46.406z"/>
		<polyline fill="#652D90" stroke="#652D90" stroke-miterlimit="10" points="101.359,56.407 43.332,48.81 26.879,41.476 
			34.027,23.75 64.463,10.972 79.797,12.639 68.682,31.283 71.797,37.139 59.49,41.911 56.017,43.836 50.299,50.261 		"/>
		<path fill="#1B75BB" d="M110.881,70.055l-0.168-6.083l-4.248-0.32l3.313-10.705c0,0-59.803,0.018-76.875-10.764
			c-1.647-1.041-3.285-7.136-2.061-10.621c0.428-1.212,1.025-2.431,1.627-3.504c1.125-2.013,2.256-3.516,2.256-3.516L63.547,11.41
			l-27.668,9.379c0,0-10.791,8.035-11.438,10.442c-0.645,2.407,2.479,12.76,2.479,12.76s17.744,3.141,22.299,21.06
			c14.559,5.91,19.707,7.179,19.707,7.179l16.287,3.909L110.881,70.055z"/>
		<polygon fill="#262261" points="35.742,24.327 35.742,11.114 32.683,12.03 34.213,24.327 		"/>
		<polygon fill="#262261" points="51.777,16.566 51.777,3.353 48.719,4.269 50.248,16.566 		"/>
		<polygon fill="#262261" points="70.562,53.779 70.562,40.566 67.504,41.482 69.033,53.779 		"/>
		<polygon fill="#262261" points="83.812,55.861 83.812,42.648 80.754,43.564 82.283,55.861 		"/>
		<polygon fill="#262261" points="97.004,56.827 97.004,43.614 93.945,44.53 95.475,56.827 		"/>
		<polygon fill="#262261" points="57.594,50.534 57.594,37.321 54.535,38.237 56.064,50.534 		"/>
		<polygon fill="#262261" points="43.316,47.173 43.316,33.96 40.258,34.876 41.787,47.173 		"/>
		<polygon fill="#262261" points="32.902,42.183 32.902,28.97 29.844,29.886 31.373,42.183 		"/>
		<g>
			<polygon fill="#58595B" points="131.594,22.628 113.688,15.674 113.203,30.317 130.279,37.356 			"/>
			<polygon fill="#00ADEE" points="129.76,23.476 114.029,17.287 113.541,29.589 128.908,35.925 			"/>
		</g>
		<polygon fill="#808184" points="154.047,67.722 112.213,94.055 112.213,111.744 154.463,86.126 		"/>
		<polygon fill="#808184" points="67.182,97.88 56.031,105.312 58.758,115.471 66.933,111.012 		"/>
		<path fill="none" stroke="#231F20" stroke-miterlimit="10" d="M28.213,115.889"/>
		<polygon fill="#A87C4F" points="111.797,94.222 111.047,75.389 107.213,74.222 79.297,81.055 79.631,100.889 		"/>
		<polygon fill="#A87C4F" points="153.131,66.639 153.297,63.972 112.131,89.222 112.213,93.139 		"/>
		<path fill="#404041" d="M84.699,102.09l-0.236-10.368c0,0,0-2.833-2.332-2.333c-2.418,0.333-2.5,3-2.5,3l0.332,10.583
			L84.699,102.09z"/>
		<path fill="#404041" d="M91.365,100.59l-0.234-10.368c0,0,0-2.833-2.334-2.333c-2.416,0.333-2.5,3-2.5,3l0.334,10.583
			L91.365,100.59z"/>
		<path fill="#404041" d="M98.281,99.09l-0.234-10.368c0,0,0-2.833-2.334-2.333c-2.416,0.333-2.5,3-2.5,3l0.334,10.583L98.281,99.09
			z"/>
		<path fill="#404041" d="M105.115,97.84l-0.234-10.368c0,0,0-2.833-2.334-2.333c-2.416,0.333-2.5,3-2.5,3l0.334,10.583
			L105.115,97.84z"/>
		<path fill="#404041" d="M111.699,96.423l-0.236-10.368c0,0,0-2.833-2.332-2.333c-2.418,0.333-2.5,3-2.5,3l0.332,10.583
			L111.699,96.423z"/>
		<polygon fill="#6D6E70" points="111.881,93.818 108.188,94.65 79.898,101.024 79.797,118.301 112.213,111.744 		"/>
		<polygon fill="#D0D2D3" points="50.963,88.139 26.631,78.139 33.297,91.472 54.803,104.548 		"/>
		<polygon fill="#C1B49A" points="149.797,58.972 112.213,83.768 111.947,78.555 145.047,57.805 		"/>
	</g>
	<g>
		<polygon fill="#8BC53F" points="19.941,85.299 14.994,82.441 10.045,85.299 14.994,88.15 		"/>
		<path fill="#603813" d="M16.115,84.719c-1.416,1.189-1.908,0.341-2.223,0c1.91-30.94-0.279-37.892-0.279-37.892l1.111-0.569
			c0,0,1.023,28.451,1.391,37.147"/>
		<polygon fill="#37B34A" points="13.613,46.586 11.432,47.656 10.408,50.068 8.818,51.338 9.726,49.688 9.842,46.641 
			12.113,45.625 		"/>
		<polygon fill="#37B34A" points="14.725,46.066 13.58,43.562 11.992,43.086 11.799,44.894 10.703,45.832 9.613,45.308 
			8.752,47.005 8.387,49.117 9.484,46.771 10.459,47.005 10.703,48.178 12.41,46.771 		"/>
		<polygon fill="#37B34A" points="13.262,46.736 15.641,44.196 16.383,44.832 17.23,46.26 19.293,47.213 16.828,47.371 
			15.492,46.418 		"/>
		<polygon fill="#37B34A" points="13.596,46.184 14.654,43.135 15.449,43.531 17.277,44.246 19.184,44.428 16.629,45.811 
			15.26,45.275 		"/>
	</g>
</g>
</svg>
