<?xml version="1.0" encoding="utf-8"?>
<!-- Generator: Adobe Illustrator 16.0.4, SVG Export Plug-In . SVG Version: 6.00 Build 0)  -->
<!DOCTYPE svg PUBLIC "-//W3C//DTD SVG 1.1//EN" "http://www.w3.org/Graphics/SVG/1.1/DTD/svg11.dtd">
<svg version="1.1" id="Layer_1" xmlns="http://www.w3.org/2000/svg" xmlns:xlink="http://www.w3.org/1999/xlink" x="0px" y="0px"
	 width="137.871px" height="114.507px" viewBox="0 0 137.871 114.507" enable-background="new 0 0 137.871 114.507"
	 xml:space="preserve">
<polygon fill="#39B54A" points="68.96,34.911 0,74.725 68.96,114.507 137.871,74.72 "/>
<path fill="#E0D07C" d="M18.741,45.989c0,0-9.845,1.401-4.435,7.21c7.715,1.059,30.164,14.713,33.321,24.688
	c1.754,2.085,5.613,3.055,7.015,0C50.081,59.059,18.741,45.989,18.741,45.989z"/>
<path fill="#E0D07C" d="M119.938,54.501c0,0,8.311,0.861,3.892,5.558c-6.464,1.02-25.035,12.298-27.459,20.212
	c-1.432,1.687-4.656,2.542-5.905,0.172C93.874,65.532,119.938,54.501,119.938,54.501z"/>
<polyline fill="#CCCBC8" points="68.259,79.29 80.754,11.485 78.713,9.822 65.291,79.259 "/>
<polygon fill="#E26D44" points="74.162,35.73 67.878,25.239 75.151,0 78.691,9.776 "/>
<polygon points="119.733,55.487 78.65,10.059 18.929,46.665 18.699,46.292 78.732,9.495 120.059,55.192 "/>
<polygon fill="#E26D44" points="75.426,37.645 84.888,29.902 86.591,3.69 79.955,11.692 "/>
</svg>
