<?xml version="1.0" encoding="utf-8"?>
<!-- Generator: Adobe Illustrator 16.0.4, SVG Export Plug-In . SVG Version: 6.00 Build 0)  -->
<!DOCTYPE svg PUBLIC "-//W3C//DTD SVG 1.1//EN" "http://www.w3.org/Graphics/SVG/1.1/DTD/svg11.dtd">
<svg version="1.1" id="Layer_1" xmlns="http://www.w3.org/2000/svg" xmlns:xlink="http://www.w3.org/1999/xlink" x="0px" y="0px"
	 width="124px" height="124.069px" viewBox="0 0 124 124.069" enable-background="new 0 0 124 124.069" xml:space="preserve">
<g>
	<polygon fill="#C1834F" points="60.746,70.819 123.757,34.885 61.756,0 0,35.642 	"/>
	<polygon fill="#6D6E71" points="61.458,63.569 112.619,34.393 62.279,6.069 12.138,35.008 	"/>
	<polygon fill="#BCBEC0" points="62.054,60.319 107.877,34.188 62.789,8.819 17.88,34.738 	"/>
	<polygon fill="#6D6E71" points="33.807,45.392 51.25,36.069 35.594,25.819 18.09,35.921 	"/>
	<polygon fill="#E7A167" points="61.5,123.819 62.511,70.675 0,35.319 0.18,88.024 	"/>
	<polygon fill="#F3D3B1" points="123.828,87.614 124,34.819 61.875,70.194 61.5,124.069 	"/>
	<polygon fill="#C1834F" points="23.632,29.104 48.146,15.124 24.025,1.552 0,15.418 	"/>
	<polygon fill="#E7A167" points="23.926,49.722 24.319,29.047 0,15.293 0.07,35.796 	"/>
	<polygon fill="#F3D3B1" points="48.173,35.638 48.24,15.098 24.121,28.909 24.25,48.569 	"/>
	<polygon opacity="0.7" fill="#BE1E2D" points="35.655,25.312 38.015,23.912 38.015,29.608 42.599,26.867 42.499,29.691 
		38.094,32.37 38.163,38.172 35.863,39.381 35.83,33.614 30.492,36.853 30.486,34.097 35.646,30.872 	"/>
	<polygon fill="#BCBEC0" points="23.526,26.069 43.101,14.906 23.84,4.069 4.656,15.142 	"/>
	<polygon fill="#939598" points="78.378,47.761 101.854,34.374 78.754,21.377 55.748,34.656 	"/>
	<polygon fill="#6D6E71" points="78.688,45.819 98.878,34.305 79.011,23.127 59.224,34.548 	"/>
	<polygon fill="#E6E7E8" points="23.792,23.261 38.147,15.075 24.022,7.127 9.954,15.248 	"/>
	<polygon fill="#FFFFFF" points="92.064,35.127 77.736,26.628 75.1,28.282 81.252,31.797 76.401,34.642 70.208,31.121 
		67.417,32.821 81.379,41.32 84.415,39.619 78.709,36.221 83.536,33.378 89.248,36.719 	"/>
	<polyline fill="#1C75BC" points="17.723,97.309 17.625,86.569 39.834,99.511 39.834,110.069 	"/>
	<g>
		<polygon fill="#1C75BC" points="41.717,87.98 41.717,91.355 44.623,93.043 44.623,89.855 		"/>
		<polygon fill="#1C75BC" points="48.135,92.089 48.135,95.464 51.041,97.151 51.041,93.964 		"/>
		<polygon fill="#1C75BC" points="54.844,95.933 54.844,99.308 57.75,100.995 57.75,97.808 		"/>
		<polygon fill="#1C75BC" points="2.208,64.918 2.208,68.293 5.114,69.98 5.114,66.793 		"/>
		<polygon fill="#1C75BC" points="8.627,69.026 8.627,72.401 11.533,74.089 11.533,70.901 		"/>
		<polygon fill="#1C75BC" points="15.336,72.87 15.336,76.245 18.242,77.933 18.242,74.745 		"/>
		<polygon fill="#1C75BC" points="21.843,76.299 21.843,79.674 24.749,81.361 24.749,78.174 		"/>
		<polygon fill="#1C75BC" points="28.262,80.406 28.262,83.781 31.168,85.469 31.168,82.281 		"/>
		<polygon fill="#1C75BC" points="34.971,84.25 34.971,87.625 37.877,89.312 37.877,86.125 		"/>
	</g>
	<g>
		<polygon fill="#1C75BC" points="41.717,67.023 41.717,70.398 44.623,72.086 44.623,68.898 		"/>
		<polygon fill="#1C75BC" points="48.135,71.132 48.135,74.507 51.041,76.194 51.041,73.007 		"/>
		<polygon fill="#1C75BC" points="54.844,74.976 54.844,78.351 57.75,80.038 57.75,76.851 		"/>
		<polygon fill="#1C75BC" points="2.208,43.961 2.208,47.336 5.114,49.023 5.114,45.836 		"/>
		<polygon fill="#1C75BC" points="8.627,48.069 8.627,51.444 11.533,53.132 11.533,49.944 		"/>
		<polygon fill="#1C75BC" points="15.336,51.913 15.336,55.288 18.242,56.976 18.242,53.788 		"/>
		<polygon fill="#1C75BC" points="21.843,55.342 21.843,58.717 24.749,60.404 24.749,57.217 		"/>
		<polygon fill="#1C75BC" points="28.262,59.449 28.262,62.824 31.168,64.512 31.168,61.324 		"/>
		<polygon fill="#1C75BC" points="34.971,63.293 34.971,66.668 37.877,68.355 37.877,65.168 		"/>
	</g>
	<g>
		<polygon fill="#1C75BC" points="2.33,33.482 2.208,36.855 5.052,38.646 5.167,35.46 		"/>
		<polygon fill="#1C75BC" points="8.596,37.818 8.475,41.191 11.318,42.982 11.433,39.797 		"/>
		<polygon fill="#1C75BC" points="15.163,41.902 15.041,45.274 17.884,47.066 17.999,43.88 		"/>
	</g>
	<g>
		<polygon fill="#1C75BC" points="2.208,23.003 2.208,26.378 5.114,28.066 5.114,24.878 		"/>
		<polygon fill="#1C75BC" points="8.627,27.111 8.627,30.486 11.533,32.173 11.533,28.986 		"/>
		<polygon fill="#1C75BC" points="15.336,30.955 15.336,34.33 18.242,36.017 18.242,32.83 		"/>
	</g>
	<g>
		<polygon fill="#1C75BC" points="41.717,77.502 41.717,80.877 44.623,82.564 44.623,79.377 		"/>
		<polygon fill="#1C75BC" points="48.135,81.61 48.135,84.985 51.041,86.673 51.041,83.485 		"/>
		<polygon fill="#1C75BC" points="54.844,85.454 54.844,88.829 57.75,90.517 57.75,87.329 		"/>
		<polygon fill="#1C75BC" points="2.208,54.439 2.208,57.814 5.114,59.502 5.114,56.314 		"/>
		<polygon fill="#1C75BC" points="8.627,58.548 8.627,61.923 11.533,63.61 11.533,60.423 		"/>
		<polygon fill="#1C75BC" points="15.336,62.392 15.336,65.767 18.242,67.454 18.242,64.267 		"/>
		<polygon fill="#1C75BC" points="21.843,65.82 21.843,69.195 24.749,70.883 24.749,67.695 		"/>
		<polygon fill="#1C75BC" points="28.262,69.928 28.262,73.303 31.168,74.99 31.168,71.803 		"/>
		<polygon fill="#1C75BC" points="34.971,73.771 34.971,77.146 37.877,78.834 37.877,75.646 		"/>
	</g>
	<g>
		<polygon fill="#27AAE1" points="81.908,86.981 81.908,90.356 79.002,92.044 79.002,88.856 		"/>
		<polygon fill="#27AAE1" points="75.49,91.09 75.49,94.465 72.583,96.152 72.583,92.965 		"/>
		<polygon fill="#27AAE1" points="68.781,94.934 68.781,98.309 65.875,99.996 65.875,96.809 		"/>
		<polygon fill="#27AAE1" points="121.416,63.919 121.416,67.294 118.51,68.981 118.51,65.794 		"/>
		<polygon fill="#27AAE1" points="114.998,68.027 114.998,71.402 112.092,73.09 112.092,69.902 		"/>
		<polygon fill="#27AAE1" points="108.289,71.871 108.289,75.246 105.383,76.934 105.383,73.746 		"/>
		<polygon fill="#27AAE1" points="101.781,75.3 101.781,78.675 98.875,80.362 98.875,77.175 		"/>
		<polygon fill="#27AAE1" points="95.363,79.407 95.363,82.782 92.457,84.47 92.457,81.282 		"/>
		<polygon fill="#27AAE1" points="88.654,83.251 88.654,86.626 85.748,88.313 85.748,85.126 		"/>
	</g>
	<g>
		<polygon fill="#27AAE1" points="81.908,67.171 81.908,70.546 79.002,72.233 79.002,69.046 		"/>
		<polygon fill="#27AAE1" points="75.49,71.279 75.49,74.654 72.583,76.342 72.583,73.154 		"/>
		<polygon fill="#27AAE1" points="68.781,75.123 68.781,78.498 65.875,80.186 65.875,76.998 		"/>
		<polygon fill="#27AAE1" points="121.416,44.108 121.416,47.483 118.51,49.171 118.51,45.983 		"/>
		<polygon fill="#27AAE1" points="114.998,48.217 114.998,51.592 112.092,53.279 112.092,50.092 		"/>
		<polygon fill="#27AAE1" points="108.289,52.061 108.289,55.436 105.383,57.123 105.383,53.936 		"/>
		<polygon fill="#27AAE1" points="101.781,55.489 101.781,58.864 98.875,60.552 98.875,57.364 		"/>
		<polygon fill="#27AAE1" points="95.363,59.597 95.363,62.972 92.457,64.659 92.457,61.472 		"/>
		<polygon fill="#27AAE1" points="88.654,63.44 88.654,66.815 85.748,68.503 85.748,65.315 		"/>
	</g>
	<g>
		<polygon fill="#27AAE1" points="81.908,77.076 81.908,80.451 79.002,82.139 79.002,78.951 		"/>
		<polygon fill="#27AAE1" points="75.49,81.185 75.49,84.56 72.583,86.247 72.583,83.06 		"/>
		<polygon fill="#27AAE1" points="68.781,85.028 68.781,88.403 65.875,90.091 65.875,86.903 		"/>
		<polygon fill="#27AAE1" points="121.416,54.014 121.416,57.389 118.51,59.076 118.51,55.889 		"/>
		<polygon fill="#27AAE1" points="114.998,58.122 114.998,61.497 112.092,63.185 112.092,59.997 		"/>
		<polygon fill="#27AAE1" points="108.289,61.966 108.289,65.341 105.383,67.028 105.383,63.841 		"/>
		<polygon fill="#27AAE1" points="101.781,65.395 101.781,68.77 98.875,70.457 98.875,67.27 		"/>
		<polygon fill="#27AAE1" points="95.363,69.502 95.363,72.877 92.457,74.564 92.457,71.377 		"/>
		<polygon fill="#27AAE1" points="88.654,73.346 88.654,76.721 85.748,78.408 85.748,75.221 		"/>
	</g>
	<polygon fill="#A97C50" points="41.25,100.069 60.75,111.569 60.625,122.444 41.25,110.944 	"/>
	<polygon fill="#A97C50" points="0.625,76.819 16.625,85.944 16.625,96.444 0.75,87.194 	"/>
	<polyline fill="#27AAE1" points="105.652,97.309 105.75,86.569 83.541,99.511 83.541,110.069 	"/>
	<polygon fill="#C49A6C" points="82.125,100.069 62.625,111.569 62.75,122.444 82.125,110.944 	"/>
	<polygon fill="#C49A6C" points="122.75,76.819 106.75,85.944 106.75,96.444 122.625,87.194 	"/>
</g>
</svg>
