<?xml version="1.0" encoding="utf-8"?>
<!-- Generator: Adobe Illustrator 16.0.4, SVG Export Plug-In . SVG Version: 6.00 Build 0)  -->
<!DOCTYPE svg PUBLIC "-//W3C//DTD SVG 1.1//EN" "http://www.w3.org/Graphics/SVG/1.1/DTD/svg11.dtd">
<svg version="1.1" id="Layer_1" xmlns="http://www.w3.org/2000/svg" xmlns:xlink="http://www.w3.org/1999/xlink" x="0px" y="0px"
	 width="41.201px" height="38.134px" viewBox="0 0 41.201 38.134" enable-background="new 0 0 41.201 38.134" xml:space="preserve">
<symbol  id="New_Symbol_3" viewBox="-3.676 -4.647 7.353 9.294">
	<polygon fill="#5A4B43" points="-3.676,-0.604 -3.676,4.647 3.677,0.52 3.677,-2.397 3.677,-4.647 	"/>
	<polygon fill="#BDBEC0" points="-3.044,-0.5 -3.044,3.849 3.045,0.431 3.045,-1.985 3.045,-3.849 	"/>
</symbol>
<symbol  id="basemnt_wndw_west_4" viewBox="-5.745 -8.844 11.49 17.687">
	<polygon fill="#CD765D" points="-5.745,-1.341 -5.745,8.843 5.745,1.184 5.745,-8.844 	"/>
	<polygon fill="#A8AAAD" points="-4.5,-1.44 -4.5,6.536 4.5,0.537 4.5,-7.317 	"/>
</symbol>
<symbol  id="bush_2" viewBox="-7.372 -5.245 14.744 10.49">
	<path fill="#06A14B" stroke="#019547" stroke-width="1.3679" stroke-miterlimit="10" d="M2.269,0.244
		c0.591,0.432,0.98,1.135,0.98,1.933c0,1.316-1.048,2.384-2.34,2.384c-0.932,0-1.73-0.56-2.106-1.363
		c-0.474,0.348-1.148,0.569-1.906,0.569c-1.43,0-2.589-0.776-2.589-1.735c0-0.158,0.042-0.309,0.101-0.454
		c-0.661-0.4-1.096-1.049-1.096-1.785c0-1.216,1.176-2.203,2.628-2.203c1.452,0,2.629,0.987,2.629,2.203
		c0,0.29-0.071,0.565-0.192,0.818C-1.42,0.706-1.245,0.824-1.09,0.953c0.151-0.254,0.346-0.476,0.576-0.657
		C-1.149-0.088-1.566-0.73-1.566-1.463c0-1.177,1.078-2.13,2.408-2.13c1.329,0,2.407,0.953,2.407,2.13
		C3.249-0.762,2.86-0.145,2.269,0.244z"/>
	<path fill="#06A14B" stroke="#019547" stroke-width="1.3679" stroke-miterlimit="10" d="M4.968,2.177c-0.95,0-1.72-0.815-1.72-1.82
		s0.77-1.819,1.72-1.819s1.72,0.814,1.72,1.819S5.918,2.177,4.968,2.177z"/>
	<path fill="#06A14B" stroke="#019547" stroke-width="1.3679" stroke-miterlimit="10" d="M-4.896-2.411
		c-0.99,0-1.792-0.481-1.792-1.075c0-0.595,0.802-1.075,1.792-1.075c0.99,0,1.792,0.48,1.792,1.075
		C-3.104-2.893-3.906-2.411-4.896-2.411z"/>
	<path fill="#06A14B" stroke="#019547" stroke-width="1.3679" stroke-miterlimit="10" d="M-3.104-3.539
		c0-0.03,0.344-0.054,0.769-0.054c0.425,0,0.769,0.023,0.769,0.054c0,0.029-0.344,0.053-0.769,0.053
		C-2.76-3.486-3.104-3.51-3.104-3.539z"/>
</symbol>
<symbol  id="east_window_4" viewBox="-4.164 -11.487 8.328 22.975">
	<polygon fill="#D5896B" points="-4.138,-11.487 -4.138,6.502 4.164,11.488 4.164,-6.704 	"/>
	<polygon fill="#BDBEC0" points="-3.4,-10.003 -3.4,5.228 3.628,9.448 3.628,-5.954 	"/>
	<polygon fill="#D5896B" points="3.695,1.609 -4.164,-2.479 -3.733,-3.31 4.126,0.778 	"/>
</symbol>
<polygon fill="#85C98D" points="0,26.24 20.598,14.344 41.201,26.236 20.603,38.134 "/>
<polygon fill="#9B8579" points="10.495,19.75 13.041,18.402 13.15,19.955 10.62,21.416 "/>
<polyline id="NEW_SOUTH_WALL" fill="#9B8579" points="23.349,14.038 23.617,31.716 33.743,26.046 33.652,7.966 23.459,13.942 "/>
<polygon fill="#5A4B43" points="19.678,5.951 14.591,9.997 20.972,7.436 22.245,7.521 "/>
<polygon fill="#736759" stroke="#736759" stroke-width="0.995" stroke-miterlimit="10" points="12.496,13.146 13.437,11.443 
	14.173,12.648 "/>
<g>
	
		<ellipse transform="matrix(-0.6167 0.7872 -0.7872 -0.6167 38.3125 31.5061)" fill="#06A14B" stroke="#019547" stroke-width="0.8744" stroke-miterlimit="10" cx="11.486" cy="25.081" rx="0.269" ry="0.292"/>
	<path fill="#06A14B" stroke="#019547" stroke-width="1.4746" stroke-miterlimit="10" d="M11.339,23.431
		c0.145-0.127,0.24-0.33,0.24-0.562c0-0.383-0.258-0.691-0.574-0.691c-0.229,0-0.426,0.16-0.518,0.395
		c-0.116-0.1-0.282-0.166-0.468-0.166c-0.351,0-0.636,0.227-0.636,0.504c0,0.047,0.01,0.092,0.024,0.133
		c-0.162,0.117-0.269,0.305-0.269,0.52c0,0.354,0.289,0.641,0.645,0.641c0.357,0,0.646-0.287,0.646-0.641
		c0-0.084-0.017-0.164-0.047-0.238c0.05-0.027,0.093-0.062,0.132-0.1c0.035,0.074,0.084,0.139,0.141,0.191
		c-0.156,0.111-0.258,0.299-0.258,0.512c0,0.342,0.264,0.619,0.59,0.619c0.327,0,0.592-0.277,0.592-0.619
		C11.58,23.722,11.484,23.542,11.339,23.431z"/>
	
		<ellipse fill="#06A14B" stroke="#019547" stroke-width="1.4746" stroke-miterlimit="10" cx="12.001" cy="23.398" rx="0.422" ry="0.529"/>
	
		<ellipse fill="#06A14B" stroke="#019547" stroke-width="1.4746" stroke-miterlimit="10" cx="9.58" cy="24.515" rx="0.439" ry="0.312"/>
	
		<ellipse fill="#06A14B" stroke="#019547" stroke-width="1.4746" stroke-miterlimit="10" cx="10.209" cy="24.531" rx="0.189" ry="0.016"/>
</g>
<polygon fill="#CFAC84" points="10.62,21.566 10.62,24.255 12.005,24.863 12.996,25.38 13.384,22.847 10.62,21.416 "/>
<polygon fill="#736759" stroke="#736759" stroke-width="0.25" stroke-miterlimit="10" points="11.359,26.097 11.359,25.511 
	11.783,25.39 11.828,24.771 12.414,24.626 12.38,24.023 13.012,23.826 12.96,23.207 12.957,23.083 13.28,23.083 15.347,24.447 
	15.364,26.976 14.017,27.421 13.28,27.091 "/>
<polyline fill="#5A4B43" points="13.699,27.435 13.631,26.775 14.086,26.775 14.147,26.042 14.828,25.843 14.828,25.085 
	15.231,24.998 15.231,24.115 15.382,24.091 15.55,24.091 15.472,27.107 13.699,27.435 "/>
<polygon fill="none" points="10.523,24.541 10.523,15.623 15.727,18.627 15.727,27.513 "/>
<polygon fill="#CFAC84" stroke="#EF4237" stroke-width="1.0819" stroke-miterlimit="10" points="13.169,23.011 15.904,21.433 
	18.244,23.056 15.669,24.541 "/>
<polygon id="PORCH_FLOOR" fill="#818285" stroke="#818285" stroke-miterlimit="10" points="10.591,21.484 13.14,19.984 
	15.638,21.587 17.902,22.82 15.591,24.447 "/>
<polyline fill="#CFAC84" points="10.661,19.984 12.898,21.234 12.976,22.869 10.495,21.562 10.661,19.984 "/>
<rect x="10.294" y="18.939" transform="matrix(0.8839 -0.4677 0.4677 0.8839 -7.5293 7.6956)" fill="#CD765D" width="2.88" height="0.145"/>
<rect x="11.875" y="20.149" transform="matrix(0.8636 -0.5042 0.5042 0.8636 -8.4717 9.1478)" fill="#CD765D" width="1.592" height="0.163"/>
<rect x="13.634" y="25.234" fill="#736759" stroke="#736759" stroke-width="0.2649" stroke-miterlimit="10" width="0.393" height="2.303"/>
<rect x="10.227" y="15.388" fill="#CD765D" width="0.399" height="9.665"/>
<g>
	<path fill="#06A14B" stroke="#019547" stroke-width="1.3736" stroke-miterlimit="10" d="M35.626,24.212
		c0.135-0.117,0.224-0.309,0.224-0.523c0-0.355-0.239-0.646-0.535-0.646c-0.214,0-0.396,0.152-0.481,0.371
		c-0.108-0.096-0.263-0.156-0.436-0.156c-0.327,0-0.593,0.211-0.593,0.471c0,0.043,0.009,0.084,0.022,0.123
		c-0.15,0.109-0.25,0.283-0.25,0.482c0,0.33,0.27,0.598,0.602,0.598s0.601-0.268,0.601-0.598c0-0.078-0.017-0.152-0.044-0.221
		c0.047-0.025,0.087-0.059,0.122-0.092c0.034,0.068,0.079,0.127,0.132,0.178c-0.145,0.104-0.24,0.277-0.24,0.477
		c0,0.318,0.246,0.576,0.55,0.576s0.551-0.258,0.551-0.576C35.85,24.484,35.761,24.318,35.626,24.212z"/>
	
		<ellipse fill="#06A14B" stroke="#019547" stroke-width="1.3736" stroke-miterlimit="10" cx="36.244" cy="24.182" rx="0.394" ry="0.493"/>
	
		<ellipse fill="#06A14B" stroke="#019547" stroke-width="1.3736" stroke-miterlimit="10" cx="33.988" cy="25.222" rx="0.41" ry="0.291"/>
	
		<ellipse fill="#06A14B" stroke="#019547" stroke-width="1.3736" stroke-miterlimit="10" cx="34.574" cy="25.236" rx="0.176" ry="0.016"/>
</g>
<g>
	<path fill="#06A14B" stroke="#019547" stroke-width="1.3736" stroke-miterlimit="10" d="M35.251,22.609
		c0.17-0.055,0.328-0.193,0.413-0.393c0.141-0.326,0.035-0.688-0.237-0.805c-0.195-0.084-0.423-0.018-0.587,0.148
		c-0.063-0.129-0.181-0.244-0.341-0.312c-0.3-0.131-0.626-0.041-0.729,0.197c-0.017,0.039-0.024,0.08-0.026,0.121
		c-0.182,0.041-0.343,0.162-0.422,0.346c-0.13,0.303,0.012,0.654,0.316,0.785s0.658-0.008,0.788-0.311
		c0.031-0.072,0.046-0.146,0.048-0.221c0.053-0.006,0.102-0.02,0.148-0.037c0.004,0.076,0.021,0.15,0.051,0.215
		c-0.175,0.039-0.332,0.16-0.41,0.344c-0.125,0.293-0.002,0.627,0.277,0.746c0.279,0.121,0.608-0.018,0.734-0.312
		C35.35,22.947,35.334,22.757,35.251,22.609z"/>
	
		<ellipse transform="matrix(0.3957 -0.9184 0.9184 0.3957 0.6906 46.699)" fill="#06A14B" stroke="#019547" stroke-width="1.3736" stroke-miterlimit="10" cx="35.831" cy="22.825" rx="0.492" ry="0.393"/>
	
		<ellipse transform="matrix(0.3968 -0.9179 0.9179 0.3968 -0.8941 44.4178)" fill="#06A14B" stroke="#019547" stroke-width="1.3736" stroke-miterlimit="10" cx="33.347" cy="22.889" rx="0.29" ry="0.411"/>
	
		<ellipse transform="matrix(-0.9186 -0.3953 0.3953 -0.9186 55.8562 57.7741)" fill="#06A14B" stroke="#019547" stroke-width="1.3736" stroke-miterlimit="10" cx="33.879" cy="23.133" rx="0.175" ry="0.014"/>
</g>
<polygon id="porch_back_wall" fill="#736759" stroke="#736759" stroke-width="1.0505" stroke-miterlimit="10" points="
	15.641,21.587 15.727,17.624 12.976,16.148 13.128,20.087 "/>
<polygon id="PORCH_GUTTER" fill="#736759" points="10.256,15.469 9.979,14.954 10.119,14.696 10.991,15.349 15.347,17.883 
	15.347,18.408 "/>
<rect x="12.669" y="23.555" transform="matrix(0.8557 0.5175 -0.5175 0.8557 14.306 -3.9151)" fill="#5A4B43" width="3.008" height="0.28"/>
<rect x="11.244" y="24.087" fill="#736759" stroke="#736759" stroke-width="0.2566" stroke-miterlimit="10" width="0.393" height="2.16"/>
<rect x="12.233" y="25.101" transform="matrix(0.8778 0.4791 -0.4791 0.8778 13.7172 -3.4213)" fill="#9B8579" width="2.662" height="0.145"/>
<ellipse fill="#CD765D" cx="11.402" cy="23.818" rx="0.268" ry="0.273"/>
<ellipse fill="#CD765D" cx="13.832" cy="25" rx="0.268" ry="0.262"/>
<rect x="15.086" y="21.994" fill="#5A4B43" width="0.419" height="2.373"/>
<ellipse fill="#CD765D" cx="15.296" cy="21.789" rx="0.279" ry="0.291"/>
<rect x="10.179" y="22.066" transform="matrix(0.8674 0.4975 -0.4975 0.8674 12.5862 -2.8777)" fill="#CD765D" width="3.031" height="0.232"/>
<rect x="10.195" y="20.363" transform="matrix(0.8777 0.4792 -0.4792 0.8777 11.2151 -3.077)" fill="#CD765D" width="2.882" height="0.144"/>
<rect x="12.898" y="21.017" fill="#5A4B43" width="0.393" height="1.994"/>
<ellipse fill="#CD765D" cx="13.093" cy="20.835" rx="0.268" ry="0.258"/>
<rect x="12.827" y="24.226" transform="matrix(0.878 0.4787 -0.4787 0.878 13.3511 -3.782)" fill="#9B8579" width="2.534" height="0.145"/>
<rect id="bannister_right" x="14.781" y="22.937" transform="matrix(0.7461 0.6658 -0.6658 0.7461 20.1165 -3.6661)" fill="#5A4B43" width="0.17" height="3.22"/>
<rect id="bannister_left" x="12.16" y="22.355" transform="matrix(0.7071 0.7071 -0.7071 0.7071 20.3315 -1.7165)" fill="#5A4B43" width="0.155" height="2.659"/>
<path fill="#06A14B" stroke="#019547" stroke-width="0.8743" stroke-miterlimit="10" d="M10.908,25.21
	c0.117,0.012,0.234-0.029,0.307-0.123c0.119-0.152,0.076-0.387-0.096-0.521c-0.125-0.098-0.283-0.115-0.406-0.061
	c-0.032-0.09-0.102-0.186-0.203-0.266c-0.191-0.148-0.416-0.178-0.504-0.066c-0.014,0.018-0.022,0.041-0.028,0.062
	c-0.124-0.021-0.241,0.008-0.309,0.094c-0.11,0.143-0.043,0.381,0.151,0.533c0.193,0.15,0.441,0.158,0.552,0.016
	c0.026-0.035,0.042-0.072,0.049-0.115c0.036,0.01,0.069,0.014,0.103,0.016c-0.004,0.045,0.003,0.092,0.018,0.137
	c-0.12-0.021-0.234,0.01-0.301,0.096c-0.107,0.137-0.05,0.359,0.128,0.498c0.177,0.141,0.408,0.141,0.516,0.004
	C10.947,25.431,10.951,25.318,10.908,25.21z"/>
<ellipse transform="matrix(-0.6156 0.7881 -0.7881 -0.6156 38.105 31.8743)" fill="#06A14B" stroke="#019547" stroke-width="0.8744" stroke-miterlimit="10" cx="11.278" cy="25.231" rx="0.269" ry="0.291"/>
<ellipse transform="matrix(0.6176 -0.7865 0.7865 0.6176 -15.9095 17.081)" fill="#06A14B" stroke="#019547" stroke-width="0.8743" stroke-miterlimit="10" cx="9.609" cy="24.9" rx="0.159" ry="0.304"/>
<ellipse transform="matrix(-0.7881 -0.6155 0.6155 -0.7881 2.2938 51.1362)" fill="#06A14B" stroke="#019547" stroke-width="0.8743" stroke-miterlimit="10" cx="9.948" cy="25.173" rx="0.13" ry="0.008"/>
<rect x="11.517" y="25.917" transform="matrix(0.8777 0.4792 -0.4792 0.8777 14.0286 -2.9899)" fill="#9B8579" width="2.71" height="0.145"/>
<polygon id="PORCH_GUTTER_1_" fill="#BE202E" points="15.708,17.946 15.431,17.433 15.57,17.174 16.443,17.827 20.799,20.361 
	20.799,20.886 "/>
<polygon fill="#736759" points="10.991,14.995 15.668,12.648 16.814,11.986 16.38,17.763 15.727,18.104 10.991,15.349 "/>
<polygon fill="#9B8579" points="14.368,14.056 16.97,12.654 16.97,14.919 14.368,16.206 "/>
<polygon fill="#9B8579" points="12.599,15.254 12.599,12.856 14.298,14.056 14.298,16.206 "/>
<polygon fill="#5A4B43" points="12.496,13.06 13.855,11.53 14.615,14.031 "/>
<polygon fill="#C2B59C" points="13.476,10.461 14.58,14.71 17.716,12.732 16.405,9.659 "/>
<path id="NEW_FLAT_ROOF" fill="#736759" d="M15.759,9.427c-0.123,0.069,9.967-5.843,10.045-5.845
	c0.079-0.001,7.758,4.432,7.758,4.432l-10.304,6.073L15.39,9.643"/>
<polygon fill="#CFAC84" points="18.492,9.599 18.492,7.491 20.004,6.58 21.63,9.23 21.63,11.3 "/>
<polygon fill="#CD765D" points="13.544,19.227 13.544,18.148 15.054,18.997 15.054,19.595 15.054,20.056 "/>
<polygon fill="#97999C" points="13.664,19.207 13.664,18.301 14.934,19.013 14.934,19.517 14.934,19.906 "/>
<use xlink:href="#New_Symbol_3"  width="7.353" height="9.294" x="-3.676" y="-4.647" transform="matrix(0.2478 0 0 -0.2478 20.061 9.0439)" overflow="visible"/>
<ellipse transform="matrix(0.9795 0.2014 -0.2014 0.9795 1.9706 -3.8419)" fill="#736759" cx="19.869" cy="7.765" rx="0.393" ry="0.325"/>
<polyline id="FRONT_WALL" fill="#CFAC84" points="15.445,9.571 23.346,14.019 23.615,31.886 15.445,27.263 15.445,9.571 "/>
<use xlink:href="#basemnt_wndw_west_4"  width="11.49" height="17.687" x="-5.745" y="-8.844" transform="matrix(0.201 0 0 -0.201 17.6782 27.8081)" overflow="visible"/>
<use xlink:href="#basemnt_wndw_west_4"  width="11.49" height="17.687" x="-5.745" y="-8.844" transform="matrix(0.201 0 0 -0.201 20.9907 29.7476)" overflow="visible"/>
<g>
	<path fill="#06A14B" stroke="#019547" stroke-width="1.2564" stroke-miterlimit="10" d="M22.49,30.484
		c0.123-0.107,0.205-0.281,0.205-0.479c0-0.326-0.219-0.592-0.49-0.592c-0.195,0-0.361,0.139-0.44,0.338
		c-0.099-0.086-0.24-0.141-0.398-0.141c-0.3,0-0.542,0.193-0.542,0.43c0,0.039,0.008,0.078,0.021,0.113
		c-0.139,0.098-0.229,0.258-0.229,0.441c0,0.301,0.245,0.545,0.55,0.545c0.304,0,0.55-0.244,0.55-0.545
		c0-0.07-0.015-0.141-0.04-0.203c0.043-0.023,0.079-0.053,0.111-0.084c0.031,0.062,0.072,0.117,0.121,0.164
		c-0.133,0.094-0.221,0.254-0.221,0.434c0,0.291,0.226,0.527,0.504,0.527c0.277,0,0.504-0.236,0.504-0.527
		C22.695,30.732,22.613,30.58,22.49,30.484z"/>
	
		<ellipse fill="#06A14B" stroke="#019547" stroke-width="1.2564" stroke-miterlimit="10" cx="23.054" cy="30.456" rx="0.359" ry="0.45"/>
	
		<ellipse fill="#06A14B" stroke="#019547" stroke-width="1.2564" stroke-miterlimit="10" cx="20.991" cy="31.407" rx="0.375" ry="0.267"/>
	
		<ellipse fill="#06A14B" stroke="#019547" stroke-width="1.2564" stroke-miterlimit="10" cx="21.526" cy="31.421" rx="0.161" ry="0.012"/>
</g>
<g>
	<path fill="#06A14B" stroke="#019547" stroke-width="1.2564" stroke-miterlimit="10" d="M24.77,31.765
		c0.158,0.043,0.348,0.012,0.511-0.1c0.27-0.184,0.365-0.514,0.213-0.736c-0.109-0.162-0.318-0.223-0.526-0.176
		c0.015-0.129-0.019-0.275-0.108-0.408c-0.168-0.246-0.463-0.34-0.66-0.205c-0.031,0.021-0.058,0.049-0.08,0.08
		c-0.16-0.059-0.344-0.043-0.494,0.059c-0.25,0.17-0.314,0.51-0.143,0.762c0.17,0.252,0.512,0.318,0.761,0.148
		c0.06-0.041,0.106-0.092,0.144-0.148c0.045,0.023,0.09,0.037,0.134,0.045c-0.034,0.062-0.056,0.127-0.067,0.191
		c-0.152-0.057-0.334-0.039-0.482,0.062c-0.242,0.164-0.311,0.484-0.153,0.713c0.156,0.23,0.478,0.283,0.72,0.121
		C24.679,32.076,24.76,31.921,24.77,31.765z"/>
	
		<ellipse transform="matrix(0.8277 -0.5612 0.5612 0.8277 -13.753 19.6431)" fill="#06A14B" stroke="#019547" stroke-width="1.2564" stroke-miterlimit="10" cx="25.111" cy="32.217" rx="0.451" ry="0.361"/>
	
		<ellipse transform="matrix(0.8275 -0.5615 0.5615 0.8275 -13.4352 18.3602)" fill="#06A14B" stroke="#019547" stroke-width="1.2564" stroke-miterlimit="10" cx="23.163" cy="31.045" rx="0.266" ry="0.374"/>
	
		<ellipse transform="matrix(-0.5645 -0.8255 0.8255 -0.5645 10.6942 68.6337)" fill="#06A14B" stroke="#019547" stroke-width="1.2564" stroke-miterlimit="10" cx="23.454" cy="31.496" rx="0.161" ry="0.013"/>
</g>
<g>
	<path fill="#06A14B" stroke="#019547" stroke-width="1.2564" stroke-miterlimit="10" d="M22.992,32.107
		c0.158,0.041,0.348,0.012,0.511-0.1c0.27-0.184,0.365-0.514,0.212-0.736c-0.109-0.16-0.317-0.223-0.525-0.176
		c0.015-0.129-0.02-0.275-0.109-0.408c-0.168-0.246-0.463-0.34-0.659-0.205c-0.032,0.021-0.058,0.049-0.081,0.08
		c-0.16-0.059-0.344-0.043-0.494,0.059c-0.25,0.17-0.312,0.512-0.143,0.762c0.171,0.252,0.512,0.316,0.762,0.148
		c0.059-0.041,0.106-0.092,0.145-0.148c0.043,0.021,0.088,0.037,0.133,0.045c-0.035,0.062-0.057,0.125-0.066,0.191
		c-0.154-0.057-0.335-0.039-0.484,0.062c-0.241,0.164-0.31,0.484-0.152,0.713c0.156,0.23,0.478,0.283,0.719,0.121
		C22.901,32.417,22.982,32.263,22.992,32.107z"/>
	
		<ellipse transform="matrix(0.8273 -0.5617 0.5617 0.8273 -14.2597 18.7266)" fill="#06A14B" stroke="#019547" stroke-width="1.2564" stroke-miterlimit="10" cx="23.332" cy="32.559" rx="0.45" ry="0.36"/>
	
		<ellipse transform="matrix(0.8275 -0.5615 0.5615 0.8275 -13.9338 17.4207)" fill="#06A14B" stroke="#019547" stroke-width="1.2564" stroke-miterlimit="10" cx="21.385" cy="31.387" rx="0.266" ry="0.375"/>
	
		<ellipse transform="matrix(-0.5652 -0.8249 0.8249 -0.5652 7.6616 67.7147)" fill="#06A14B" stroke="#019547" stroke-width="1.2564" stroke-miterlimit="10" cx="21.675" cy="31.838" rx="0.16" ry="0.013"/>
</g>
<g>
	<path fill="#06A14B" stroke="#019547" stroke-width="0.8743" stroke-miterlimit="10" d="M15.904,27.894
		c0.119,0.01,0.234-0.031,0.307-0.125c0.12-0.152,0.077-0.387-0.096-0.521c-0.125-0.098-0.282-0.115-0.405-0.061
		c-0.032-0.09-0.103-0.186-0.203-0.266c-0.191-0.148-0.417-0.178-0.505-0.066c-0.014,0.018-0.021,0.041-0.027,0.062
		c-0.125-0.021-0.242,0.01-0.309,0.096c-0.111,0.141-0.043,0.379,0.15,0.531c0.195,0.15,0.441,0.158,0.553,0.016
		c0.025-0.033,0.041-0.072,0.049-0.115c0.035,0.01,0.07,0.016,0.102,0.016c-0.002,0.045,0.004,0.092,0.018,0.137
		c-0.119-0.021-0.234,0.01-0.301,0.096c-0.106,0.137-0.049,0.361,0.129,0.5s0.408,0.139,0.516,0.002
		C15.943,28.113,15.949,28,15.904,27.894z"/>
	
		<ellipse transform="matrix(0.6138 -0.7894 0.7894 0.6138 -15.9469 23.7242)" fill="#06A14B" stroke="#019547" stroke-width="0.8743" stroke-miterlimit="10" cx="16.275" cy="28.162" rx="0.27" ry="0.29"/>
	
		<ellipse transform="matrix(0.6127 -0.7903 0.7903 0.6127 -16.1418 22.2281)" fill="#06A14B" stroke="#019547" stroke-width="0.8743" stroke-miterlimit="10" cx="14.607" cy="27.583" rx="0.159" ry="0.304"/>
	
		<ellipse transform="matrix(-0.7896 -0.6137 0.6137 -0.7896 9.6496 59.019)" fill="#06A14B" stroke="#019547" stroke-width="0.8743" stroke-miterlimit="10" cx="14.944" cy="27.855" rx="0.13" ry="0.008"/>
</g>
<g>
	<path fill="#06A14B" stroke="#019547" stroke-width="1.0819" stroke-miterlimit="10" d="M33.765,25.99
		c0.107-0.092,0.177-0.24,0.177-0.412c0-0.281-0.188-0.508-0.421-0.508c-0.168,0-0.312,0.119-0.379,0.291
		c-0.086-0.074-0.207-0.123-0.344-0.123c-0.258,0-0.467,0.168-0.467,0.371c0,0.033,0.008,0.066,0.018,0.098
		c-0.119,0.084-0.197,0.223-0.197,0.381c0,0.26,0.213,0.469,0.474,0.469c0.262,0,0.474-0.209,0.474-0.469
		c0-0.062-0.013-0.121-0.035-0.176c0.037-0.02,0.068-0.045,0.097-0.072c0.026,0.053,0.062,0.102,0.104,0.139
		c-0.114,0.082-0.189,0.221-0.189,0.377c0,0.25,0.194,0.453,0.435,0.453c0.238,0,0.433-0.203,0.433-0.453
		C33.942,26.205,33.873,26.074,33.765,25.99z"/>
	
		<ellipse fill="#06A14B" stroke="#019547" stroke-width="1.0819" stroke-miterlimit="10" cx="34.251" cy="25.966" rx="0.31" ry="0.389"/>
	
		<ellipse fill="#06A14B" stroke="#019547" stroke-width="1.0819" stroke-miterlimit="10" cx="32.475" cy="26.786" rx="0.323" ry="0.229"/>
	
		<ellipse fill="#06A14B" stroke="#019547" stroke-width="1.0819" stroke-miterlimit="10" cx="32.937" cy="26.796" rx="0.138" ry="0.012"/>
</g>
<use xlink:href="#bush_2"  width="14.744" height="10.49" x="-7.372" y="-5.245" transform="matrix(0.2478 0 0 -0.2478 29.0952 28.4077)" overflow="visible"/>
<use xlink:href="#bush_2"  width="14.744" height="10.49" x="-7.372" y="-5.245" transform="matrix(0.2478 0 0 -0.2478 29.6382 27.9546)" overflow="visible"/>
<rect x="11.244" y="24.173" fill="#5A4B43" width="0.393" height="2.16"/>
<rect x="13.621" y="25.261" fill="#5A4B43" width="0.421" height="2.312"/>
<use xlink:href="#east_window_4"  width="8.328" height="22.975" x="-4.164" y="-11.487" transform="matrix(0.2478 0 0 -0.2478 26.8149 18.1045)" overflow="visible"/>
<use xlink:href="#east_window_4"  width="8.328" height="22.975" x="-4.164" y="-11.487" transform="matrix(0.2478 0 0 -0.2478 27.2495 23.9272)" overflow="visible"/>
<use xlink:href="#east_window_4"  width="8.328" height="22.975" x="-4.164" y="-11.487" transform="matrix(-0.2478 0 0 -0.2478 17.3071 14.6963)" overflow="visible"/>
<use xlink:href="#east_window_4"  width="8.328" height="22.975" x="-4.164" y="-11.487" transform="matrix(-0.2478 0 0 -0.2478 20.9907 16.6787)" overflow="visible"/>
<use xlink:href="#east_window_4"  width="8.328" height="22.975" x="-4.164" y="-11.487" transform="matrix(-0.2478 0 0 -0.2478 20.8237 23.6851)" overflow="visible"/>
<use xlink:href="#east_window_4"  width="8.328" height="22.975" x="-4.164" y="-11.487" transform="matrix(-0.2478 0 0 -0.2478 17.3101 22.0151)" overflow="visible"/>
<use xlink:href="#east_window_4"  width="8.328" height="22.975" x="-4.164" y="-11.487" transform="matrix(0.2478 0 0 -0.2478 30.7515 15.791)" overflow="visible"/>
<use xlink:href="#east_window_4"  width="8.328" height="22.975" x="-4.164" y="-11.487" transform="matrix(0.2478 0 0 -0.2478 30.7476 21.9233)" overflow="visible"/>
<use xlink:href="#basemnt_wndw_west_4"  width="11.49" height="17.687" x="-5.745" y="-8.844" transform="matrix(-0.1819 0 0 -0.1819 27.5288 28.5503)" overflow="visible"/>
<use xlink:href="#basemnt_wndw_west_4"  width="11.49" height="17.687" x="-5.745" y="-8.844" transform="matrix(-0.1881 0 0 -0.1881 31.1812 26.3257)" overflow="visible"/>
<use xlink:href="#bush_2"  width="14.744" height="10.49" x="-7.372" y="-5.245" transform="matrix(0.2478 0 0 -0.2478 29.7271 27.7749)" overflow="visible"/>
<use xlink:href="#bush_2"  width="14.744" height="10.49" x="-7.372" y="-5.245" transform="matrix(0.2478 0 0 -0.2478 33.2729 25.9878)" overflow="visible"/>
<g>
	<path fill="#06A14B" stroke="#019547" stroke-width="0.8743" stroke-miterlimit="10" d="M19.998,30.107
		c0.119,0.014,0.234-0.029,0.307-0.121c0.121-0.154,0.077-0.389-0.096-0.523c-0.125-0.098-0.282-0.115-0.405-0.061
		c-0.032-0.09-0.102-0.186-0.203-0.266c-0.191-0.148-0.417-0.178-0.505-0.066c-0.014,0.018-0.021,0.039-0.027,0.064
		c-0.125-0.023-0.242,0.008-0.309,0.094c-0.111,0.141-0.043,0.379,0.15,0.529c0.195,0.152,0.441,0.16,0.553,0.018
		c0.026-0.033,0.042-0.072,0.049-0.115c0.035,0.01,0.07,0.016,0.102,0.016c-0.002,0.045,0.004,0.092,0.018,0.137
		c-0.119-0.021-0.234,0.012-0.301,0.096c-0.107,0.137-0.049,0.361,0.129,0.498c0.178,0.141,0.408,0.141,0.516,0.004
		C20.038,30.328,20.042,30.216,19.998,30.107z"/>
	
		<ellipse transform="matrix(0.6138 -0.7894 0.7894 0.6138 -16.1144 27.8113)" fill="#06A14B" stroke="#019547" stroke-width="0.8743" stroke-miterlimit="10" cx="20.369" cy="30.376" rx="0.27" ry="0.292"/>
	
		<ellipse transform="matrix(0.6127 -0.7903 0.7903 0.6127 -16.3067 26.3214)" fill="#06A14B" stroke="#019547" stroke-width="0.8743" stroke-miterlimit="10" cx="18.701" cy="29.797" rx="0.159" ry="0.305"/>
	
		<ellipse transform="matrix(-0.7896 -0.6137 0.6137 -0.7896 15.6164 65.4949)" fill="#06A14B" stroke="#019547" stroke-width="0.8743" stroke-miterlimit="10" cx="19.038" cy="30.07" rx="0.13" ry="0.008"/>
</g>
<use xlink:href="#New_Symbol_3"  width="7.353" height="9.294" x="-3.676" y="-4.647" transform="matrix(0.1353 0 0 -0.1353 13.4487 14.6582)" overflow="visible"/>
<polygon fill="#C2B59C" points="23.784,15.037 34.295,8.922 29.974,0 19.678,5.951 "/>
</svg>
