<?xml version="1.0" encoding="utf-8"?>
<!-- Generator: Adobe Illustrator 16.0.4, SVG Export Plug-In . SVG Version: 6.00 Build 0)  -->
<!DOCTYPE svg PUBLIC "-//W3C//DTD SVG 1.1//EN" "http://www.w3.org/Graphics/SVG/1.1/DTD/svg11.dtd">
<svg version="1.1" id="Layer_1" xmlns="http://www.w3.org/2000/svg" xmlns:xlink="http://www.w3.org/1999/xlink" x="0px" y="0px"
	 width="41.338px" height="37.785px" viewBox="0 0 41.338 37.785" enable-background="new 0 0 41.338 37.785" xml:space="preserve">
<g>
	<polygon fill="#B3B5B8" points="0,25.857 20.668,37.785 41.338,25.857 20.662,13.924 	"/>
	<g>
		<path fill="none" stroke="#010101" stroke-width="0.1966" stroke-miterlimit="10" d="M34.725,26.827"/>
		<g>
			<polygon fill="#134151" points="17.157,19.94 30.928,11.989 26.207,6.773 			"/>
			<polygon fill="#3A91CF" points="20.594,33.862 6.613,25.79 6.823,10 12.222,13.111 10.261,15.964 17.157,19.94 17.157,27.9 
				20.594,25.911 			"/>
			<polygon fill="#1D6383" points="17.157,19.94 26.207,6.773 14.022,0 6.823,10 12.222,13.111 10.261,15.964 			"/>
			<g>
				<polygon fill="#134151" points="7.189,26.124 14.311,30.093 14.311,24.05 7.188,20.08 				"/>
				
					<line fill="none" stroke="#FFFFFF" stroke-width="0.5009" stroke-miterlimit="10" x1="7.189" y1="22.086" x2="14.311" y2="26.197"/>
				
					<line fill="none" stroke="#FFFFFF" stroke-width="0.5009" stroke-miterlimit="10" x1="7.189" y1="24.141" x2="14.311" y2="28.252"/>
				
					<line fill="none" stroke="#FFFFFF" stroke-width="0.5009" stroke-miterlimit="10" x1="8.538" y1="26.885" x2="8.538" y2="20.833"/>
				
					<line fill="none" stroke="#FFFFFF" stroke-width="0.5009" stroke-miterlimit="10" x1="10.554" y1="28.113" x2="10.554" y2="22.061"/>
				
					<line fill="none" stroke="#FFFFFF" stroke-width="0.5009" stroke-miterlimit="10" x1="12.745" y1="29.224" x2="12.745" y2="23.17"/>
			</g>
			<polygon fill="#134151" points="16.473,31.478 19.083,32.981 19.083,26.967 16.472,25.464 			"/>
			<polygon fill="#1D6383" points="20.594,33.862 20.594,25.911 17.157,27.9 17.157,19.94 30.928,11.989 30.928,27.9 			"/>
			<polygon fill="#1F77A8" points="17.157,27.9 17.157,19.94 10.261,15.966 10.261,23.924 			"/>
			<polygon fill="#1D6383" points="12.209,23.901 14.311,25.112 14.311,20.27 12.208,19.058 			"/>
			<polygon fill="#3A91CF" points="22.704,23.484 20.602,24.695 20.602,19.853 22.705,18.642 			"/>
			<polygon fill="#3A91CF" points="28.307,20.457 26.207,21.668 26.207,16.825 28.309,15.613 			"/>
			<polygon fill="#1D6383" points="7.488,17.782 9.589,18.994 9.589,14.15 7.487,12.939 			"/>
		</g>
	</g>
</g>
</svg>
