<?xml version="1.0" encoding="utf-8"?>
<!-- Generator: Adobe Illustrator 16.0.4, SVG Export Plug-In . SVG Version: 6.00 Build 0)  -->
<!DOCTYPE svg PUBLIC "-//W3C//DTD SVG 1.1//EN" "http://www.w3.org/Graphics/SVG/1.1/DTD/svg11.dtd">
<svg version="1.1" id="Layer_1" xmlns="http://www.w3.org/2000/svg" xmlns:xlink="http://www.w3.org/1999/xlink" x="0px" y="0px"
	 width="117.605px" height="73.774px" viewBox="0 0 117.605 73.774" enable-background="new 0 0 117.605 73.774"
	 xml:space="preserve">
<g>
	<polygon fill="#009444" points="28.396,50.609 23.775,47.941 19.153,50.609 23.775,53.272 	"/>
	<path fill="#603913" d="M24.264,50.448c-0.769,0.563-1.076,0-1.076,0v-3.354l0.539-0.059
		C23.727,47.035,24.086,49.556,24.264,50.448z"/>
	<ellipse fill="#009444" cx="24.264" cy="46.925" rx="1.591" ry="1.288"/>
	<ellipse fill="#39B54A" cx="22.134" cy="46.427" rx="1.591" ry="1.287"/>
	<ellipse fill="#009444" cx="23.593" cy="45.729" rx="1.591" ry="1.286"/>
	<ellipse fill="#009444" cx="22.825" cy="47.22" rx="1.591" ry="1.288"/>
	<ellipse fill="#39B54A" cx="23.966" cy="46.561" rx="1.293" ry="1.048"/>
	<polygon fill="#006838" points="0,39.822 58.809,73.774 117.605,39.832 57.885,5.977 	"/>
	<g>
		<polygon fill="#006838" points="47.381,20.33 42.208,17.344 37.035,20.33 42.207,23.312 		"/>
		<path fill="#603913" d="M42.85,20.382c-1.659,1.212-2.322,0-2.322,0v-7.225l1.161-0.126C41.688,13.031,42.465,18.459,42.85,20.382
			z"/>
		<ellipse fill="#009444" cx="42.85" cy="12.795" rx="3.436" ry="2.771"/>
		<ellipse fill="#39B54A" cx="38.252" cy="11.725" rx="3.435" ry="2.771"/>
		<ellipse fill="#009444" cx="41.402" cy="10.224" rx="3.435" ry="2.771"/>
		<ellipse fill="#009444" cx="39.742" cy="13.43" rx="3.436" ry="2.771"/>
		<ellipse fill="#39B54A" cx="42.207" cy="12.01" rx="2.793" ry="2.253"/>
	</g>
	<g>
		<polygon fill="#006838" points="40.246,24.332 35.074,21.346 29.9,24.332 35.073,27.312 		"/>
		<path fill="#603913" d="M36.388,24.471c-1.659,1.211-2.323,0-2.323,0v-7.225l1.162-0.127
			C35.227,17.119,36.004,22.547,36.388,24.471z"/>
		<ellipse fill="#009444" cx="36.387" cy="16.883" rx="3.435" ry="2.771"/>
		<ellipse fill="#39B54A" cx="31.791" cy="15.812" rx="3.436" ry="2.771"/>
		<ellipse fill="#009444" cx="34.939" cy="14.312" rx="3.436" ry="2.771"/>
		<ellipse fill="#009444" cx="33.281" cy="17.518" rx="3.435" ry="2.771"/>
		<ellipse fill="#39B54A" cx="35.746" cy="16.098" rx="2.793" ry="2.253"/>
	</g>
	<g>
		<polygon fill="#006838" points="33.082,28.562 27.909,25.575 22.736,28.562 27.908,31.543 		"/>
		<path fill="#603913" d="M29.223,28.7c-1.658,1.212-2.322,0-2.322,0v-7.225l1.162-0.126C28.062,21.35,28.839,26.777,29.223,28.7z"
			/>
		<ellipse fill="#009444" cx="29.223" cy="21.113" rx="3.436" ry="2.771"/>
		<ellipse fill="#39B54A" cx="24.626" cy="20.043" rx="3.435" ry="2.771"/>
		<ellipse fill="#009444" cx="27.775" cy="18.542" rx="3.436" ry="2.771"/>
		<ellipse fill="#009444" cx="26.116" cy="21.748" rx="3.435" ry="2.771"/>
		<ellipse fill="#39B54A" cx="28.581" cy="20.328" rx="2.793" ry="2.253"/>
	</g>
	<g>
		<polygon fill="#006838" points="26.498,32.217 21.326,29.23 16.152,32.217 21.325,35.199 		"/>
		<path fill="#603913" d="M22.64,32.355c-1.659,1.213-2.323,0-2.323,0v-7.225l1.162-0.125C21.479,25.006,22.256,30.434,22.64,32.355
			z"/>
		<ellipse fill="#009444" cx="22.639" cy="24.77" rx="3.435" ry="2.771"/>
		<ellipse fill="#39B54A" cx="18.043" cy="23.699" rx="3.436" ry="2.771"/>
		<ellipse fill="#009444" cx="21.191" cy="22.197" rx="3.436" ry="2.77"/>
		<ellipse fill="#009444" cx="19.533" cy="25.404" rx="3.435" ry="2.771"/>
		<ellipse fill="#39B54A" cx="21.998" cy="23.984" rx="2.793" ry="2.254"/>
	</g>
	<g>
		<polygon fill="#006838" points="21.208,36.562 15.805,33.26 10.11,36.033 15.515,39.331 		"/>
		<path fill="#603913" d="M17.062,36.506c-1.839,1.148-2.492-0.119-2.492-0.119l0.352-7.35l1.252-0.067
			C16.174,28.97,16.743,34.531,17.062,36.506z"/>
		
			<ellipse transform="matrix(-0.9989 -0.0478 0.0478 -0.9989 33.4657 58.3772)" fill="#009444" cx="17.431" cy="28.789" rx="3.689" ry="2.822"/>
		
			<ellipse transform="matrix(-0.9989 -0.0478 0.0478 -0.9989 23.7768 55.4971)" fill="#39B54A" cx="12.552" cy="27.464" rx="3.689" ry="2.821"/>
		
			<ellipse transform="matrix(-0.9989 -0.0476 0.0476 -0.9989 30.7432 52.9301)" fill="#009444" cx="16.002" cy="26.099" rx="3.689" ry="2.822"/>
		
			<ellipse transform="matrix(-0.9989 -0.0476 0.0476 -0.9989 26.7229 59.1878)" fill="#009444" cx="14.067" cy="29.275" rx="3.689" ry="2.824"/>
		
			<ellipse transform="matrix(-0.9989 -0.0477 0.0477 -0.9989 32.2073 56.6815)" fill="#39B54A" cx="16.78" cy="27.957" rx="3" ry="2.295"/>
	</g>
	<g>
		<polygon fill="#006838" points="13.502,40.43 7.959,37.46 2.415,40.43 7.959,43.396 		"/>
		<path fill="#603913" d="M9.367,40.568c-1.778,1.205-2.489,0-2.489,0v-7.186l1.245-0.126C8.123,33.257,8.955,38.655,9.367,40.568z"
			/>
		<ellipse fill="#009444" cx="9.367" cy="33.021" rx="3.682" ry="2.756"/>
		<ellipse fill="#39B54A" cx="4.441" cy="31.957" rx="3.681" ry="2.756"/>
		<ellipse fill="#009444" cx="7.815" cy="30.465" rx="3.681" ry="2.756"/>
		<ellipse fill="#009444" cx="6.037" cy="33.653" rx="3.682" ry="2.757"/>
		<ellipse fill="#39B54A" cx="8.679" cy="32.24" rx="2.993" ry="2.24"/>
	</g>
	<polygon fill="#006838" points="56.789,64.979 97.951,41.213 97.963,29.33 	"/>
	<polygon fill="#8B5E3C" points="56.789,64.979 15.625,41.213 57.312,5.541 98.242,28.855 	"/>
	<path fill="#939598" d="M61.653,8.113c0,0-9.401,0.707-10.258,7.951c-0.457,3.875,11.799,4.201,11.808,8.061
		c0.016,6.014-21.5,5.205-23.578,5.672c-0.95,0.215-19.893,3.104-11.65,18.545l12.341,7.126
		c-16.461-19.015,8.038-20.323,8.038-20.323c39.873-5.498,18.353-15.334,18.353-15.334c-5.8-3.451-11.248-2.586-11.78-5.139
		c-0.793-3.801,8.999-5.271,8.999-5.271L61.653,8.113z"/>
	<path fill="#82C341" d="M65.357,10.76c0,0-5.574-0.479-7.284,1.965S64.303,17,66.624,17s9.528,4.398,7.94,7.574
		s11.44,2.76,10.607-2.529L65.357,10.76z"/>
	<path fill="#006838" d="M65.357,8.6c0,0-5.574-0.479-7.284,1.965s6.229,4.275,8.551,4.275s9.528,4.398,7.94,7.574
		s11.44,2.76,10.607-2.529L65.357,8.6z"/>
	<path fill="#006838" d="M73.586,24.42c0,0-3.299,8.885-18.08,8.291s-2.199,5.377,4.398,5.629c6.596,0.25,12.83,1.824,16.614,0
		C80.304,36.514,88.366,25.643,73.586,24.42z"/>
	<path fill="#82C341" d="M82.135,30.1c-0.074,3.398-3.508,7.223-5.617,8.24c-3.785,1.824-10.019,0.25-16.615,0
		c-2.893-0.111-8.896-3.037-11.28-4.312c-0.015,3.891,6.832,6.828,12.138,7.031c6.596,0.25,12.83,1.824,16.615,0
		C80.082,39.752,84.977,33.818,82.135,30.1z"/>
	<path fill="#82C341" d="M43.043,56.034c0,0-7.691-9.503-5.98-13.411c1.71-3.91,5.985-7.209,9.283-5.01
		c3.299,2.199,9.248,6.844,14.904,4.887c5.656-1.959,9.073,1.955,11.255,4.52S60.873,63.95,43.043,56.034z"/>
	<path fill="#006838" d="M43.043,53.661c0,0-7.691-9.505-5.98-13.413c1.71-3.91,5.985-7.209,9.283-5.01
		c3.299,2.199,9.248,6.846,14.904,4.887s9.073,1.955,11.255,4.52C74.687,47.211,60.873,61.575,43.043,53.661z"/>
	<path fill="#82C341" d="M36.035,28.414c0,0,7.99,0.785,15.075-1.834c7.085-2.617,8.811-2.418,6.724-4.693
		c-2.086-2.275-7.407-1.711-9.533-3.664C46.174,16.268,33.47,25.9,36.035,28.414z"/>
	<path fill="#006838" d="M36.035,25.471c0,0,7.99,0.787,15.075-1.832c7.085-2.617,8.811-2.418,6.724-4.695
		c-2.086-2.273-7.407-1.709-9.533-3.664C46.174,13.326,33.47,22.959,36.035,25.471z"/>
	<path fill="#82C341" d="M19.105,41.059c0,0,2.479-5.367,6.797-8.057C30.221,30.316,25.701,42.639,19.105,41.059z"/>
	<path fill="#006838" d="M19.105,39.58c0,0,2.479-5.369,6.797-8.057S25.701,41.16,19.105,39.58z"/>
	<path fill="#82C341" d="M87.146,24.207c0,0-6.196,6.006-0.978,8.41C91.39,35.023,98.752,29.717,87.146,24.207z"/>
	<path fill="#006838" d="M87.146,22.078c0,0-6.196,6.006-0.978,8.41C91.39,32.893,98.752,27.588,87.146,22.078z"/>
	<g>
		<ellipse fill="#39B54A" cx="52.959" cy="4.271" rx="3.436" ry="2.77"/>
		<ellipse fill="#009444" cx="54.449" cy="5.977" rx="3.436" ry="2.771"/>
		<ellipse fill="#009444" cx="57.556" cy="5.342" rx="3.435" ry="2.77"/>
		<ellipse fill="#009444" cx="56.108" cy="2.771" rx="3.435" ry="2.771"/>
		<ellipse fill="#39B54A" cx="56.914" cy="4.557" rx="2.793" ry="2.252"/>
	</g>
	<g>
		<ellipse fill="#009444" cx="47.766" cy="9.837" rx="3.436" ry="2.771"/>
		<ellipse fill="#009444" cx="50.873" cy="9.202" rx="3.436" ry="2.771"/>
		<ellipse fill="#39B54A" cx="46.276" cy="8.132" rx="3.435" ry="2.771"/>
		<ellipse fill="#009444" cx="49.425" cy="6.631" rx="3.435" ry="2.771"/>
		<ellipse fill="#39B54A" cx="50.23" cy="8.417" rx="2.793" ry="2.253"/>
	</g>
	<g>
		<path fill="#9B8579" d="M100.841,32.156l-2.464-1.424c0,0-1.908,0.24-2.465,1.424c-0.557,1.183,2.465,1.42,2.465,1.42
			L100.841,32.156z"/>
		<path fill="#603913" d="M98.936,31.867c-0.706,0.592-0.951,0.17-1.107,0c0.951-15.41-0.139-18.871-0.139-18.871l0.553-0.283
			c0,0,0.51,14.168,0.693,18.5"/>
		<polygon fill="#39B54A" points="97.689,12.877 96.603,13.408 96.094,14.611 95.301,15.242 95.754,14.422 95.811,12.902 
			96.941,12.396 		"/>
		<polygon fill="#39B54A" points="98.242,12.617 97.672,11.369 96.882,11.133 96.785,12.033 96.239,12.5 95.696,12.24 
			95.268,13.084 95.086,14.137 95.633,12.969 96.118,13.084 96.239,13.668 97.09,12.969 		"/>
		<polygon fill="#39B54A" points="97.514,12.951 98.698,11.686 99.068,12.002 99.49,12.713 100.518,13.188 99.29,13.268 
			98.625,12.793 		"/>
		<polygon fill="#39B54A" points="97.68,12.676 98.207,11.156 98.604,11.355 99.514,11.711 100.463,11.801 99.191,12.49 
			98.509,12.225 		"/>
	</g>
	<g>
		<polygon fill="#006838" points="15.405,43.387 11.268,40.836 7.131,43.387 11.268,45.932 		"/>
		<path fill="#603913" d="M11.898,43.597c-0.795,0.386-1.045-0.043-1.045-0.043l-0.429-10.413l0.929-0.176
			C11.354,32.965,11.592,40.916,11.898,43.597z"/>
		<path fill="#009444" d="M13.342,39.672c-1.857-2.576-2.508-5.81-2.508-5.81s-1.142,5.193-2.383,5.81
			C9.779,40.525,11.617,41.334,13.342,39.672z"/>
		<path fill="#39B54A" d="M13.342,37.062c-1.857-2.575-2.508-5.81-2.508-5.81s-1.142,5.193-2.383,5.81
			C9.779,37.915,11.617,38.724,13.342,37.062z"/>
		<path fill="#8DC63F" d="M13.342,34.66c-1.857-2.576-2.508-5.81-2.508-5.81s-1.142,5.194-2.383,5.81
			C9.779,35.514,11.617,36.322,13.342,34.66z"/>
	</g>
	<g>
		<polygon fill="#006838" points="19.542,45.562 15.405,43.05 11.268,45.562 15.405,48.071 		"/>
		<path fill="#603913" d="M16.035,45.77c-0.795,0.38-1.044-0.042-1.044-0.042l-0.429-10.263l0.928-0.174
			C15.49,35.291,15.729,43.128,16.035,45.77z"/>
		<path fill="#009444" d="M17.479,41.902c-1.857-2.539-2.508-5.726-2.508-5.726s-1.141,5.118-2.382,5.726
			C13.916,42.743,15.754,43.54,17.479,41.902z"/>
		<path fill="#39B54A" d="M17.479,39.33c-1.857-2.539-2.508-5.725-2.508-5.725s-1.141,5.117-2.382,5.725
			C13.916,40.172,15.754,40.968,17.479,39.33z"/>
		<path fill="#8DC63F" d="M17.479,36.963c-1.857-2.539-2.508-5.726-2.508-5.726s-1.141,5.119-2.382,5.726
			C13.916,37.805,15.754,38.602,17.479,36.963z"/>
	</g>
	<g>
		<polygon fill="#006838" points="23.613,48.071 19.477,45.53 15.339,48.071 19.477,50.609 		"/>
		<path fill="#603913" d="M20.107,48.281c-0.797,0.385-1.045-0.043-1.045-0.043l-0.43-10.379l0.929-0.176
			C19.562,37.684,19.8,45.609,20.107,48.281z"/>
		<path fill="#009444" d="M21.55,44.369c-1.857-2.566-2.508-5.79-2.508-5.79s-1.142,5.176-2.382,5.79
			C17.987,45.22,19.825,46.026,21.55,44.369z"/>
		<path fill="#39B54A" d="M21.55,41.768c-1.857-2.566-2.508-5.789-2.508-5.789s-1.142,5.175-2.382,5.789
			C17.987,42.619,19.825,43.426,21.55,41.768z"/>
		<path fill="#8DC63F" d="M21.55,39.375c-1.857-2.569-2.508-5.791-2.508-5.791s-1.142,5.177-2.382,5.791
			C17.987,40.226,19.825,41.031,21.55,39.375z"/>
	</g>
	<g>
		<polygon fill="#006838" points="114.367,40.082 109.182,37.116 104.021,40.123 109.206,43.084 		"/>
		<path fill="#603913" d="M110.509,40.236c-1.654,1.219-2.323,0.01-2.323,0.01l-0.028-7.225l1.161-0.131
			C109.318,32.891,110.117,38.314,110.509,40.236z"/>
		
			<ellipse transform="matrix(-1 0.0041 -0.0041 -1 221.0907 64.8422)" fill="#009444" cx="110.479" cy="32.649" rx="3.436" ry="2.77"/>
		
			<ellipse transform="matrix(-1 0.004 -0.004 -1 211.8788 62.7737)" fill="#39B54A" cx="105.877" cy="31.598" rx="3.436" ry="2.771"/>
		
			<ellipse transform="matrix(-1 0.004 -0.004 -1 218.1589 59.7338)" fill="#009444" cx="109.02" cy="30.084" rx="3.435" ry="2.771"/>
		
			<ellipse transform="matrix(-1 0.004 -0.004 -1 214.8787 66.1661)" fill="#009444" cx="107.374" cy="33.297" rx="3.435" ry="2.772"/>
		
			<ellipse transform="matrix(-1 0.004 -0.004 -1 219.7923 63.2916)" fill="#39B54A" cx="109.833" cy="31.867" rx="2.793" ry="2.253"/>
	</g>
	<g>
		<polygon fill="#006838" points="107.713,44.092 102.527,41.126 97.367,44.134 102.552,47.095 		"/>
		<path fill="#603913" d="M103.854,44.246c-1.654,1.219-2.323,0.01-2.323,0.01l-0.028-7.225l1.161-0.131
			C102.664,36.9,103.463,42.324,103.854,44.246z"/>
		
			<ellipse transform="matrix(-1 0.0041 -0.0041 -1 207.7986 72.8891)" fill="#009444" cx="103.824" cy="36.659" rx="3.436" ry="2.77"/>
		
			<ellipse transform="matrix(-1 0.004 -0.004 -1 198.5862 70.8197)" fill="#39B54A" cx="99.223" cy="35.607" rx="3.436" ry="2.771"/>
		
			<ellipse transform="matrix(-1 0.004 -0.004 -1 204.8663 67.7798)" fill="#009444" cx="102.366" cy="34.094" rx="3.435" ry="2.771"/>
		
			<ellipse transform="matrix(-1 0.004 -0.004 -1 201.5862 74.2121)" fill="#009444" cx="100.719" cy="37.307" rx="3.435" ry="2.772"/>
		
			<ellipse transform="matrix(-1 0.004 -0.004 -1 206.4998 71.3378)" fill="#39B54A" cx="103.178" cy="35.876" rx="2.793" ry="2.253"/>
	</g>
	<g>
		<polygon fill="#006838" points="101.07,47.819 95.886,44.854 90.725,47.861 95.909,50.822 		"/>
		<path fill="#603913" d="M97.213,47.974c-1.654,1.219-2.323,0.01-2.323,0.01l-0.029-7.225l1.161-0.131
			C96.021,40.628,96.82,46.053,97.213,47.974z"/>
		<ellipse transform="matrix(-1 0.004 -0.004 -1 194.5232 80.3864)" fill="#009444" cx="97.182" cy="40.387" rx="3.436" ry="2.77"/>
		
			<ellipse transform="matrix(-1 0.0041 -0.0041 -1 185.3225 78.2889)" fill="#39B54A" cx="92.581" cy="39.335" rx="3.435" ry="2.771"/>
		
			<ellipse transform="matrix(-1 0.0041 -0.0041 -1 191.6014 75.2486)" fill="#009444" cx="95.723" cy="37.822" rx="3.435" ry="2.771"/>
		
			<ellipse transform="matrix(-1 0.004 -0.004 -1 188.3178 81.6936)" fill="#009444" cx="94.078" cy="41.034" rx="3.435" ry="2.772"/>
		
			<ellipse transform="matrix(-1 0.0038 -0.0038 -1 193.2248 78.8375)" fill="#39B54A" cx="96.537" cy="39.604" rx="2.793" ry="2.253"/>
	</g>
	<g>
		<polygon fill="#006838" points="94.662,51.421 89.479,48.456 84.317,51.463 89.502,54.424 		"/>
		<path fill="#603913" d="M90.805,51.575c-1.654,1.219-2.322,0.01-2.322,0.01l-0.029-7.225l1.161-0.131
			C89.614,44.229,90.413,49.654,90.805,51.575z"/>
		
			<ellipse transform="matrix(-1 0.004 -0.004 -1 181.7222 87.6149)" fill="#009444" cx="90.774" cy="43.988" rx="3.435" ry="2.771"/>
		
			<ellipse transform="matrix(-1 0.0041 -0.0041 -1 172.5229 85.5184)" fill="#39B54A" cx="86.173" cy="42.937" rx="3.435" ry="2.771"/>
		
			<ellipse transform="matrix(-1 0.0041 -0.0041 -1 178.8028 82.4762)" fill="#009444" cx="89.316" cy="41.422" rx="3.436" ry="2.77"/>
		<ellipse transform="matrix(-1 0.004 -0.004 -1 175.5168 88.9222)" fill="#009444" cx="87.67" cy="44.636" rx="3.436" ry="2.772"/>
		
			<ellipse transform="matrix(-1 0.0038 -0.0038 -1 180.4233 86.0651)" fill="#39B54A" cx="90.129" cy="43.206" rx="2.793" ry="2.253"/>
	</g>
	<g>
		<polygon fill="#006838" points="88.537,55.141 83.353,52.176 78.191,55.183 83.376,58.144 		"/>
		<path fill="#603913" d="M84.679,55.295c-1.654,1.219-2.322,0.01-2.322,0.01l-0.029-7.225l1.161-0.131
			C83.488,47.949,84.287,53.374,84.679,55.295z"/>
		
			<ellipse transform="matrix(-1 0.004 -0.004 -1 169.4861 95.0788)" fill="#009444" cx="84.648" cy="47.708" rx="3.436" ry="2.771"/>
		
			<ellipse transform="matrix(-1 0.004 -0.004 -1 160.2788 92.9936)" fill="#39B54A" cx="80.047" cy="46.656" rx="3.436" ry="2.771"/>
		<ellipse transform="matrix(-1 0.004 -0.004 -1 166.5589 89.9537)" fill="#009444" cx="83.19" cy="45.143" rx="3.435" ry="2.77"/>
		<ellipse transform="matrix(-1 0.004 -0.004 -1 163.2787 96.386)" fill="#009444" cx="81.543" cy="48.355" rx="3.435" ry="2.772"/>
		
			<ellipse transform="matrix(-1 0.004 -0.004 -1 168.1938 93.5124)" fill="#39B54A" cx="84.003" cy="46.925" rx="2.793" ry="2.252"/>
	</g>
	<g>
		<polygon fill="#006838" points="81.644,59.143 76.459,56.177 71.298,59.185 76.482,62.145 		"/>
		<path fill="#603913" d="M77.785,59.297c-1.654,1.219-2.322,0.01-2.322,0.01l-0.029-7.225l1.162-0.131
			C76.596,51.951,77.394,57.376,77.785,59.297z"/>
		<ellipse transform="matrix(-1 0.004 -0.004 -1 155.7159 103.11)" fill="#009444" cx="77.755" cy="51.71" rx="3.435" ry="2.771"/>
		
			<ellipse transform="matrix(-1 0.004 -0.004 -1 146.5096 101.0249)" fill="#39B54A" cx="73.154" cy="50.658" rx="3.436" ry="2.771"/>
		<ellipse transform="matrix(-1 0.004 -0.004 -1 152.7887 97.985)" fill="#009444" cx="76.297" cy="49.145" rx="3.436" ry="2.771"/>
		
			<ellipse transform="matrix(-1 0.004 -0.004 -1 149.5085 104.4174)" fill="#009444" cx="74.65" cy="52.357" rx="3.436" ry="2.772"/>
		
			<ellipse transform="matrix(-1 0.004 -0.004 -1 154.4229 101.544)" fill="#39B54A" cx="77.109" cy="50.927" rx="2.793" ry="2.252"/>
	</g>
	<g>
		<polygon fill="#006838" points="75.197,62.901 70.014,59.936 64.852,62.943 70.037,65.903 		"/>
		<path fill="#603913" d="M71.34,63.056c-1.654,1.219-2.322,0.01-2.322,0.01l-0.029-7.225l1.161-0.131
			C70.149,55.71,70.947,61.135,71.34,63.056z"/>
		
			<ellipse transform="matrix(-1 0.004 -0.004 -1 142.8384 110.6532)" fill="#009444" cx="71.309" cy="55.469" rx="3.435" ry="2.771"/>
		
			<ellipse transform="matrix(-1 0.004 -0.004 -1 133.6331 108.5681)" fill="#39B54A" cx="66.708" cy="54.417" rx="3.435" ry="2.771"/>
		
			<ellipse transform="matrix(-1 0.004 -0.004 -1 139.9121 105.5282)" fill="#009444" cx="69.851" cy="52.903" rx="3.435" ry="2.771"/>
		
			<ellipse transform="matrix(-1 0.004 -0.004 -1 136.6329 111.9605)" fill="#009444" cx="68.205" cy="56.116" rx="3.436" ry="2.772"/>
		
			<ellipse transform="matrix(-1 0.004 -0.004 -1 141.5474 109.0875)" fill="#39B54A" cx="70.664" cy="54.686" rx="2.793" ry="2.252"/>
	</g>
	<g>
		<polygon fill="#006838" points="68.781,66.502 63.598,63.536 58.436,66.544 63.621,69.504 		"/>
		<path fill="#603913" d="M64.924,66.656c-1.654,1.219-2.322,0.01-2.322,0.01l-0.029-7.225l1.16-0.131
			C63.732,59.311,64.531,64.735,64.924,66.656z"/>
		<ellipse transform="matrix(-1 0.004 -0.004 -1 130.0197 117.88)" fill="#009444" cx="64.893" cy="59.069" rx="3.436" ry="2.771"/>
		
			<ellipse transform="matrix(-1 0.004 -0.004 -1 120.8154 115.7947)" fill="#39B54A" cx="60.292" cy="58.018" rx="3.435" ry="2.771"/>
		
			<ellipse transform="matrix(-1 0.004 -0.004 -1 127.0945 112.7549)" fill="#009444" cx="63.435" cy="56.504" rx="3.435" ry="2.771"/>
		
			<ellipse transform="matrix(-1 0.004 -0.004 -1 123.8153 119.1872)" fill="#009444" cx="61.789" cy="59.717" rx="3.436" ry="2.772"/>
		
			<ellipse transform="matrix(-1 0.004 -0.004 -1 128.7299 116.3144)" fill="#39B54A" cx="64.248" cy="58.287" rx="2.793" ry="2.252"/>
	</g>
	<g>
		<g>
			<g>
				<polygon fill="#006838" points="20.754,50.338 23.607,48.697 26.461,50.338 23.608,51.976 				"/>
				<path fill="#603913" d="M22.883,50.414c0.916,0.666,1.281,0,1.281,0v-3.969l-0.641-0.069
					C23.523,46.376,23.094,49.358,22.883,50.414z"/>
				<ellipse fill="#009444" cx="22.883" cy="46.246" rx="1.895" ry="1.521"/>
				<ellipse fill="#39B54A" cx="25.419" cy="45.658" rx="1.896" ry="1.521"/>
				<ellipse fill="#009444" cx="23.681" cy="44.834" rx="1.895" ry="1.522"/>
				<ellipse fill="#009444" cx="24.597" cy="46.595" rx="1.896" ry="1.522"/>
				<ellipse fill="#39B54A" cx="23.237" cy="45.814" rx="1.541" ry="1.238"/>
			</g>
			<g>
				<polygon fill="#006838" points="24.441,52.459 27.295,50.818 30.148,52.459 27.295,54.097 				"/>
				<path fill="#603913" d="M26.57,52.535c0.914,0.666,1.28,0,1.28,0v-3.97l-0.64-0.069C27.211,48.496,26.781,51.479,26.57,52.535z"
					/>
				<ellipse fill="#009444" cx="26.569" cy="48.366" rx="1.896" ry="1.522"/>
				<ellipse fill="#39B54A" cx="29.105" cy="47.779" rx="1.895" ry="1.523"/>
				<ellipse fill="#009444" cx="27.368" cy="46.953" rx="1.896" ry="1.521"/>
				<ellipse fill="#009444" cx="28.283" cy="48.717" rx="1.895" ry="1.523"/>
				<ellipse fill="#39B54A" cx="26.924" cy="47.936" rx="1.541" ry="1.238"/>
			</g>
			<g>
				<polygon fill="#006838" points="28.594,54.704 31.447,53.064 34.301,54.704 31.447,56.342 				"/>
				<path fill="#603913" d="M30.723,54.781c0.916,0.665,1.281,0,1.281,0v-3.971l-0.641-0.068
					C31.363,50.742,30.935,53.725,30.723,54.781z"/>
				<ellipse fill="#009444" cx="30.723" cy="50.611" rx="1.895" ry="1.521"/>
				<ellipse fill="#39B54A" cx="33.259" cy="50.025" rx="1.896" ry="1.522"/>
				<ellipse fill="#009444" cx="31.521" cy="49.199" rx="1.895" ry="1.521"/>
				<ellipse fill="#009444" cx="32.437" cy="50.962" rx="1.895" ry="1.523"/>
				<ellipse fill="#39B54A" cx="31.077" cy="50.181" rx="1.542" ry="1.237"/>
			</g>
			<g>
				<polygon fill="#006838" points="32.747,56.95 35.601,55.31 38.454,56.95 35.601,58.589 				"/>
				<path fill="#603913" d="M34.876,57.027c0.915,0.666,1.28,0,1.28,0v-3.971l-0.641-0.069
					C35.516,52.987,35.088,55.971,34.876,57.027z"/>
				<ellipse fill="#009444" cx="34.875" cy="52.858" rx="1.895" ry="1.522"/>
				<ellipse fill="#39B54A" cx="37.412" cy="52.271" rx="1.895" ry="1.522"/>
				<ellipse fill="#009444" cx="35.674" cy="51.445" rx="1.895" ry="1.521"/>
				<ellipse fill="#009444" cx="36.59" cy="53.207" rx="1.895" ry="1.523"/>
				<ellipse fill="#39B54A" cx="35.23" cy="52.427" rx="1.541" ry="1.237"/>
			</g>
			<g>
				<polygon fill="#006838" points="36.899,59.195 39.753,57.555 42.607,59.195 39.754,60.833 				"/>
				<path fill="#603913" d="M39.028,59.271c0.915,0.667,1.282,0,1.282,0v-3.969l-0.642-0.07
					C39.669,55.232,39.24,58.216,39.028,59.271z"/>
				<ellipse fill="#009444" cx="39.028" cy="55.104" rx="1.896" ry="1.522"/>
				<ellipse fill="#39B54A" cx="41.564" cy="54.516" rx="1.895" ry="1.522"/>
				<ellipse fill="#009444" cx="39.827" cy="53.69" rx="1.896" ry="1.521"/>
				<ellipse fill="#009444" cx="40.743" cy="55.453" rx="1.895" ry="1.524"/>
				<ellipse fill="#39B54A" cx="39.383" cy="54.673" rx="1.541" ry="1.238"/>
			</g>
			<g>
				<polygon fill="#006838" points="41.053,61.442 43.906,59.801 46.76,61.442 43.906,63.08 				"/>
				<path fill="#603913" d="M43.182,61.519c0.914,0.665,1.281,0,1.281,0v-3.971l-0.641-0.067
					C43.822,57.48,43.393,60.461,43.182,61.519z"/>
				<ellipse fill="#009444" cx="43.181" cy="57.35" rx="1.896" ry="1.523"/>
				<ellipse fill="#39B54A" cx="45.717" cy="56.763" rx="1.895" ry="1.524"/>
				<ellipse fill="#009444" cx="43.98" cy="55.937" rx="1.895" ry="1.521"/>
				<ellipse fill="#009444" cx="44.896" cy="57.699" rx="1.896" ry="1.522"/>
				<ellipse fill="#39B54A" cx="43.535" cy="56.918" rx="1.541" ry="1.237"/>
			</g>
			<g>
				<polygon fill="#006838" points="45.205,63.688 48.059,62.046 50.912,63.688 48.059,65.325 				"/>
				<path fill="#603913" d="M47.334,63.764c0.916,0.666,1.281,0,1.281,0v-3.97l-0.641-0.068
					C47.975,59.726,47.546,62.706,47.334,63.764z"/>
				<ellipse fill="#009444" cx="47.333" cy="59.595" rx="1.895" ry="1.523"/>
				<ellipse fill="#39B54A" cx="49.87" cy="59.007" rx="1.896" ry="1.522"/>
				<ellipse fill="#009444" cx="48.133" cy="58.183" rx="1.896" ry="1.523"/>
				<ellipse fill="#009444" cx="49.048" cy="59.944" rx="1.896" ry="1.523"/>
				<ellipse fill="#39B54A" cx="47.688" cy="59.163" rx="1.541" ry="1.237"/>
			</g>
			<g>
				<polygon fill="#006838" points="49.358,65.933 52.212,64.293 55.066,65.933 52.212,67.571 				"/>
				<path fill="#603913" d="M51.486,66.01c0.916,0.665,1.281,0,1.281,0v-3.97l-0.641-0.069
					C52.127,61.971,51.699,64.952,51.486,66.01z"/>
				<ellipse fill="#009444" cx="51.487" cy="61.841" rx="1.895" ry="1.521"/>
				<ellipse fill="#39B54A" cx="54.022" cy="61.253" rx="1.896" ry="1.521"/>
				<ellipse fill="#009444" cx="52.286" cy="60.429" rx="1.895" ry="1.521"/>
				<ellipse fill="#009444" cx="53.201" cy="62.189" rx="1.895" ry="1.522"/>
				<ellipse fill="#39B54A" cx="51.841" cy="61.409" rx="1.541" ry="1.238"/>
			</g>
		</g>
		<g>
			<polygon fill="#006838" points="53.414,67.938 56.268,66.299 59.121,67.938 56.268,69.577 			"/>
			<path fill="#603913" d="M55.543,68.016c0.916,0.666,1.281,0,1.281,0v-3.969l-0.641-0.07
				C56.184,63.977,55.754,66.959,55.543,68.016z"/>
			<ellipse fill="#009444" cx="55.542" cy="63.848" rx="1.895" ry="1.522"/>
			<ellipse fill="#39B54A" cx="58.079" cy="63.26" rx="1.896" ry="1.522"/>
			<ellipse fill="#009444" cx="56.341" cy="62.435" rx="1.895" ry="1.521"/>
			<ellipse fill="#009444" cx="57.257" cy="64.195" rx="1.896" ry="1.522"/>
			<ellipse fill="#39B54A" cx="55.896" cy="63.414" rx="1.541" ry="1.237"/>
		</g>
		<g>
			<polygon fill="#006838" points="57.102,70.06 59.954,68.419 62.809,70.06 59.954,71.698 			"/>
			<path fill="#603913" d="M59.229,70.135c0.915,0.667,1.281,0,1.281,0v-3.968l-0.641-0.069
				C59.87,66.098,59.441,69.08,59.229,70.135z"/>
			<ellipse fill="#009444" cx="59.229" cy="65.968" rx="1.896" ry="1.523"/>
			<ellipse fill="#39B54A" cx="61.766" cy="65.38" rx="1.895" ry="1.522"/>
			<ellipse fill="#009444" cx="60.028" cy="64.555" rx="1.896" ry="1.521"/>
			<ellipse fill="#009444" cx="60.943" cy="66.316" rx="1.895" ry="1.522"/>
			<ellipse fill="#39B54A" cx="59.584" cy="65.537" rx="1.541" ry="1.239"/>
		</g>
	</g>
</g>
</svg>
