<?xml version="1.0" encoding="utf-8"?>
<!-- Generator: Adobe Illustrator 16.0.4, SVG Export Plug-In . SVG Version: 6.00 Build 0)  -->
<!DOCTYPE svg PUBLIC "-//W3C//DTD SVG 1.1//EN" "http://www.w3.org/Graphics/SVG/1.1/DTD/svg11.dtd">
<svg version="1.1" id="Layer_1" xmlns="http://www.w3.org/2000/svg" xmlns:xlink="http://www.w3.org/1999/xlink" x="0px" y="0px"
	 width="40.964px" height="23.535px" viewBox="-1.125 -0.375 40.964 23.535" enable-background="new -1.125 -0.375 40.964 23.535"
	 xml:space="preserve">
<polygon fill="#808285" points="-1.125,11.397 5.666,15.311 12.491,19.243 19.288,23.16 39.839,11.491 32.863,7.463 26.132,3.577 
	19.288,-0.375 "/>
<polygon fill="#D1D3D4" stroke="#D1D3D4" stroke-width="0.25" stroke-miterlimit="10" points="5.732,7.52 13.04,11.667 
	19.943,7.684 12.652,3.526 "/>
<path fill="#808285" stroke="#000000" stroke-miterlimit="10" d="M32.537,7.61"/>
<path fill="#808285" stroke="#000000" stroke-miterlimit="10" d="M11.986,19.584"/>
<polygon fill="#D1D3D4" stroke="#D1D3D4" stroke-width="0.25" stroke-miterlimit="10" points="19.471,7.433 5.818,15.326 
	12.595,19.213 26.146,11.334 "/>
<g>
	<path fill="none" d="M9.084,17.207"/>
	<g>
		<line fill="none" stroke="#FFF200" stroke-width="0.5" stroke-miterlimit="10" x1="9.408" y1="17.02" x2="9.084" y2="17.207"/>
		<path fill="none" stroke="#FFF200" stroke-width="0.5" stroke-miterlimit="10" d="M28.933,5.674"/>
		<polyline fill="none" stroke="#FFF200" stroke-width="0.5" stroke-miterlimit="10" stroke-dasharray="0.7284,0.7284" points="
			9.399,5.353 19.232,11.186 10.039,16.654 		"/>
	</g>
</g>
<g>
	<g>
		<path fill="none" stroke="#FFF200" stroke-width="0.5" stroke-miterlimit="10" stroke-dasharray="0.7284,0.7284" d="
			M30.482,15.351"/>
	</g>
</g>
<path fill="#808285" stroke="#000000" stroke-miterlimit="10" d="M12.202,19.477"/>
<g>
	<g>
		<path fill="none" d="M9.041,5.476"/>
	</g>
</g>
</svg>
