<?xml version="1.0" encoding="utf-8"?>
<!-- Generator: Adobe Illustrator 17.0.0, SVG Export Plug-In . SVG Version: 6.00 Build 0)  -->
<!DOCTYPE svg PUBLIC "-//W3C//DTD SVG 1.1//EN" "http://www.w3.org/Graphics/SVG/1.1/DTD/svg11.dtd">
<svg version="1.1" id="Layer_1" xmlns="http://www.w3.org/2000/svg" xmlns:xlink="http://www.w3.org/1999/xlink" x="0px" y="0px"
	 width="40.964px" height="23.535px" viewBox="0 0 40.964 23.535" enable-background="new 0 0 40.964 23.535" xml:space="preserve">
<polygon fill="#818285" points="40.964,11.763 34.174,7.85 27.348,3.917 20.551,0 0,11.669 6.976,15.697 13.707,19.583 
	20.551,23.535 "/>
<g>
	<path fill="#818285" stroke="#010101" stroke-miterlimit="10" d="M33.879,8.193"/>
	<path fill="#818285" stroke="#010101" stroke-miterlimit="10" d="M13.328,20.167"/>
	<polygon fill="#D2D3D4" stroke="#D2D3D4" stroke-width="0.25" stroke-miterlimit="10" points="27.452,4.243 7.153,15.879 
		13.922,19.78 34.127,8.097 	"/>
	<g>
		<line fill="none" x1="30.615" y1="6.091" x2="10.416" y2="17.767"/>
		<g>
			<line fill="none" stroke="#FCEE23" stroke-width="0.5" stroke-miterlimit="10" x1="10.74" y1="17.58" x2="10.416" y2="17.767"/>
			
				<line fill="none" stroke="#FCEE23" stroke-width="0.5" stroke-miterlimit="10" stroke-dasharray="0.7284,0.7284" x1="29.974" y1="6.46" x2="11.371" y2="17.215"/>
			<line fill="none" stroke="#FCEE23" stroke-width="0.5" stroke-miterlimit="10" x1="30.615" y1="6.091" x2="30.291" y2="6.278"/>
		</g>
	</g>
	<polygon fill="#D2D3D4" stroke="#D2D3D4" stroke-width="0.25" stroke-miterlimit="10" points="20.404,15.561 27.449,19.85 
		34.361,15.882 27.079,11.708 	"/>
	<g>
		<g>
			
				<line fill="none" stroke="#FCEE23" stroke-width="0.5" stroke-miterlimit="10" stroke-dasharray="0.7284,0.7284" x1="31.074" y1="17.85" x2="24.806" y2="14.05"/>
		</g>
	</g>
	<path fill="#818285" stroke="#010101" stroke-miterlimit="10" d="M13.544,20.06"/>
</g>
</svg>
