<?xml version="1.0" encoding="utf-8"?>
<!-- Generator: Adobe Illustrator 17.0.0, SVG Export Plug-In . SVG Version: 6.00 Build 0)  -->
<!DOCTYPE svg PUBLIC "-//W3C//DTD SVG 1.1//EN" "http://www.w3.org/Graphics/SVG/1.1/DTD/svg11.dtd">
<svg version="1.1" id="Layer_1" xmlns="http://www.w3.org/2000/svg" xmlns:xlink="http://www.w3.org/1999/xlink" x="0px" y="0px"
	 width="40.964px" height="23.535px" viewBox="0 0 40.964 23.535" enable-background="new 0 0 40.964 23.535" xml:space="preserve">
<polygon fill="#818285" points="20.413,23.535 27.257,19.583 33.988,15.697 40.964,11.669 20.413,0 13.616,3.917 6.79,7.85 
	0,11.763 "/>
<g>
	<path fill="#818285" stroke="#010101" stroke-miterlimit="10" d="M7.085,8.193"/>
	<path fill="#818285" stroke="#010101" stroke-miterlimit="10" d="M27.636,20.167"/>
	<polygon fill="#D2D3D4" stroke="#D2D3D4" stroke-width="0.25" stroke-miterlimit="10" points="6.837,8.097 27.042,19.78 
		33.811,15.879 13.512,4.243 	"/>
	<g>
		<line fill="none" x1="30.548" y1="17.767" x2="10.349" y2="6.091"/>
		<g>
			<line fill="none" stroke="#FCEE23" stroke-width="0.5" stroke-miterlimit="10" x1="30.548" y1="17.767" x2="30.224" y2="17.58"/>
			
				<line fill="none" stroke="#FCEE23" stroke-width="0.5" stroke-miterlimit="10" stroke-dasharray="0.7284,0.7284" x1="29.593" y1="17.215" x2="10.99" y2="6.46"/>
			<line fill="none" stroke="#FCEE23" stroke-width="0.5" stroke-miterlimit="10" x1="10.673" y1="6.278" x2="10.349" y2="6.091"/>
		</g>
	</g>
	<polygon fill="#D2D3D4" stroke="#D2D3D4" stroke-width="0.25" stroke-miterlimit="10" points="13.885,11.708 6.603,15.882 
		13.515,19.85 20.56,15.561 	"/>
	<g>
		<g>
			
				<line fill="none" stroke="#FCEE23" stroke-width="0.5" stroke-miterlimit="10" stroke-dasharray="0.7284,0.7284" x1="16.158" y1="14.05" x2="9.89" y2="17.85"/>
		</g>
	</g>
	<path fill="#818285" stroke="#010101" stroke-miterlimit="10" d="M27.42,20.06"/>
</g>
</svg>
