<?xml version="1.0" encoding="utf-8"?>
<!-- Generator: Adobe Illustrator 17.0.0, SVG Export Plug-In . SVG Version: 6.00 Build 0)  -->
<!DOCTYPE svg PUBLIC "-//W3C//DTD SVG 1.1//EN" "http://www.w3.org/Graphics/SVG/1.1/DTD/svg11.dtd">
<svg version="1.1" id="Layer_1" xmlns="http://www.w3.org/2000/svg" xmlns:xlink="http://www.w3.org/1999/xlink" x="0px" y="0px"
	 width="40.964px" height="23.535px" viewBox="-1.125 -0.375 40.964 23.535" enable-background="new -1.125 -0.375 40.964 23.535"
	 xml:space="preserve">
<polygon fill="#808285" points="39.839,11.388 33.049,7.475 26.223,3.542 19.426,-0.375 -1.125,11.294 5.851,15.322 12.582,19.208 
	19.426,23.16 "/>
<path fill="#808285" stroke="#000000" stroke-miterlimit="10" d="M6.177,15.175"/>
<path fill="#808285" stroke="#000000" stroke-miterlimit="10" d="M26.728,3.201"/>
<polygon fill="#D1D3D4" stroke="#D1D3D4" stroke-width="0.25" stroke-miterlimit="10" points="12.604,19.125 32.903,7.489 
	26.134,3.588 5.929,15.271 "/>
<g>
	<line fill="none" x1="9.441" y1="17.277" x2="29.64" y2="5.601"/>
	<g>
		<line fill="none" stroke="#FFF200" stroke-width="0.5" stroke-miterlimit="10" x1="29.316" y1="5.788" x2="29.64" y2="5.601"/>
		
			<line fill="none" stroke="#FFF200" stroke-width="0.5" stroke-miterlimit="10" stroke-dasharray="0.7284,0.7284" x1="10.082" y1="16.908" x2="28.685" y2="6.153"/>
		<line fill="none" stroke="#FFF200" stroke-width="0.5" stroke-miterlimit="10" x1="9.441" y1="17.277" x2="9.765" y2="17.09"/>
	</g>
</g>
<polygon fill="#D1D3D4" stroke="#D1D3D4" stroke-width="0.25" stroke-miterlimit="10" points="19.652,7.807 12.607,3.518 
	5.695,7.486 12.977,11.66 "/>
<g>
	<g>
		
			<line fill="none" stroke="#FFF200" stroke-width="0.5" stroke-miterlimit="10" stroke-dasharray="0.7284,0.7284" x1="8.982" y1="5.518" x2="15.25" y2="9.318"/>
	</g>
</g>
<path fill="#808285" stroke="#000000" stroke-miterlimit="10" d="M26.512,3.308"/>
</svg>
