<?xml version="1.0" encoding="UTF-8" standalone="no"?>
<!-- Created with Inkscape (http://www.inkscape.org/) -->
<svg id="svg10812" xmlns:rdf="http://www.w3.org/1999/02/22-rdf-syntax-ns#" xmlns="http://www.w3.org/2000/svg" height="1000" width="800" version="1.0" xmlns:cc="http://web.resource.org/cc/" xmlns:xlink="http://www.w3.org/1999/xlink" xmlns:dc="http://purl.org/dc/elements/1.1/">
 <defs id="defs10814">
  <marker id="StopM" refY="0.0" refX="0.0" orient="auto">
   <path id="path14456" d="M0,5.65v-11.3" transform="scale(0.4)" stroke="#000" stroke-width="1.0pt" fill="none"/>
  </marker>
 </defs>
 <metadata id="metadata10817">
  <rdf:RDF>
   <cc:Work rdf:about="">
    <dc:format>image/svg+xml</dc:format>
    <dc:type rdf:resource="http://purl.org/dc/dcmitype/StillImage"/>
   </cc:Work>
  </rdf:RDF>
 </metadata>
 <g id="layer1">
  <path id="path12615" stroke-linejoin="round" style="stroke-dasharray:none;" d="M384.11,186.96c3.86-0.45,9.59-0.35,14.1-0.35,7.23,0,13.89-2.66,20.9-3.93,14.07-2.56,28.46-4.65,42.68-6.07,6.79-0.68,18.61-2.99,25-1.07,3.29,0.98,8.37,0,11.96,0,4.76,0,10.74,1.86,14.64,4.46,3.03,2.02,7.74,2.76,10.54,5,1.17,0.94,2.18,1.95,3.57,1.25,0.44-0.22,1.38-1.35,1.96-1.79,0.78-0.58,1.89,0.54,2.86,0.54,1.86,0,1.56,0.31,2.68,1.43,0.28,0.28,0,2.44,0,2.86,0,1.48,1,1.9,1.79,3.21,0.59,0.99,0.71,1.1,0.71,2.5,0,1.11,0.16,2.07,0.36,2.86,0.3,1.21,0.08,2.29,0.35,3.39,0.28,1.09,1.79,0.29,1.79,1.61,0,0.22,1.4,1.98,1.61,2.14,0.58,0.44,1.02,1.56,1.43,1.96,0.57,0.58,0.7,1.05,1.07,1.79,0.79,1.58-0.87,1.79-1.97,1.79-1.3,0-2.19,0.17-3.39,0.17-0.6,0-1.97,0.55-2.68,0.9-0.87,0.43-2.22,0.33-3.03,0.53-1.18,0.3-2.56,0.55-3.58,0.72-0.87,0.14-2.01,0.32-2.85,0.53-1.07,0.27-2.05,0.65-3.04,0.9-0.59,0.14-0.18,2.83-0.18,3.57v3.57c0,1.07-0.93,1.98-1.6,2.32-1.03,0.51-2.81,0.25-3.93,0.54-1.17,0.29-2.57-0.06-3.75,0.17-0.33,0.07-2.46,0.64-3.04,1.08-0.67,0.5-2.36,0.53-3.39,0.53-1.4,0-2.45,0.54-3.75,0.54-0.99,0-2.06,0.49-2.86,0.89-1.39,0.69-2.63-0.44-3.39-0.89-1.09-0.66,1.3-2.37,1.43-2.5,0.76-0.76,0.89-1.23,0.89-2.5,0-0.6,1.48-2.25,1.79-2.86,0.71-1.43-0.72-1.79-1.79-1.79-0.88,0-2.32,1.21-3.21,1.43-1.07,0.27-2.31,0.27-3.4,0.54-1.14,0.28-2.8,0.19-3.93-0.18-0.73-0.25-1.17-1.17-1.6-1.61-0.88-0.87-1.65-0.88-1.97-2.14-0.02-0.08-2.22-1.07-2.68-1.25-0.86-0.35-1.2-0.84-2.14-1.07-0.93-0.23-1.71-0.54-3.03-0.54h-3.04c-0.77,0-2.16,0.18-3.21,0.18-1.7,0-2.77,0.72-4.47,0.72-1.44,0-2.85,0.11-4.28,0.35-1.3,0.22-2.6,0.9-3.93,0.9-1.22,0-3.52,0.71-5.18,0.71h-3.04c-1.5,0-2.51-0.23-3.21,0.71-0.21,0.28-2.92,0.67-3.22,0.72-1.03,0.17-2,0.36-3.03,0.36-0.57,0-0.87,0.04-1.43,0.17-0.3,0-0.6,0.12-0.89,0.18-0.89,0.18-1.41,0.72-2.5,0.72-1.11,0-2.29,1.62-2.68,2.14-0.27,0.36-1.66,0.95-2.14,1.07-1.13,0.28-1.88,0.6-3.04,0.89-1.01,0.26-1.75,1.04-2.32,1.61-1.17,1.17-1.43,0.4-1.43,2.68v2.68,3.57c0,1.92,0.91,2.01,1.43,3.57,0.21,0.65,1.25,0.94,1.78,1.07,1.23,0.31,1.46,1.53,2.5,1.79,0.18,0.04,1.95,2.83,2.5,3.39,1.1,1.09,2.14,2.86,2.86,3.22,0.92,0.45,0.12,2.02,0,2.5-0.32,1.29-0.36,2.53-0.36,3.92v3.93c0,0.95,0.01,1.77-0.17,2.5-0.26,1.01-0.06,2.47,0.17,3.4,0.34,1.34,0.36,3.11,0.36,4.46v4.64c0,0.88,0.18,1.88,0.18,2.86,0,0.27,0.76,2.19,1.07,2.5,0.4,0.4,0.43,1.72,0.54,2.14,0.03,0.12,0.24,0,0.35,0-1.18,0.24,0.96,2.23,1.25,3.4,0.11,0.41,0,1,0,1.42l-75.35,18.58-30.9,5.89c0,1.13-2.26,0-3.39,0h-3.57c-0.81,0-1.2,0.71-2.32,0.71-0.69,0-1.69,0.18-2.5,0.18h-2.68-2.68-2.68-3.03c-1.01,0-2.1-0.02-2.86-0.18-1.25-0.25-2.84,0-4.11,0-1.55,0-3.17-0.16-4.64-0.53-0.78-0.2-1.54-0.18-2.5-0.18h-3.04c-0.87,0-1.88-0.03-2.5-0.18-1.1-0.28-1.25-0.54-1.96-1.25-0.59-0.59-0.01-2.11,0.18-2.5,0.39-0.79,1.01-0.99,1.25-1.96,0.19-0.78,0-1.88,0-2.68,0-1.38-0.25-1.32-1.07-2.15-0.57-0.57-0.95-0.74-1.61-1.07-0.73-0.36-1.11-0.97-1.43-1.6-0.31-0.63-1.18-1.04-1.61-1.61-0.5-0.68-1.22-1.05-1.78-1.61-0.64-0.64-1.21-1.2-1.97-1.96-0.46-0.47-2.61-0.2-3.39-0.36-1.18-0.24-2.72,0-3.93,0-1.91,0-4.15-0.35-5.89,0-0.78,0.16-1.16,1.52-1.61,1.96-0.57,0.57-0.35,1.74-0.35,2.68,0,1.1,0.17,1.97,0.17,2.86,0,0.66,1.1,1.63,1.43,1.96,0.7,0.71-0.9,1.53-1.07,1.61-0.59,0.3-0.36,1.63-0.36,2.32,0,0.75-0.44,0.56-1.07,0.72,0,0.53-2.12,1.18-2.32,1.96-0.17,0.69-0.22,1.78-0.36,2.32-0.15,0.61-1.93,0.36-2.5,0.36-0.41,0-1.14-1.58-1.25-1.79-0.38-0.77-0.75-1.51-1.07-2.14-0.27-0.54-1.83-0.95-2.32-1.07-0.92-0.23-2.09,0.06-2.68,0.36-0.64,0.32-0.35,1.88-0.35,2.5v2.68,0.53,16.97c0,1.39,0.81,0.46,1.25,0.71l-0.36,8.93-37.68,1.61c0,1.39,0.09-2.87,0.71-4.11,0.41-0.82,0.36-1.62,0.36-2.68,0-0.4,0.4-1.59,0.54-2.14,0.2-0.82,0.18-1.85,0.18-2.68,0-0.14-2.49-0.31-2.68-0.36-1.09-0.27-1.88-0.42-3.04-0.71-1.59-0.4-1.93-0.9-3.57-0.9-1.47,0-2.57,0.72-4.11,0.72-1.24,0-1.63-0.14-2.14,0.89-0.52,1.04-1.07,0.74-0.71,2.14,0.26,1.07,0.81,1.46,1.07,2.5,0.08,0.33-1.25,0.97-1.25,1.79,0,0.96-0.5,1.45,0.53,1.96,0.68,0.34,1.7,0.18,2.5,0.18,1.28,0-0.7,1.42-0.71,1.43-0.86,0.43-1.52,0.45-2.14,1.07-0.55,0.54-1.17,1.03-1.97,1.43-0.87,0.44-1.59,0-2.5,0h-3.21-2.68c-1.44,0-1.5-0.09-1.79,1.07-0.19,0.78,0,1.87,0,2.68,0,1.1,0.31,1.62,1.25,2.32,0.23,0.18,0,2.33,0,2.68,0,1.26,1.41,1.51,1.07,2.86-0.16,0.64-0.71,0.99-0.71,2.14,0,0.69-0.18,1.69-0.18,2.5v2.68,3.04c0,1.32-0.16,1.6-1.43,1.6h-3.39c-1.5,0-1.79,0.26-1.79-1.25,0-1.06-0.67-1.23-1.42-1.6-0.89-0.45-2.2,0.32-3.04,0.53-1.14,0.29-2.36,0.36-3.57,0.36-1.4,0-2.31,0.71-3.57,0.71-0.79,0-1.28,1.52-1.43,2.15-0.27,1.09-0.18,2.37-0.18,3.57v3.03c0,2.02-0.54,4.38-0.54,6.61,0,1.09,0.54,2.36,0.54,3.57,0,1.08-0.22,2,0,2.86,0.23,0.9-0.04,2,0.18,2.86,0.08,0.34,2.73,0.59,3.03,0.71,0.66,0.26,1.62,0.18,2.5,0.18h2.86c1.25,0,1.39,0.13,1.97,0.71,0.63,0.64,1.38,0.54,2.32,0.54h1.43l27.5-1.97,16.25-0.71,15-1.43,23.21-0.89,25-1.79,72.32-3.39,42.86-6.43,6.43,41.43c0.99-0.25-2.04,0.29-3.04,0.54-1.3,0.32-2.28,0.01-3.57,0.53-0.9,0.36-2.62,0.17-3.57,0.36-0.96,0.19-1.78,0.18-2.68,0.18-1.08,0-2.27,0.18-3.39,0.18-0.94,0-1.84-0.21-2.5-0.54-0.74-0.37-1.4-0.54-2.32-0.54l-75.54,3.58-144.82,8.03c-1.64-0.82-5.54-4.82-6.25-6.25-0.96-1.91-2.25-1.76-2.68-3.93-0.65-3.26-4.95-10.71-6.96-13.39-1.65-2.19-1.47-6.35-2.5-8.93-1.18-2.94-2.68-5.93-2.68-9.11,0-2.66,0.25-5.83,0.89-8.39,1.38-5.52,1.84-10.46,4.46-15.71,2.26-4.52,3.32-8.35,4.29-13.22,0.91-4.57,0.89-8.66,0.89-13.39v-1.79c0-0.76,0.36-1.65,0.36-2.5,0.42-0.53,0.83-1.07,1.25-1.6,1.92-2.47,4.79-5.15,6.79-7.15,4.64-4.64,9.08-9.54,15-12.5,4.34-2.17,6.47-7.16,10.71-9.28,2.39-1.2,5.76-5.05,7.5-6.79,3.7-3.7,7.17-7.52,11.07-11.43,3.4-3.39,8.09-5.75,11.79-8.21,2.8-1.87,6.05-3.64,9.28-4.29,5.32-1.06,10.58-4.75,15.36-7.14,9.56-4.78,13.18-9.34,20.71-15,6.06-4.54,11.99-8.76,18.22-12.5,3.79-2.28,7.59-4.37,10.71-7.5,2.33-2.33,3.07-3.03,4.29-6.07,0.66-1.66,0.71-4.16,0.71-6.07,0-1.78,0.36-3.86,0.36-6.07v-1.43-6.79-7.14c0-2.16,1.72-4.6,3.21-5.71,2.32-1.74,3.88-3.01,6.43-4.29,2.71-1.35,7.36-0.68,10.36-1.43,4.1-1.02,8.62-0.71,12.86-0.71,2.63,0,4.31,0.54,6.43,1.07,0.23,0.06,0.47,0,0.71,0,4.2,0,8.26,5,13.21,5,2.06,0,6.33,1.58,8.58,2.14,2.97,0.74,6.61,0.21,9.64,0.72,1.86,0.31,3.82,0.35,5.71,0.35,0.66,0,1.31-0.12,1.97-0.18z" fill-rule="evenodd" stroke-dashoffset="0" stroke="#000" stroke-linecap="butt" stroke-miterlimit="4" stroke-width="0.5" fill="#c0dc58"/>
  <path id="path12617" stroke-linejoin="round" style="stroke-dasharray:none;" d="M185.36,565.63h0.26c5.9-0.97,11.91-1.51,17.93-1.51h4.04,6.31,4.8c1.54,0,2.6,0.46,3.79,0.76,1.56,0.39,2.6,1.3,4.04,2.02,1.14,0.57,1.95,2.2,2.52,2.78,0.91,0.9,2.89,1.92,4.3,2.27,1.52,0.38,2.6,0.76,4.29,0.76,2.09,0-0.11,2.03-0.76,2.52-0.97,0.73-1.48,1.68-2.27,2.27-0.97,0.73-1.01,1.73-1.01,3.03v3.79c0,1.65,0.29,2.11,0.76,3.03,0.46,0.93,1.23,1.41,1.51,2.53,0.21,0.82,0.73,2.24,1.26,2.78,1.19,1.18,3.07,2.04,4.3,2.77,0.62,0.38,2.34-0.33,3.03-0.5,0.84,0.5,3.64-0.09,4.29-0.25,1.5-0.38,3.47-0.26,4.8-0.26,0.88,0,2.65,1.23,3.79,1.52,1.09,0.27,2.81-0.07,3.53-0.25,1.34-0.34,2.69-1.73,3.79-2.28,1.37-0.68,2.17-1.62,3.03-2.77,0.93-1.25,2.01-2.02,4.04-2.02,1.56,0,2.26,0.7,2.53,1.76,0.15,0.63,2.79,1.66,3.28,2.02,1.2,0.91,2.42,0.41,3.53,1.52,0.91,0.9,2.27,2.01,3.04,2.78,0.67,0.68,1.15,1.66,1.76,2.27,1.05,1.05,2.31,1.57,3.03,2.52,0.71,0.95,0.76,2.02,0.76,3.29,0,1.65-0.17,2.11-0.76,3.28-0.44,0.88-0.25,2.75-0.25,3.79,0,1.62,0.14,2.39-0.76,3.28-0.82,0.83-1.59,2.1-2.52,3.03-0.95,0.95-1.01,1.98-1.01,3.54,0,1.69-0.25,3.54-0.25,5.3,0,1.86-0.51,2.94-0.51,4.8,0,1.29-0.01,2.59-0.25,3.53-0.33,1.3,0,3.21,0,4.55v4.29,4.04,1.01c0,1.08,0.25,2.37,0.25,3.54l1.52,44.95c0,1.53-3.03-0.5-4.55-0.5-1.72,0-2.09-0.31-3.03-1.01-0.81-0.61-1.37-1.62-2.02-2.28-0.71-0.7-1.03-1.78-1.77-2.52-0.53-0.53-0.76-2.28-0.76-3.28,0-0.94-0.95-2.17-1.26-2.78-0.52-1.05-1.06-1.88-1.51-2.78-0.5-0.98-0.74-1.75-1.52-2.53l-2.27-2.27c-0.83-0.82-1.4-1.33-2.28-1.77-0.96-0.48-1.59-1.3-2.52-1.76-0.88-0.45-1.73-1.99-2.27-2.53-0.77-0.77-1.28-1.29-1.77-2.27s-1.6-1.6-2.27-2.28c-0.72-0.71-1.07-1.62-1.52-2.52-0.55-1.1-1.32-1.58-2.02-2.27-0.52-0.52-3.71-0.6-4.55-1.01-1.23-0.62-1.53-1.21-2.77-1.52-1.1-0.27-2.31-1.29-3.29-2.02-0.71-0.53-2.26-0.88-3.03-1.26-1.61-0.81-2.39-1.16-3.53-2.02-0.91-0.68-1.72-1.11-2.53-1.52-1.05-0.52-1.66-1.66-2.52-2.52l-2.53-2.53c-0.61-0.81-1.45-1.7-2.02-2.27-1.37-1.37-1.26,1.51-1.26,2.27,0,1.63,0.12,2.27,0.76,3.54,0.48,0.97,1.08,1.9,1.51,2.78,0.5,0.99,1.69,1.94,2.27,2.52,0.78,0.77,1.12,1.37,1.77,2.02,0.61,0.61,0.51,2.84,0.51,3.79v3.79c0,1.14,0.25,2.14,0.25,3.53v3.79,3.79c0,1.21,0.05,2.71,0.25,3.53,0.04,0.17,0,0.34,0,0.51l-35.1-0.25c0.43,1.71,0.25-3.54,0.25-5.31,0-3.3-3.79-10.78-3.79-17.42,0-7.56,0.67-13.41-1.76-20.71-1.68-5.03-3.05-10.48-3.79-15.66-0.93-6.51-2.47-13.05-3.54-19.44-0.63-3.78-2.08-7.5-3.28-11.11-0.84-2.51-0.51-5.66-0.51-8.34,0-2.42,0.51-4.65,0.51-7.07,0-1.85,1.4-3.32,1.77-4.8,0.4-1.61,1.35-2.11,1.77-3.79,0.13-0.55,1.41-1.67,1.76-2.02z" fill-rule="evenodd" stroke-dashoffset="0" stroke="#000" stroke-linecap="butt" stroke-miterlimit="4" stroke-width="0.5" fill="#c0dc58"/>
  <path id="path12619" stroke-linejoin="round" style="stroke-dasharray:none;" d="M542.58,617.03c-0.35-0.13-1.64,1.25-2.53,2.14-0.45,0.45-1.46,0.83-1.89,1.27-0.43,0.43-1.57-0.05-1.9-0.13-0.73-0.18-1.58-0.13-2.39-0.13h-2.15-2.65c-0.85,0-1.21,0.05-1.39,0.76-0.26,1.04,0.16,1.35-0.63,2.15-0.49,0.48-0.81,0.8-1.27,1.26-0.31,0.31-0.12,1.83-0.12,2.27,0,0.63,0.82,1.15,1.26,1.27,0.71,0.17,1.26,1.72,1.26,2.39,0,0.53-1.47,1.63-1.76,2.02-0.41,0.54-0.82,0.87-1.14,1.52-0.43,0.85-0.81,1.23-1.26,2.15-0.34,0.68-0.79,1.38-1.01,2.27-0.23,0.89,1.7,1.25,2.27,1.39,0.25,0.06,0.5,0.08,0.76,0.12,0.99,0.17,1.76,0.42,2.4,1.27,0.77,1.03,2.14,0.62,2.14,2.14,0,1.14,0.14,1.7,0.76,2.53,0.45,0.6,1.1,0.72,1.77,0.88,0.42,0.11-0.54,1.72-0.63,1.9-0.41,0.81-0.67,1.39-0.89,2.27-0.09,0.37-1.92,1.16-2.27,1.51-0.61,0.62-1.04,0.92-1.64,1.52-0.7,0.7-0.85,0.77-1.9,0.25-0.75-0.37-1.35-0.79-1.64-1.51-0.34-0.85-2.07-2.07-2.52-2.53-0.48-0.48-1.69,1.74-1.9,1.9-0.41,0.31-0.87,1.75-1.13,2.4-0.25,0.62-0.56,1.11-0.89,1.76-0.33,0.66-0.38,1.74-0.38,2.53,0,0.98-0.56,2.26-1.01,3.16-0.78,1.56-0.18,2.72,0.76,3.28,1.49,0.89,3.52,1.1,5.18,1.51,0.6,0.15,0.5,0.93,0.5,1.52,0,0.75,0.06,1.39-0.25,2.02-0.2,0.41-0.94,0.94-1.14,1.14-0.36,0.36-0.37,1.32-0.37,1.89,0,0.78-0.26,1.13-0.26,1.89,0,0.43-0.42,0.55-0.63,0.76v0.51c0,0.35-0.92,1.08-1.13,1.51-0.33,0.65-0.49,0.95-0.64,1.52-0.35,1.41,0.44,1.46,1.14,2.4,0.59,0.78,3.43,0.92,4.29,1.13,1.08,0.27,1.26,0.87,1.65,1.64,0.4,0.82,1.27,0.96,1.89,1.27,0.64,0.32,1.32,0.58,2.02,0.75,0.77,0.2,1.23-0.24,1.77-0.37,0.85-0.22,1.63,0.13,2.4-0.26,0.84-0.42,0.93-0.3,1.51-0.88,0.07-0.07-1.85-1.18-2.02-1.26-0.54-0.27-0.63-1.4-0.63-2.02,0-0.49,1.07-1.5,1.26-1.9,0.36-0.7,0.63-0.5,0.63-1.51,0-0.55-0.82-1.07-1.26-1.39-0.56-0.42-1.35-0.23-1.89-0.51-0.94-0.47-2-1.06-2.78-1.64-0.65-0.49-0.82-0.75-0.51-1.39,0.35-0.68,1.45-0.86,1.77-1.51,0.33-0.66,0.34-1.34,0.51-2.02,0.19-0.75,1.73,0.18,2.02,0.25,0.83,0.21,1.49,1.04,2.4,1.26,1.09,0.27,1.31,1.24,2.27,0.76,0.3-0.15,0.13-1.7,0.13-2.02,0-0.84,0.79-1.14,1.64-1.14,1.39,0,2.54,1.52,4.04,1.52,0.74,0,1.43,0.12,2.14,0.12,0.78,0,1.83,0.59,2.4,1.01,0.98,0.74,1.79,1.56,3.16,1.9,1.73,0.43,3.27,1.34,4.93,1.89,1.44,0.48,2.65,1.05,4.04,1.39,0.59,0.15,1.4,0,2.02,0,0.71,0,1.01-1.31,1.01-1.77,0-0.62,0.63-0.79,0.63-1.64,0-0.86-0.01-1.4-0.38-1.89-0.38-0.5-0.9-0.74-1.39-1.39-0.7-0.93-0.63-2.19-0.63-3.28,0-0.78,0.25-1.15,0.38-1.65,0.12-0.47,1.89-1.25,2.14-1.51,0.64-0.64,1.48-0.79,2.28-1.39,0.82-0.61,1.9-1.08,2.65-1.64,1.13-0.85,2.45-1.95,3.41-2.91,0.66-0.66,1.52-0.38,2.27-0.75,0.64-0.32,1.29-0.51,2.02-0.51,1.09,0,1.72-0.19,2.65,0.51,0.94,0.7,1.45,1.29,2.4,1.76,0.55,0.28,2.12,0.01,2.65-0.12,1.18-0.3,2.44-0.25,3.66-0.25,0.91,0,2.14,1.74,2.66,2.4,0.62,0.78,1.15,0.49,1.51,0.12,0.32-0.31,0.76-1.45,0.76-2.02,0-0.65,0.13-1.21,0.13-1.89,0-0.37-1.45-1.07-1.65-1.27-0.29-0.29-0.12-1.62-0.12-2.14,0-0.67,0.12-1.3,0.12-2.02,0-0.81,0.06-1.67-0.12-2.4s-1.14-1.51-1.39-2.02c-0.29-0.58-0.13-1.84-0.13-2.53,0-1.02-1.07-1.13-2.02-1.51-0.16-0.07-0.33-0.09-0.5-0.13-0.93-0.23-1-0.64-2.02,0.13-0.64,0.47-1.06,0.72-2.02,0.88-0.69,0.11-1.23,0.26-1.77,0.13-0.75-0.19-0.98-2.15-1.14-2.78-0.18-0.73-0.57-1.14-0.88-1.77-0.36-0.72-0.63-1.21-0.63-2.14,0-2.35-0.76-4.67-0.76-7.08,0-1.28,0.44-2.84-0.25-3.53-0.35-0.35-1.58-0.35-2.15-0.63-0.36-0.18-0.46-0.47-0.63-0.63-0.55-0.28-1.17-1.56-1.52-1.9-0.37-0.38-0.72-0.83-1.13-1.13-0.34-0.26-1.69,0-2.15,0-0.63,0-1.18,0.23-1.89,0.37-0.64,0.13-1.21,0.34-1.9,0.51-0.91,0.23-1.11,0.75-1.76,1.14-0.71,0.42-1.16,0.34-1.39,1.26-0.16,0.64,0.43,1.44,0.88,1.89,0.58,0.58,0.33,1.24,0.13,1.64-0.39,0.78-0.68,0.67-0.89,1.52-0.2,0.8-0.32,0.67,0.76,0.88,0.67,0.14,1.64,1.22,1.64,1.77,0,0.83,0.39,1.14-0.63,1.14-0.62,0-1.13-0.57-1.77-0.89-0.75-0.37-1.27-0.9-1.51-1.39-0.28-0.56-0.92-0.82-1.27-1.51-0.26-0.53-0.8-0.73-1.13-1.39-0.32-0.63-0.64-1.03-0.89-1.64-0.39-1-0.25-1.16-1.26-0.76-0.8,0.32-1,0.32-1.77-0.25-0.65-0.49-1.1-1.02-1.26-1.64-0.12-0.5-0.78-1.18-1.01-1.64-0.32-0.65-0.61-1.11-0.88-1.65-0.26-0.5-1.66,0.17-2.02,0.26-0.88,0.21-1.05,0.21-1.52-0.26-0.38-0.38-0.8-1.02-1.26-1.38-0.26-0.21-0.65-1.54-1.01-2.03-0.34-0.45-0.8-0.9-1.52-1.26-0.88-0.44-0.57-0.31-1.51-0.12z" fill-rule="evenodd" stroke-dashoffset="0" stroke="#000" stroke-linecap="butt" stroke-miterlimit="4" stroke-width="0.5" fill="#c0dc58"/>
  <path id="path2764" stroke-linejoin="round" style="stroke-dasharray:none;" d="M64.328,73.134h710v99.966c-1.69,0.25-6-0.96-6,1,0,0.44-3-1-3,1,0,0.33-0.67,0-1,0-0.34,0,0,0.67,0,1,0,2.18-2-0.23-2,2,0,2.34-1-1.96-1,1,0,0.33-0.67,0-1,0-2.34,0,1.96,1-1,1-0.34,0,0,0.67,0,1s-2-0.83-2,1c0,1.67-1-1.6-1,1,0,0.33-2-0.83-2,1,0,0.66-1.34,0-2,0-1.3,0,1.35-1-1-1-2.9,0,2.31-1-1-1-1.41,0-3,0.67-3-1,0-0.99-1,1.15-1-1,0-0.99-1,1.15-1-1,0-1.67-1,1.59-1-1,0-2.81-1,2.25-1-1,0-0.74-1-1.25-1-2,0-1.66,0.77-6-1-6-2.98,0,2.37-1-1-1-1,0,0-2,0-3v-1l21.79-10.65c0.31,0.3,0.61,0.61,0.92,0.91,0.66,0.66,0.57,1.95,1.15,2.52,0.86,0.87,1.7-1.57,1.83-1.83,0.82-1.63,0.69-0.95,0.69-1.83,0-1-0.84-1.08-0.23-2.29,0.66-1.33,0.87-0.35,0-2.53-0.44-1.1,2.39-0.91,2.98-0.91,1.15,0,2.01,0.24,2.98,0,0.19-0.05-2.36-1.53-2.52-1.61-1.03-0.51-1.33-1.4-1.61-2.52-0.04-0.17,2.74-0.23,3.21-0.23,1.83,0-0.4-1.55-0.68-1.83-0.86-0.85-0.34-1.84,0-2.52,0.71-1.44,1.31,0.21,0.68-2.3-0.31-1.24,0.71-1.92,0.92-2.75,0.12-0.46,0.23-0.8,0.23-1.37l-23.85-43.324-15.82-6.877-21.78,10.315-5.73,18.566,28.2,51.8,4.36,8.26c0.32,0.24-0.63,1.71-0.69,1.83-0.27,0.54-0.46,0.67-0.46,1.38v1.83c0,0.6-0.22,1.22-0.34,1.72-0.07,0.27-0.99,0.75-1.15,0.92-0.42,0.42-0.23,1.47-0.23,2.06,0,0.71,0.11,1.35,0.11,2.06,0,0.68-0.11,1.29-0.11,1.84,0,0.65-0.05,1.13-0.23,1.49-0.24,0.48-0.97,0.81-1.26,1.03-0.42,0.31-0.43,1.12-0.8,1.49-0.32,0.31-0.7,0.96-0.92,1.26-0.37,0.49-0.75,0.85-1.15,1.14-0.55,0.42,0.22,1.36,0.46,1.61,0.51,0.51,0.47,1.17,0.8,1.83,0.29,0.57,1.04,0.95,1.61,1.38,0.47,0.35,0.94,0.55,1.49,0.68,1.02,0.26,1.41,0.81,2.18,1.38,0.87,0.66,1.36,1.43,2.29,2.18,0.76,0.61,1.86,1.31,2.98,2.06,0.19,0.12,0.38,0.23,0.58,0.34,0.52,0.32,1.19,0.23,1.83,0.23,1.12,0,2.55,1.22,3.67,1.49,0.61,0.16,0.98,1.08,1.72,1.26,1.02,0.26,1.48,1.61,2.64,1.61,1.15,0,2.52,1.14,3.78,1.14,0.27,0,1.08-0.22,1.6-0.22,0.62,0,1.68-0.52,2.07-0.81,0.34-0.25,0.82,0,1.49,0,0.83,0,1.35,0.45,1.95,0.81,0.24,0.14,1.7-0.35,2.17-0.35,0.62,0,1.1-0.11,1.72-0.11h1.95c0.31,0,0.89,1.17,1.26,1.26,0.86,0.21,1.03,0.57,1.95,0.57,0.66,0,1.38,0.12,2.07,0.12h-0.46l-0.29,148.43v179.95,54.98c-0.06-0.19-0.11-0.38-0.17-0.57-0.23-0.77,0-1.15-0.34-1.83-0.29-0.56-0.73-0.88-1.04-1.49-0.21-0.43-0.22-0.85-0.22-1.49,0-0.4,0.66-1.1,0.8-1.37,0.28-0.57,0.55-0.77,0.8-1.27,0.31-0.61,0.25-0.89-0.23-1.37-0.49-0.5-0.5-0.87-1.15-0.23-0.23,0.23-1.21,0.49-1.37,0.57-0.63,0.32-0.77,0.8-0.92,1.38-0.21,0.86-0.68,0.92-1.03,0.23-0.33-0.67-0.2-0.95,0.23-1.38,0.41-0.41,1.24-0.56,1.83-0.8,0.75-0.3,0.57-0.5,0.35-1.38-0.2-0.77-1-1.22-1.49-1.71-0.6-0.6-0.37,0.16-0.69,0.8-0.24,0.47-0.93,0.92-1.15,1.14-0.48,0.49-0.63,0.95-1.03,1.61-0.29,0.49-0.63,0.64-1.38,0.46-0.49-0.13-1.28-1.16-1.83-1.49-0.45-0.27-0.91-0.57-1.38-0.92-0.51-0.38-0.7-0.59-1.14-1.03s-0.58-0.71-0.58-1.15c0-0.05,1.03-0.91,1.04-0.91,0.54-0.55,0.03-0.98-0.35-1.27-0.51-0.38-1.02-1.02-1.49-1.37-0.51-0.39-1.09-0.49-1.72-0.8-0.11-0.06-0.61,0-0.8,0l-6.08,7.68c-0.66-0.34-1.04-0.59-1.49-0.92-0.54-0.41-1.03-0.63-1.6-0.34-0.65,0.32-1.03,0.24-1.03,1.14,0,0.64-1.16-0.58-1.26-0.69-0.48-0.47-0.75-0.63-1.15-1.03-0.34-0.33-0.78-0.55-1.15-0.91-0.5-0.51-0.79-0.8-1.26-1.27-0.37-0.37-0.56-0.65-0.8-1.14s-0.68-0.83-0.92-1.15c-0.34-0.45-0.6-0.62-0.8-1.03-0.2-0.4-0.7-0.81-0.92-1.03-0.29-0.29-0.56-0.76-0.92-1.03-0.5-0.38-1.2-1.09-1.49-1.38-0.13-0.13-1.58-0.24-1.83-0.34-0.55-0.22-0.89-0.34-1.6-0.34-0.58,0-0.77,0.22-1.5,0.22-0.79,0-0.87,0.14-1.14,0.69-0.19,0.38-0.9,0.9-1.26,1.26-0.38,0.38-0.73,0.65-0.92,1.03-0.23,0.47-0.64,0.9-0.92,1.26-0.35,0.48-0.42,0.8-0.57,1.38-0.11,0.45-0.97,0.74-1.15,0.92-0.41,0.41-0.64,0.38-0.8,1.03-0.15,0.59-0.12,1.07-0.23,1.49-0.14,0.58-0.78-0.91-1.26-1.26-0.34-0.26-0.59-0.98-0.69-1.38-0.19-0.77-0.39-0.86-0.92-0.34-0.49,0.49,0.36,1.32-0.68,0.8-0.44-0.22-0.57-1.06-0.81-1.37-0.33-0.44,0.28-1.35,0.35-1.49,0.29-0.6,0.21-0.79,0.57-1.15,0.43-0.43,1.16-0.22,1.61,0,0.6,0.3,0.68-1,0.68-1.38,0-0.61,0.12-1.14,0.12-1.71,0-0.64,0.09-1.15,0.23-1.72,0.18-0.74-0.24-1.04-0.57-1.38-0.51-0.51-0.58-0.65-0.58-1.49,0-0.63-0.77-0.69-1.37-0.69-0.85,0-1.07,0.05-1.38-0.57-0.32-0.65-0.85-0.47-0.46-1.26,0.21-0.42,0.91-0.91,1.26-1.26,0.57-0.56,1.28-0.87,1.72-1.61,0.26-0.43,0.2-0.97,0.46-1.49,0.25-0.49,0.35-0.64,0.35-1.37,0.28-0.57-1.04-0.97-1.04-1.61,0-0.72,0.07-1.23-0.11-1.94-0.17-0.68-1.82-1.49-2.29-1.72-0.86-0.43-1.55-0.98-2.41-1.49-0.4-0.24-0.79-0.79-1.03-1.03-0.17-0.17-1.38,0.74-1.49,0.8-0.61,0.3-0.91,0.1-1.38,0.57-0.2,0.2-0.16,0.53-0.23,0.8-0.22,0.88-1.03-1.61-1.03-2.52,0-0.59,0.45-1.03,1.03-1.03,0.66,0,1.16-0.01,1.61-0.23,0.7-0.35,0.68-0.87,0.68-1.6,0-0.72,0.37-1.2,0.58-1.61,0.42-0.84,1.14,0.36,1.14,0.8,0,0.72,1,0.58,1.49,0.58,0.65,0,1.28,0.11,1.95,0.11,0.32,0,1.04-1.38,0-0.34-0.53,0.53-0.73,0.56-1.03,1.14-0.25,0.5-0.12,1.18-0.23,1.61-0.14,0.55,0.69,0.93,0.8,1.37,0.02,0.05,1.67,0.87,1.84,1.04,0.49,0.49,1.24,1.23,1.6,1.71,0.48,0.64,0.57,1.02,1.15,1.61,0.64,0.64,1.55,1.43,2.18,2.06,0.66,0.66,1.39,1.18,2.18,1.38,0.66,0.16,1.36,0.11,2.06,0.11h0.57,2.07c0.26,0,0.62-1.02,0.69-1.14,0.05-0.12,1.36-0.2,1.49-0.23,0.62-0.16,1.35-0.08,1.94-0.23,0.88-0.22,1.05,0.02,1.5-0.58,0.26-0.35,1-0.34,1.49-0.34,0.61,0,1.53-0.36,2.29-0.46,0.83-0.1,1.38,0.22,1.72-0.46,0.26-0.51,1.04-0.46,1.49-0.57,0.5-0.12,1.2,0,1.72,0,0.65,0,1.16-0.29,1.83-0.46,0.49-0.12,0.55-0.69,1.26-0.69,0.61,0,0.68-0.52,0.81-1.03s0.23-0.83,0.23-1.49c0-0.65-1.3,0-1.95,0h-2.18c-0.83,0-1.59-0.11-2.41-0.11h-2.41c-0.87,0-1.11,0.06-1.49,0.57-0.33,0.44-1.49,0.23-2.06,0.23h-1.95-1.95c-0.76,0-1.18,0.08-1.6-0.34-0.54-0.54-0.89-0.6-1.72-0.81-0.08-0.01-1.06,0.23-1.49,0.23-0.15,0-0.97-1.08-1.15-1.26-0.38-0.38-0.74-0.9-1.03-1.49-0.27-0.53-0.34-1.13-0.58-1.6-0.31-0.62-0.16-1.24,0.35-1.49,0.34-0.17,1.33-0.05,1.6-0.12,0.44-0.11,0.83-0.34,1.49-0.34h2.98,2.07c0.61,0,1.35,0.23,2.06,0.23s1.43-0.05,2.07,0.11c0.11,0.03,0.22,0,0.34,0,0.83,0,1.76,0.23,2.64,0.23h1.83,1.95c0.58,0,1.32-0.01,1.72-0.11,0.42-0.11,0.9-0.99,1.03-1.26,0.24-0.47,0.53-1.17,0.69-1.49,0.18-0.36,0-1.31,0-1.72v-0.35l-20.06-24.29c0-0.45-0.95,0.29-1.15,0.69-0.27,0.54-1.05,0.34-1.61,0.34-0.83,0-1.57-0.31-1.94-0.69-0.35-0.35-0.53-0.75-0.81-1.03l-1.49-1.49c-0.4-0.4-0.57-1-0.57-1.72,0-0.53-0.14-1.41-0.46-1.83-0.46-0.62-0.92-1.15-1.38-1.61-0.43-0.43-0.55-0.77-1.14-0.91-0.79-0.2-1.15-0.4-1.84-0.92l-60.41,0.23c-0.59-0.15,0.63-1.36-0.69-1.03-0.62,0.15-1.29-0.08-1.61-0.23-0.81-0.41-1.63-0.62-2.75-0.81-0.3-0.05-0.61-0.07-0.92-0.11-1.12-0.14-0.35-0.89-0.11-1.38,0.31-0.62,0.19-0.88,0.57-1.26,0.38-0.37,0.51-0.85,0.8-1.14,0.62-0.61,0.94-0.98,1.72-1.38,0.33-0.16,0.32,1.01,0.69,1.38,0.47,0.46,1.08,0.57,1.84,0.57,1.49,0,1.36,0.39,1.6,1.38,0.11,0.44,2.95,0.71,3.56,0.8,0.75,0.11,1.52,0.11,2.29,0.11,0.71,0,1.81,0.17,2.52,0.35,0.96,0.24,1.99,0.23,2.98,0.23,0.4,0,0.34-0.81,1.15-0.81h3.09,1.95c0.82,0,1.42-0.04,1.95-0.57,0.39-0.39,1.55-0.53,2.18-0.69,0.56-0.14,1.13-0.11,1.72-0.11h2.98c0.78,0,1.38-0.26,2.18-0.46,0.73-0.18,1.07-0.38,1.83-0.57,0.96-0.24,2.1-0.12,3.1-0.12h2.75c0.85,0,1.97-0.07,2.75-0.23,0.86-0.17,1.11-0.07,1.72-0.68,0.53-0.53,1.58-0.35,2.29-0.35h2.3c0.88,0,1.67,0.12,2.52,0.12h3.9c0.89,0,1.16-0.36,1.6-0.81,0.36-0.35,1.88-0.11,2.52-0.11h1.95c0.77,0,0.97-0.05,1.38-0.46,0.37-0.37,0.69-0.67,0.69-1.37,0-0.71,0.27-1.11-0.23-1.61-0.4-0.39-0.7-0.92-1.03-1.37-0.07-0.1,0-0.23,0-0.35l0.23-11.92c-0.54-0.71-1.18-0.8-2.07-0.8-0.75,0-1.29,0.07-1.95,0.23-0.51,0.13-0.83,0.23-1.49,0.23h-3.09-2.41c-0.9,0-1.24-0.17-1.61,0.57-0.33,0.67-0.75,0.87-1.49,0.69-0.39-0.1-0.8-0.89-1.37-1.03-0.32-0.08-0.35-1.26-0.35-1.61,0-0.68-0.11-1.01-0.11-1.72,0-0.84-0.87-0.64-1.49-0.8-0.55-0.14-0.89-0.31-1.49-0.46-0.99-0.24,0.07-0.41,0.46-0.8s0.78-0.74,0.91-1.26c0.01-0.03,1.11-0.87,1.27-1.03,0.5-0.51,0.38-1.21,0.23-1.83-0.18-0.72-0.99-0.37-1.27-0.23-0.71,0.35-1.2,0.62-1.72,1.14-0.47,0.48-0.79,0.66-1.49,0.8-0.62,0.13-1.33,0.19-1.95,0.35-0.69,0.17-1.44,0.11-2.17,0.11-0.7,0-1.13,0.38-1.49-0.34-0.29-0.57-0.46-0.61-0.46-1.49,0-0.69-0.11-1.21-0.23-1.72-0.06-0.24-0.72-0.83-0.92-1.03-0.44-0.44-0.69-0.49-0.69-1.26,0-1.02,0.8-0.69,1.72-0.69,0.85,0,1.29,0.39,2.07,0,0.8-0.4,0.36-0.93,1.03-1.26,0.42-0.21,1.58,0,2.06,0,0.83,0,1.63-0.19,2.41-0.34,0.81-0.17,0.81-0.88,0.69-1.38-0.12-0.46-0.46-0.67-0.46-1.49v-1.95c0-0.85,0.42-0.95-0.12-1.49-0.58-0.58-0.68-0.25-0.68-1.37,0-0.65,1.58,0.59,1.26-0.69-0.1-0.38-1.07-0.71-1.26-0.8-0.32-0.16,0.23-0.68,0.23-1.03-0.2-0.1-0.76-1.89-0.81-2.07-0.14-0.57-0.76-0.86-0.91-1.49-0.13-0.5,0-1.2,0-1.72,0-0.66-0.04-1.35,0.11-1.94,0.17-0.68,0.34-0.84,0.34-1.61,0-0.69,0.35-1.13,0.35-1.83,0-0.56,0.24-1.27,0.69-1.49,0.36-0.18,1.3,0,1.72,0h1.72c0.67,0,1.3,0.01,1.83-0.12,0.42-0.1,0.7-0.7,1.03-1.03,0.39-0.39,0.23-1.31,0.23-1.83v-2.07-1.94-1.84c0-0.79,0.46-1.61,0.46-2.52,0-0.73-0.23-1.27-0.23-1.95s-0.29-1.72-0.57-2.29c-0.25-0.48-0.28-1.02-0.58-1.6-0.27-0.56-0.34-1.59-0.34-1.84,0-0.59-0.46,1.13-0.46,1.72,0,0.99,0.69,1.82,0.69,2.87v1.94,2.64c0,0.79-0.12,1.25-0.12,1.95v1.83c0,0.66,0.01,1.46-0.11,1.95-0.17,0.66-0.36,0.69-1.15,0.69-0.89,0-1.17-0.42-1.83-0.92-0.59-0.44-0.8-1.11-0.8-1.72,0-0.43,0.59-0.9,0.91-1.14,0.41-0.31,0.23-1.24,0.23-1.72v-2.07c0-0.73,0.06-1.48-0.11-2.17-0.17-0.68-0.32-1.16-0.46-1.72-0.18-0.71-0.32-1.64-0.46-2.18-0.15-0.62-1.05-0.6-1.49-1.03-0.22-0.22-0.34-1.43-0.34-1.84v-2.06-1.95c0-0.85-0.24-0.94-1.03-1.14-1.42-0.36-1.04-0.07-1.04,1.37,0,0.9,0.12,1.84,0.12,2.75,0,0.76,0.23,1.47,0.23,2.3v0.57c0,0.91-0.63,0.08-1.15-0.23-0.7-0.42-0.92-1.66-0.92-2.41,0-0.71,0.02-1.45-0.23-1.95-0.35-0.7-0.51-1.2-0.91-1.6-0.48-0.48-1.72-0.43-1.72,0.23v2.41c0,0.92,0.23,1.98,0.23,2.98,0,0.88-0.02,1.69-0.23,2.52-0.19,0.76-0.12,1.48-0.92,0.68-0.58-0.57-0.57-1.62-0.57-2.52v-2.17c0-1.07-0.3-1.51-1.26-1.27-1.22,0.31-0.78,1.16-0.46,1.95,0.44,1.11,0.57,2.04,0.57,3.21,0,0.87-0.01,1.29-0.34,1.95-0.19,0.38-0.96,0.23-1.49,0.23-0.43,0-0.35-1.97-0.35-2.29v-2.07c0-0.65-0.15-1.1-0.46-1.71-0.26-0.54-0.52-0.69-1.26-0.69-1.12,0-1.14,0.32-1.37,1.26-0.2,0.78-0.23,1.47-0.23,2.29v2.29c0,0.6,0.09,1.91-0.35,1.03-0.42-0.85-0.71-1.47-0.91-2.29-0.15-0.6,0-1.43,0-2.06,0-0.31-2.31,0.3-2.41,0.34-0.65,0.26-1.35,0.3-2.06,0.12-1.1-0.28-1.93-0.63-2.3-1.38-0.29-0.59,0.21-1.32,0.35-1.6,0.26-0.53,0.86-0.73,1.37-1.03,0.52-0.31,0.58-1.01,0.58-1.61v-0.34c0-0.65,0.42-1.47,0.57-2.07,0.16-0.64-1-0.8-0.8-1.6,0.15-0.62,0.17-1.03,0.45-1.6,0.19-0.38,0.16-1.21,0.23-1.49,0.16-0.63,0.77-1.34,1.26-1.84,0.53-0.52,0.93-0.72,1.5-1.14,0.61-0.46,0.41-0.82,1.6-0.35,0.5,0.2,1.51,0,2.06,0,1.09,0,2.22,0.12,3.33,0.12,0.61,0,0.8-0.23,1.49-0.23,0.67,0,1.08-0.61,1.49-0.92,0.57-0.43,0.1-1.04-0.12-1.26-0.17-0.18-1.53,0-1.83,0h-2.06c-0.78,0-1.67-0.11-2.53-0.11-0.77,0-0.11-1.42,0.12-1.72,0.62-0.84,0.07-0.92,1.38-0.92,0.88,0,1.93,0.46,2.98,0.46h2.06c0.77,0,1.33-0.32,0.69-0.8-1.12-0.84-1.97-0.55-3.21-0.23-0.67,0.16-1.61,0-2.3,0-0.11,0-0.18-1.66-0.22-1.84-0.08-0.29-2.22-0.11-2.53-0.11-1.01,0-1.41-0.43-1.72-1.03-0.31-0.63,0.6-1.34,0.81-1.49,0.64-0.48,1.19-0.29,1.37-1.04,0.16-0.61-0.29-1.11-0.57-1.48-0.35-0.46-0.72-1.07-1.03-1.38-0.32-0.31-0.12-1.76-0.12-2.18,0-0.59,1.19,0.65,1.72,0.92,0.84,0.42,1.33,0.57,2.41,0.57,0.9,0,1.3,0.08,1.72-0.34,0.54-0.54-0.02-1.22-0.12-1.61-0.14-0.58-1.24-1.53-1.83-1.83-0.74-0.37-1.1-0.41-1.61-0.92-0.63-0.63-1.25-0.8-1.83-1.37-0.43-0.44-0.8-0.56-0.8-1.38,0-0.55,0.41-0.99,0.23-1.72-0.04-0.15-0.08-0.3-0.12-0.46-0.12-0.49-0.6-0.98-0.8-1.37-0.22-0.44-0.63-1.09-0.92-1.38l-0.8-0.8c-0.45,0.61,0.16,1.61-0.69,1.61-0.39,0-1.24-2.18-1.37-2.53-0.17-0.42-0.42-0.85-0.58-1.48-0.18-0.74,0.76-1.78,1.15-2.3,0.27-0.35,1.58-0.48,1.95-0.57,0.96-0.24,2.32,0,3.32,0,0.92,0,1.41-0.15,1.95,0.57,0.35,0.47,1.05,1.33,1.61,1.61,1.18,0.59,1.78,0.99,2.86,1.26,0.87,0.21,1.63,0.41,2.41,0.8,1.02,0.51,2.37,1.09,3.21,1.72,0.49,0.37,1.23,0.23,1.84,0.23h0.34v-10.77c0.38,0-0.92-0.31-0.92-0.69,0-0.73,0.13-1.36-0.34-1.84-0.51-0.5-0.68-0.91-1.61-0.91-0.59,0-1.29,0.01-1.72,0.11-0.56,0.14-1.36,0-1.95,0-0.81,0-0.97,0.17-1.37,0.57-0.46,0.47-0.79,0.46-1.49,0.46h-2.41-2.75-2.29-2.53-1.72c-1.31,0-1.14-0.1-1.14-1.14,0-0.49,1.94-1.26,2.29-1.61,0.84-0.83,2.37-0.07,3.33,0.12,0.73,0.14,1.31,0.14,1.83-0.12,0.22-0.11,0.92-1.11,1.03-1.26l-0.23-5.27h-0.57-1.95-1.95c-0.84,0-0.63,0.34-0.92,0.92-0.05,0.11-1.53,0-1.72,0-0.89,0-1.12-0.28-1.26-0.81-0.15-0.6-0.19-1.04,0.23-1.6,0.43-0.56,0.58-0.65,0.58-1.49,0-0.59-0.74-0.87-1.04-1.26-0.43-0.58-0.39-0.98-1.14-0.23-0.51,0.51-0.57,0.94-1.15,1.38-0.36,0.27-1.28,0.22-1.72,0.22-0.81,0-1.58-0.05-2.29,0.23-0.15,0.06-0.31,0.08-0.46,0.12-0.53,0.13-0.75,0.53-1.38,0.69-0.6,0.15-1.43,0-2.06,0-0.87,0-1.72,0.33-1.72-0.69,0-0.75,0.17-0.99,0.69-1.38,0.65-0.48,0.82-0.64,1.6-1.03,0.66-0.32,1.46-0.51,2.18-0.69,1.08-0.27,2.13-0.64,3.21-0.91,0.7-0.18,1.5-0.81,1.95-1.26,0.46-0.46,0.95-0.84,1.38-1.26,0.58-0.59,0.66-0.57,1.6-0.81,0.74-0.18,1.61-0.23,2.41-0.23h2.75,2.98c0.85,0,0.58-0.63,0.58-1.37,0-0.66-0.01-1.16-0.23-1.61-0.06-0.11-1.64,0-1.84,0h-2.41-2.52c-0.63,0-1.3-0.11-1.95-0.11-0.76,0-1.41-0.13-1.83-0.34-0.11-0.06,0.11-1.37,0.11-1.61,0-0.02,2.45,0.9,2.98,1.03,0.65,0.16,0.72-0.81,0.81-1.14,0.16-0.65,0.36-0.58,1.14-0.58h2.41,1.95c1.12,0,2.3,0.12,3.44,0.12,1.59,0,1.16,0.25,0.8-0.46-0.3-0.61-0.46-0.95-0.46-1.6,0-0.9-0.03-1.05-0.68-1.38-0.5-0.25-1.33-0.13-1.84,0-0.43,0.11-0.14,0.94-0.46,1.26-0.23,0.23-1.93,0-2.29,0h-2.98c-0.77,0-1.49-0.11-2.29-0.11h-1.84c-0.63,0-0.34-1.06-0.23-1.49,0.12-0.47,1.94-0.23,2.52-0.23h3.1c0.89,0,1.4,0.25,1.6-0.58,0.08-0.28,1.64-0.11,1.95-0.11h2.07c0.7,0,1.03-0.23,1.03-0.92,0-0.71-0.23-0.81-0.23-1.49,0-0.4-1.3-0.95-1.72-1.03-0.53-0.11-1.25,0-1.72,0.12-0.71,0.17-0.51,0.8-1.26,0.8h-2.06-3.79-2.63c-0.66,0-0.11-0.6,0-1.03,0.22-0.92-0.26-1.04,0.91-1.04h2.75,3.21c0.73,0,1.35-0.11,1.95-0.11,0.83,0,1.11,0.04,1.49-0.34,0.46-0.46,0.97-0.39,1.38-0.81,0.52-0.52,0.53-1.07,0.23-1.37-0.45-0.45-0.78-0.57-1.49-0.57h-2.07-2.98c-1.17,0-2.36,0.11-3.55,0.11-0.82,0-1.15,0.2-1.15-0.69,0-0.63,0.26-0.86,0.46-1.26,0.28-0.56,2.59,0.23,3.1,0.23h2.63,2.18,1.95c0.8,0,1.58-0.1,1.38-0.92-0.14-0.55-0.12-1.4-0.23-1.83-0.02-0.06-1.8,0-1.95,0h-2.41-2.06-2.52-2.3c-1.11,0-0.81-0.18-0.57-1.15,0.25-1,2.65-0.34,3.67-0.34,0.77,0,1.3-0.07,1.83-0.34,0.61-0.31,1.12-0.87,1.95-1.15,0.26-0.09,0.77-0.72,0.92-0.92,0.42-0.56-0.3-1.05-0.69-1.14-0.66-0.17-1.4,0.11-2.06,0.11-0.46,0-1.19,0.23-1.84,0.23h-2.4c-0.68,0-1.92,0.04-2.07,0-0.16-0.04,0.52-1.47,0.57-1.6,0.3-0.74,0.95-0.88,1.61-1.15,0.81-0.32,2.02-0.11,2.87-0.11h3.09c0.72,0,1.26-0.15,1.26-0.81,0-0.48-0.19-1.3-0.34-1.6-0.14-0.27-1.88-0.12-2.18-0.12-0.69,0-1.35,0.12-2.06,0.12h-2.41c-1.01,0-1.13,0.17-0.92-0.69,0.12-0.45,0.8-0.95,1.03-1.26,0.13-0.17,2.12-0.05,2.41-0.11,1.15-0.23,1.39-0.3,1.61-1.15,0.06-0.26,1.7-0.11,1.95-0.11,1.16,0,2.29-0.12,3.43-0.12,0.78,0,0.91-0.21,1.15-0.69,0.31-0.61,0.46-0.58,0.46-1.49,0-0.32-0.34-0.44-0.34-0.91,0-0.19-0.39,0-0.58,0l0.12-5.73c0-0.24-2.52-0.3-2.75-0.35-0.53-0.1-1.19,0-1.72,0h-1.84-1.72c-0.11,0-0.85,0.73-1.14,0.8-0.92,0.23-1.04-0.15-1.04-0.91,0-0.44-0.34-0.92-0.23-1.38,0.17-0.65,1.17-0.23,1.84-0.23h2.29c0.71,0,0.92-0.5,0.92-1.26,0-0.67,0.97-0.46,1.49-0.46,1.01,0,1.26,0.04,1.26-1.03,0-0.98-0.85-0.99-1.6-0.8-0.68,0.17-1.47,0.11-2.18,0.11h-2.07c-0.78,0-1.26,0.21-1.26-0.68,0-1.08,1.17-0.8,1.95-0.69,0.84,0.12,1.47-0.22,2.06-0.46,0.54-0.21,1.3-1.03,1.61-1.26,0.41-0.31,0.99-0.38,1.26-0.92,0.3-0.6,0-2.05,0-2.75,0-0.43-1.91,0.1-1.95,0.12-0.53,0.27-1.29,0.23-1.72,0.34-0.61,0.15-1.32-0.09-1.6-0.23-0.19-0.09,0.79-1.36,0.8-1.37,0.47-0.48,1.34-0.79,1.83-1.03,0.42-0.21,0.46-1.3,0.46-1.72,0-0.5-0.99-0.71-1.37-0.81-0.5-0.12-1.2,0-1.72,0-0.41,0-1.03,0.57-1.26,0.81-0.36,0.35-1,0.54-1.38,0.91-0.48,0.48-1.18,0.53-1.72,0.81-0.65,0.32-1.05-0.48-1.26-0.69-0.65-0.66,0.8-1.26,1.03-1.38,0.63-0.31,1.15,0,1.61-0.46,0.5-0.5,0.86-0.58,1.14-1.14,0.3-0.59,1.15-1.03,1.61-1.49,0.4-0.41,0.91-0.47,0.34-1.03-0.37-0.37-1.47,0.28-1.6,0.34-0.5,0.25-1.14,0.69-1.61,0.92-0.64,0.32-0.8,0.74-1.49,0.91-0.38,0.1-0.91,0.46-1.37,0.69-0.69,0.35-0.89,0.49-1.38,0-0.82-0.81,0.88-1.56,1.15-1.83,0.45-0.46,1.15-1.05,1.49-1.49,0.38-0.51,0.94-0.72,1.26-1.15,0.31-0.41,0.67-0.78,1.03-1.26,0.34-0.45-1.01-1.16-1.15-1.26-0.6-0.45-1.08,0.29-1.37,0.69-0.46,0.6-0.99,1.21-1.49,1.72-0.55,0.55-0.92,0.91-1.38,1.37-0.38,0.39-0.86,0.35-1.49,0.35-0.6,0-0.61-0.61-1.03-1.04-0.55-0.54-1.04-0.85-0.34-1.37,0.72-0.54,1.73-0.47,2.4-1.15,0.34-0.34,0.84-0.72,1.15-1.03,0.36-0.36,0.66-0.74,0.92-1.26,0.27-0.54,0.23-1.06,0.23-1.72,0-0.39-0.97-1.07-1.27-1.14-0.5-0.13-1.11,0.91-1.37,1.26-0.31,0.41-0.87,1.12-1.61,1.49-0.59,0.29-1.19,0.98-1.72,1.37-0.63,0.47-0.58,1.03-1.37,1.03-0.61,0-0.46-1.09-0.46-1.49,0-0.83,0.96-0.91,1.6-0.91,0.82,0,0.91-0.75,1.61-0.92,0.24-0.06,1.04-0.93,1.26-1.15,0.39-0.39,0.23-1.17,0.23-1.72,0-0.93-0.06-1.09-0.34-1.37-0.24-0.24-1.57,0.71-1.72,0.8-0.62,0.37-1.32,0.98-1.84,1.49-0.46,0.46-0.84,0.93-1.26,1.49-0.35,0.46-1.17,0.58-1.6,0.69-0.79,0.19-0.92-0.16-0.92-0.8v-0.58c0-0.84,0-1.03,0.69-1.37,0.68-0.35,1.53-0.73,2.29-0.92,0.58-0.14,1.1-1,1.38-1.37,0.43-0.58,0.68-0.65,0.68-1.49,0-0.53-0.47-0.81-0.91-0.92-0.76-0.19-0.73-0.08-1.26,0.46-0.27,0.26-1.68,0.11-2.07,0.11-0.78,0-1.47,0.58-2.06,0.58-0.05,0-1.13-0.91-1.38-1.04-0.8-0.4-0.86-0.33-1.49-0.8-0.5-0.37-0.73-0.84-1.49-1.03-0.68-0.17-0.39-0.99,0.23-1.15,0.63-0.15,1.08-0.62,1.49-1.03,0.44-0.43,0.79-0.9,1.26-1.37,0.32-0.32,0.36-0.47,0.8-0.69,0.29-0.28-1.13-1.43-1.26-1.61-0.38-0.51-0.81-0.91-1.49-0.91-0.98,0-1.46,0.12-2.29,0.46-0.41,0.16-0.93,0.52-1.26,0.68-0.48,0.24-1.19,0.12-1.72,0.12-0.08,0-0.75-1.39-0.8-1.49-0.28-0.55-0.64-0.71-0.92-1.26-0.25-0.5-0.87-1.09-1.03-1.72-0.17-0.67-0.87-0.94,0-1.38,0.89-0.44,1.39-0.47,2.06-1.14,0.26-0.26,1.22-0.75,1.61-1.03,0.54-0.41,0.69-0.59,1.03-1.26,0.3-0.6-0.03-0.98-0.23-1.38-0.35-0.7-1.12-0.69-1.84-0.69-0.75,0-1.24,0.45-1.72,0.69-0.66,0.33-1,1.11-1.6,1.26-0.68,0.17-1.03,0.63-1.72,0.8-0.41,0.11-0.83,0.48-1.26,0.69-0.55,0.28-0.87-0.59-1.03-0.92-0.31-0.61,0.36-1.28,0.57-1.49,0.51-0.5,1.1-0.65,1.61-1.03,0.55-0.42,1.06-0.54,1.72-1.03,0.46-0.35,0.88-0.73,1.49-1.03,0.4-0.2,0.57-0.8,0.68-1.26,0.17-0.68-1.37-0.8-1.72-0.8s-1.33,1.12-1.6,1.26c-0.3,0.15-1.24,1.54-1.38,1.72-0.39,0.52-1.6,1.26-2.06,1.49-0.87,0.43-1.12,0.48-1.72-0.12-0.39-0.38-0.32-1.06,0.11-1.49,0.67-0.66,1.3-0.96,1.61-1.72,0.2-0.5,1.19-0.84,1.49-1.14,0.54-0.55,1.14-0.98,0.34-1.38-0.73-0.36-2.13,0.95-2.75,1.26-0.64,0.32-1.24,0.56-1.72,1.03-0.54,0.54-1.37,0.14-1.37-0.46,0-0.78,0.7-1.21,1.49-1.6,0.66-0.33,1.48-0.8,1.95-1.26,0.43-0.43,1.37-0.75,1.95-1.03,0.72-0.37,1.99-0.53,2.17-1.26,0.08-0.31-0.57-1.26-0.68-1.49-0.23-0.46-0.56-0.69-1.04-0.81-0.55-0.13-1.45,0.02-1.83,0.12-0.63,0.16-1.34,0.88-1.84,1.37-0.54,0.55-1,1.2-1.6,1.49-0.53,0.27-1.17,1.06-1.61,1.49-0.21,0.22-0.85,0.61-1.26,0.81-0.35,0.17-0.57-0.78-0.57-1.26,0-0.33-0.68-0.79-0.8-1.26-0.17-0.66,0.41-1.21,0.69-1.49,0.38-0.39,1.49-0.64,2.06-0.92,0.71-0.36,1.42-0.66,2.06-0.92,0.52-0.21,1.11-0.88,1.38-1.14,0.41-0.41,0.54-0.67,0.69-1.26,0.14-0.59-0.2-1.08-0.35-1.38-0.24-0.49-0.8-0.34-1.49-0.34-0.76,0-1.01,0.21-1.49,0.45-0.51,0.26-0.78,0.78-1.26,1.27-0.38,0.38-1.08,0.63-1.6,1.03-0.35,0.26-0.8,0.68-1.04,0.91-0.37,0.38-0.97,0.74-1.37,1.03-0.69,0.52-0.68,0.24-1.15-0.22-0.48-0.48-0.63-0.8-0.8-1.49-0.11-0.46,1.81-1.43,2.18-1.61,0.76-0.38,1.51-0.6,2.06-1.14,0.54-0.54,0.82-0.82,1.26-1.27,0.56-0.56,1.22-0.74,1.61-1.26,0.41-0.54,0.4-0.91,0.11-1.49-0.36-0.71-0.49-0.83-0.92-1.26-0.45-0.45-0.87-0.76-1.26-1.14-0.37-0.37-0.7-0.82-1.03-1.15-0.48-0.49-0.43-0.57-1.26-0.57-0.59,0-1.12,0.67-1.6,0.91-0.77,0.39-1.23,1.08-1.95,1.27-0.66,0.16-1.24,0.9-1.72,1.26-0.57,0.42-0.8,0.85-1.49,1.03-0.86,0.21-0.92,0.22-0.92-0.8,0-0.94,0.12-1.04,0.57-1.49,0.56-0.56,1.6-0.69,2.07-1.15,0.43-0.44,0.79-0.67,1.03-1.15,0.28-0.55,1.21-0.84,1.72-1.14,0.5-0.3,0.7-0.73,0.8-1.15,0.11-0.45,0.46-0.97,0.46-1.6,0-0.32-1.55-0.02-1.61,0-0.85,0.21-1.17,0.33-1.95,0.91-0.51,0.39-0.86,0.85-1.26,1.38-0.44,0.59-0.53,0.61-1.14,0.92-0.82,0.4-1.25,0.57-1.95,0.57-0.62,0,0.08-1.24,0.23-1.84,0.1-0.41,1.08-0.81,1.37-1.03,0.71-0.53,1.69-0.78,2.41-1.14,0.7-0.35,0.82-0.72,1.15-1.38,0.3-0.61-0.17-1.31-0.46-1.6-0.32-0.32-1.79,0.09-2.06,0.23-0.63,0.31-1,0.67-1.5,0.91-0.53,0.27-0.97,0.85-1.37,1.15-0.54,0.41-1.45,0.9-1.95,1.15-0.61,0.3-1.39,0.81-1.83,1.14-0.46,0.34-0.28-1.4-0.23-1.6,0.13-0.54,0.24-1.31,0.34-1.72,0.14-0.54,0.13-1.31,0.23-1.72,0.06-0.23,0.11-0.4,0.11-0.69l0.12-8.71c0.12-0.49,1.15,0.47,1.15-0.92v-1.72c0-0.91-0.08-0.99-0.58-1.49-0.59-0.59-1.35-0.84-2.06-1.37-0.74-0.56-1.07,0.31-1.26,0.69-0.34,0.68-0.78,1.12-1.26,1.6-0.34,0.33-0.59,0.82-0.92,1.15-0.43,0.43-0.58,0.8-0.92,1.26-0.27,0.36-0.83,0.68-1.14,0.92-0.49,0.36-0.61,0.64-1.15,0.91-0.41,0.21-0.52,0.72-1.15,1.03-0.43,0.22-0.64-0.74-1.03-1.03-0.77-0.58-1.56-1.05-0.69-1.49,0.29-0.14,0.69-1.38,0.81-1.6,0.26-0.54,1.73-0.87,2.29-1.15,0.67-0.34,0.84-0.85,1.03-1.6,0.16-0.63,0.08-1.35,0.23-1.95,0.2-0.8-0.36-1.17-0.69-1.61-0.26-0.34-1.28,0.64-1.37,0.69-0.37,0.19-0.98,0.75-1.27,1.03-0.46,0.47-0.48,0.86-0.8,1.49-0.29,0.58-0.5,0.73-1.03,1.26-0.4,0.41-0.73,0.85-1.03,1.15-0.59,0.59-0.67,0.74-1.38,0.92-0.73,0.18-0.91-0.11-1.37-0.58-0.45-0.44-0.37-1.18-0.23-1.72,0.19-0.75,0.04-0.99,0.34-1.6,0.34-0.68,0.38-0.98,0.69-1.6,0.26-0.53,0.6-0.95,1.03-1.38,0.32-0.31,0.71-1.06,1.03-1.49,0.3-0.39-0.12-1.5-0.23-1.72-0.26-0.53-1.44-0.11-1.83-0.11-0.75,0-1.02,0.67-1.26,1.14-0.27,0.55-0.22,1.14-0.69,1.61-0.41,0.41-0.74,1.58-1.03,2.06-0.34,0.56-0.41,0.96-0.8,1.49-0.39,0.52-1.06,0.7-1.49,1.03-0.57,0.43-0.58,0.56-0.92-0.11-0.18-0.36,0-1.31,0-1.72v-1.72c0-0.54-0.12-1.12-0.12-1.72v-1.83-1.84c0-0.82-0.23-1.56-0.23-2.4v-1.72c0-0.63-1.2-0.23-1.6-0.23-0.63,0-1.27-0.03-1.83,0.11-0.51,0.13-0.69,0.58-0.69,1.26v1.95c0,0.75-0.02,1.5,0.11,2.18,0.18,0.89-0.06,0.92,0.69,1.37,0.44,0.27,0.23,1.39,0.23,1.84,0,0.39-1.1,0.23-1.49,0.23-1.02,0-0.97-0.34-1.38-1.15-0.27-0.55-0.23-1.08-0.23-1.72,0-0.62-0.26-0.87-0.45-1.26-0.25-0.49-0.59-0.93-0.92-1.26-0.38-0.38-0.69-0.99-0.69-1.49,0-0.53-0.11-1.15-0.11-1.72,0-0.49-0.18-1.15-0.35-1.49-0.29-0.58-0.75-0.6-0.92-1.26-0.11-0.46-1.09-0.46-1.49-0.46-0.79,0-1.02,0.23-1.37,0.57-0.56,0.56-0.33,1.28,0.11,1.72,0.55,0.55,0.51,0.91,0.81,1.49,0.25,0.52-0.01,1.25,0.22,1.72,0.3,0.59,0.4,1.12,0.58,1.84,0.17,0.67,0.62,0.66,0.8,1.37,0.15,0.61,0.26,1.15-0.34,1.15h-1.84c-1.22,0-1.22,0.06-1.49-1.03-0.12-0.48-0.57-0.93-0.69-1.38-0.15-0.62-0.32-1.17-0.45-1.72-0.18-0.71-0.73-1.44-1.04-2.06-0.29-0.58-0.61-0.87-0.8-1.61-0.13-0.52-0.86-1.14-1.03-1.49-0.31-0.61-0.67-0.87-0.92-1.37-0.28-0.57-0.41-0.84-1.03-0.69-0.66,0.17-0.93,0.25-1.26,0.92-0.28,0.55,0.46,1.42,0.69,1.72,0.46,0.62,1.07,1.54,1.26,2.29,0.16,0.64,0.61,1.11,0.91,1.72,0.36,0.71,0.73,1.06,0.92,1.83,0.17,0.66,0.51,1.07,0.35,1.72-0.14,0.54-1.42-0.42-1.49-0.46-0.41-0.2-0.89-0.65-1.15-0.91l-1.15-1.15c-0.37-0.37-0.74-0.53-1.03-0.92-0.34-0.45-0.72-0.63-0.92-1.03-0.28-0.57-0.68-0.91-0.91-1.37-0.36-0.71-0.76-1.2-1.26-1.84-0.45-0.55-0.7-1.15-1.15-1.6s-0.61-0.72-1.03-1.15c-0.48-0.47-0.6-0.7-1.26-1.03-0.52-0.25-1.53,0.14-1.72,0.23-0.25,0.12-0.12,1.72-0.12,2.06,0,0.38,0.85,1.7,1.03,1.95,0.54,0.71,0.51,0.96,1.15,1.61,0.55,0.55,0.77,0.88,1.38,1.49,0.44,0.44,0.82,0.81,1.26,1.03,0.79,0.39-0.8,0.8-1.03,0.8-0.9,0-0.94-0.14-1.5-0.69l-1.37-1.37c-0.22-0.17-0.66-0.78-0.92-1.03-0.45-0.45-0.99-0.28-1.14,0.34-0.15,0.59-0.06,1.26-0.58,1.26-0.79,0-1.09-0.09-1.6-0.34-0.59-0.3-0.81-0.55-1.49-0.69-0.7-0.14-1.1-0.31-1.26,0.34-0.23,0.91-0.26,0.69-1.38,0.69-0.79,0-0.96-0.43-1.61-0.92-0.54-0.41-1.04-1.03-1.49-1.37-0.49-0.37-0.66-0.73-1.26-1.03-0.45-0.23-1.09-0.87-1.37-1.15-0.44-0.44-1.18-0.99-1.72-1.26-0.49-0.24-0.87-0.74-1.26-1.26-0.34-0.45-0.83-0.79-1.15-1.03-0.61-0.46-0.76-0.73-1.38-1.03-0.58-0.3-1.01-0.74-1.37-0.92-0.48-0.24-1.11-0.24-1.61-0.12-0.15,0.04-0.3,0.08-0.46,0.12-0.78,0.19-0.57,0.59-0.57,1.37,0,0.79-0.78,0.58-1.37,0.58-0.52,0-0.62-0.84-1.04-1.15-0.78-0.59-1.04-0.43-1.83-0.23-0.71,0.18-1.01,0.21-0.8,1.03,0.22,0.89,0.27,1.2,0.91,1.84,0.48,0.47,0.96,0.74,1.49,1.14,0.39,0.3,0.8,0.78,1.04,1.26,0.2,0.42,1.25,0.92,1.72,1.15,0.15,0.08,0.3,0.15,0.45,0.23,0.58,0.29,1.08,0.86,1.38,1.26,0.33,0.44,1.52,0.71,2.06,1.15,0.39,0.31,0.82,0.68,1.38,0.68,0.75,0,0.45,0.58,0.11,0.92s-1.06,0.23-1.6,0.23h-1.83-1.84-2.18c-0.53,0-0.52,0.81-0.69,1.15-0.2,0.41-0.98-0.21-1.26-0.58-0.49-0.65-0.72-0.96-0.34-1.72,0.27-0.53,0.11-1.35,0.11-1.94,0-1.35-0.27-1.07-0.91,0-0.27,0.44-1.05,0.35-1.49,0.68-0.37,0.28-1.49,0.12-1.95,0.12h-0.23c-0.59,0-0.8,1.29-0.8,1.72,0,0.87-1.01-0.21-1.15-0.35-0.48-0.47-1.11-0.53-1.49-0.91-0.39-0.4-0.99-0.88-1.38-1.26-0.41-0.42-0.92-0.81-1.37-1.27-0.47-0.46-0.71-0.82-1.03-1.14-0.5-0.5,0.83,0.89,1.03,1.14,0.42,0.57,0.38,0.96,0.8,1.38,0.47,0.47,1.07,0.48,1.61,1.15,0.46,0.58,1.13,1.25,1.6,1.72,0.49,0.49,0.9,0.79,1.61,1.14,0.74,0.37,1.83,1.28,1.83,2.06,0,0.58-0.52,0.72-0.92,0.92-0.7,0.35-0.98,0.53-1.49,1.03-0.35,0.35-0.62,0.51-0.92,0.81-0.48,0.48-0.73,0.93-1.14,1.49-0.35,0.45-0.72,0.63-0.92,1.03-0.2,0.39-0.96,0.75-1.26,1.14-0.35,0.47-0.91,0.68-1.26,1.03-0.61,0.61-1.26,0.92-1.84,1.49-0.39,0.4-1.2,0.37-1.6,0.58-0.45,0.22-0.87,0.33-1.38,0.46-0.63,0.15-1.59,0.03-2.17-0.12-0.44-0.11-1-0.65-1.27-0.92-0.51-0.51-1.33-0.76-1.72-1.14-0.53-0.53-0.9-0.8-1.49-1.38-0.53-0.53-0.84-0.65-1.14-1.26-0.2-0.4-0.12-1.15-0.12-1.72,0-0.7,0.07-1.36-0.23-1.95-0.29-0.57-0.66-0.71-0.8-1.26-0.14-0.56-0.11-1.12-0.11-1.72,0-0.64,0.08-1.15,0.23-1.71,0.18-0.74,0.67-1.13,1.14-1.61,0.3-0.3,0.35-1.17,0.46-1.6,0.16-0.64,0.59-1.16,1.03-1.38,0.68-0.34,0.89-1.11,1.26-1.49,0.37-0.36,1-0.46,1.61-0.46,0.67,0,1.25,0.11,1.72,0.23,1.1,0.28,1.1-0.27,0.57-0.8-0.48-0.48-1.39-0.46-2.06-0.46-0.56,0-1.05,0.36-1.49,0.69-0.54,0.4-0.8,0.57-1.15,0.92-0.49,0.49-0.94,0.94-1.37,1.37s-0.77,0.42-1.15,0.8c-0.53,0.53-0.72,0.24-0.92,1.03-0.13,0.53,0,1.29,0,1.84v1.95,2.75c0,0.69,0.11,1.15-0.34,1.6-0.4,0.4-1.29,0.23-1.84,0.23-0.79,0-1.38-0.01-1.83-0.46-0.37-0.37-1.14-0.23-1.72-0.23-0.68,0-0.9,0.22-1.26,0.58-0.4,0.4-0.9,0.56-1.38,0.68-0.58,0.15-1.09,0.23-1.83,0.23-0.95,0-2.11,0.19-2.87,0-0.16-0.04,0.09-1.82,0.12-1.94,0.15-0.61,0.23-1.21,0.23-1.84,0-0.35-0.9-1.11-1.15-1.6-0.41-0.82-1.38-0.36-1.38,0.34,0,0.76-0.11,1.44-0.11,2.18,0,0.79-0.07,1.19,0.46,1.72,0.42,0.42,0.34,1.18,0.34,1.83v1.72c0,0.55-1.62,0.34-2.06,0.34h-1.84c-0.36,0-0.36-1.37,0.46-1.37,0.28,0,0.61-1.09,0.69-1.26,0.17-0.34,0.11-1.47,0.11-1.84,0-0.72,0.12-1.32,0.12-2.06,0-0.85-0.67-1.08-1.38-1.6-0.79-0.6-0.68,0.78-0.68,1.14,0,0.93-0.25,1.8-0.46,2.64-0.13,0.49-0.2,1.14-0.35,1.72-0.18,0.73-1.22-0.41-1.26-0.46-0.26-0.35-0.1-1.17-0.34-1.49-0.35-0.46-1.52-0.34-2.07-0.34-0.66,0-0.47,0.83-0.34,1.37,0.18,0.73,0.16,1.41-0.11,1.95-0.41,0.82-0.57,1.82-0.92,2.52-0.28,0.57,0.93,0.93,1.37,1.26,0.4,0.3-0.23,1.01-0.11,1.49,0.22,0.88,1.15,0.37,1.15,1.61,0,0.67,0.12,1.32,0,1.83-0.11,0.42-0.96,0.81-1.38,0.92-0.95,0.23-1.53,0.8-2.64,0.8-0.64,0-0.59,0.35-1.37-0.23-0.44-0.33-0.97-0.63-1.38-1.03-0.49-0.5-0.57-0.82-0.57-1.49,0-0.58,0.11-0.95,0.11-1.61,0-0.96-0.18-0.91-1.14-0.91h-1.95c-0.55,0-1.23-0.02-1.61-0.12-0.51-0.13-0.99-0.66-1.49-0.91-0.44-0.23-0.57-0.96-0.57-1.49,0-0.77,0.11-1.09-0.57-1.27-0.77-0.19-1.76,0.35-2.64,0.35-0.72,0-0.95,0.8-1.72,0.8-1.56,0-3.23,0.12-4.82,0.12-0.77,0-1.08,0.48-1.72,0.8-0.78,0.39-2.45-0.03-3.32,0.11-0.67,0.11-1.49,0-2.18,0-0.48,0-0.96,0.53-1.6,0.69-1.33,0.33-2.72,0.46-4.13,0.46h-1.72c-0.82,0-1.08-0.07-1.26-0.8-0.18-0.7-0.19-0.7-1.15-0.46-0.56,0.14-0.08,1.19-0.34,1.72-0.14,0.27-1.65,0.11-1.95,0.11-1.23,0-2.53,0.69-3.9,0.69-1.36,0-0.1,0.58,0.35,0.8,0.68,0.34,1.75,0.23,2.52,0.23,0.8,0,1.38,0.58,1.72,0.92,0.36,0.36,0.11,1.03,0.34,1.49,0.26,0.26-1.8-0.12-3.44-0.12h-2.18c-0.7,0-1.2,0.22-1.72,0.35-0.79,0.2-1.19,0.8-2.17,0.8-0.63,0-1.28-0.03-1.84,0.11s-1.37,0-1.95,0c-0.63,0-1.38,0-1.83,0.12-0.71,0.18-0.88,0.83-1.72-0.57-0.6-0.99-1.03-1.69-1.03-2.87,0-0.79,0.56-0.91,1.14-1.26,0.49-0.3,1-0.46,1.72-0.46,0.59,0,1.19-0.34,1.95-0.34,0.79,0,1.47-0.06,2.18-0.23,0.9-0.23,1.62-0.24,2.52-0.46,1.33-0.33,1.91-0.35,2.98-1.15,0.54-0.4,1.11-0.72,1.72-1.03,0.67-0.33,1.09-0.9,1.72-1.37,0.45-0.34,0.88-0.45,1.38-0.58,0.56-0.14,1.09-0.23,1.72-0.23,1.15,0,2.45,0.16,3.55-0.11,0.79-0.2,1.82,0,2.64,0,0.92,0,0.82-0.41,1.6-0.8,0.61-0.3,0.69-1.05,0.81-1.49,0.14-0.56,0.46-0.93,0.68-1.38,0.38-0.75-0.14,0.03-0.45,0.35-0.39,0.38-0.97,0.89-1.27,1.49-0.19,0.38-1.2,0.2-1.72,0.45-0.55,0.28-1.46,0.12-2.06,0.12h-2.06c-0.93,0-1.69,0.02-2.53,0.23-0.58,0.14-1.34,0.11-1.94,0.11-0.98,0-2.77,1.27-3.67,1.72-0.52,0.26-1.05,0.69-1.72,0.69-0.64,0-1.02-0.56-1.38-0.92-0.48-0.48-1.83-0.57-2.52-0.57-0.87,0-1.66,0.46-2.64,0.46-0.67,0-1.21,0.34-2.06,0.34-0.89,0-1.38,0.46-1.84,0.92-0.47,0.47-0.9,0.56-1.49,1.14-0.64,0.65-1.84,1.16-2.52,1.49-0.47,0.24-1.14,0.43-1.72,0.58-0.62,0.15-1.31,0.53-1.95,0.69-0.84,0.21-1.46,0.38-2.06,0.68-0.53,0.27-1.16,0.47-1.61,0.58-0.53,0.13-1,0.3-1.6,0.45-0.75,0.19-1.24,0.23-2.06,0.23h-2.18c-0.86,0-1.57,0.12-2.41,0.12h-2.06c-0.95,0-1.38-0.02-2.18,0.46-0.48,0.28-1.08,0.48-1.49,0.68-0.52,0.26-1.15,0.35-1.72,0.35-0.67,0-1.34-0.01-1.95,0.11-0.11,0.03-0.23,0-0.34,0-0.88,0.18-0.94,0.47-1.84,0.69-0.63,0.16-1.31,0.3-1.95,0.46-0.62,0.15-1.14,0.23-1.83,0.23-0.65,0-1.26,0.23-1.95,0.23-0.63,0-1.38,0-1.84,0.11-0.74,0.19-1.6,0.12-2.4,0.12-0.63,0-1.19,0.3-1.72,0.57-0.54,0.27-1.95,0-2.53,0-0.67,0-1.27-0.05-1.83,0.23-0.68,0.34-0.98,0.49-1.6,0.8-0.72,0.36-1.36,0.57-2.18,0.57h-2.64c-0.58,0-1.31,0.02-1.72,0.12-0.77,0.19-1.53,0.42-2.29,0.57-0.56,0.11-1.18,0.1-1.72,0.23-0.62,0.16-1.09,0.39-1.84,0.57-0.79,0.2-1.78,0.35-2.63,0.35h-1.84-2.06-1.84l-8.94-5.5-5.96-5.62c-0.79,0-0.95-0.49-1.38-0.92-0.38-0.38-0.48-0.6-0.91-1.03-0.26-0.25-0.8-1.1-1.03-1.49-0.38-0.62-0.94-1.16-1.5-1.72l-0.34-0.34c-0.36-0.36-0.8-0.8-1.26-1.03-0.47-0.24-1.35-1.39-1.95-1.84-0.52-0.38-0.81-0.92-1.38-1.26-0.36-0.22-1.13-0.14-1.49-0.23l-10.89-0.34c-0.84-0.51-0.75-0.57-2.06-0.57-0.63,0-1.27,0.02-1.84-0.12-0.28-0.07-0.81-0.82-1.03-1.03-0.14-0.14-0.46-1.26-0.57-1.49-0.29-0.58-0.78-1.09-1.03-1.72-0.16-0.38-0.78-0.78-1.03-1.03l-1.15-1.15c-0.4-0.39-0.36-0.7-0.8-1.14-0.43-0.43-0.75-0.63-1.15-1.03-0.55-0.55-0.64-0.48-1.49-0.69-0.53-0.13-1.28,0-1.83,0h-1.72c-0.86,0-0.69,0.24-0.69,1.03,0,0.63,0.22,1.24,0.34,1.72,0.13,0.5,0,1.2,0,1.72s-0.11,0.97-0.11,1.6v1.95,1.95,2.18,0.57c0,0.86-0.24,0.98-0.8,1.26-0.41,0.21-0.6,0.79-0.69,1.15-0.18,0.7-0.46,0.9-0.46,1.72,0,0.62,0.11,1.09,0.11,1.72,0,0.56,0.57,0.9,0.69,1.37,0.11,0.43-0.92,0.43-0.92,1.15v1.72c0,0.57,0.21,0.93-0.23,1.37-0.46,0.47-0.59,0.77-0.22,1.49,0.15,0.31,0,1.13,0,1.49,0.13,0.28-0.81,1.38-0.81,1.95,0,0.41-0.22,0.91-0.34,1.38-0.09,0.35-0.87,1.23-1.15,1.6-0.32,0.42-0.21,1.1-0.34,1.61-0.15,0.58-0.23,1.15-0.35,1.6-0.06,0.25-0.92,0.81-1.14,1.03-0.33,0.33-0.46,0.81-0.46,1.38,0,0.59-0.02,1.19,0.11,1.72,0.2,0.77-0.25,1.16-0.68,1.6-0.51,0.5-0.74,0.59-0.46,1.15,0.47,0.94,1.26,0.31,1.26,1.26,0,0.46-0.8,0.68-0.8,1.37,0,0.62-0.01,1.4-0.12,1.84-0.14,0.57-0.42,1.13-0.57,1.72-0.19,0.74-0.14,1.08-0.46,1.71-0.34,0.68-0.58,1.01-1.03,1.61-0.35,0.46-0.84,1.07-1.38,1.6-0.64,0.65-0.83,0.99-1.37,1.26-0.56,0.28-0.73,0.62-1.15,1.04-0.63,0.63-0.83,1.26-1.03,2.06-0.16,0.62-0.12,1.15-0.12,1.83v1.84c0,1.02-0.28,0.91-1.26,0.91-0.92,0,0.12,1.28,0.23,1.49,0.31,0.61,0.12,1.15,0.58,1.61,0.48,0.48,0.4,0.77-0.12,1.03-0.72,0.36-0.8,0.38-0.8,1.26v1.72c0,0.11-0.89,1.19-1.03,1.37-0.31,0.41-0.5,1.22-0.69,1.61-0.34,0.68-0.63,1.23-0.8,1.95-0.13,0.48-0.35,0.96-0.35,1.49-0.05,0.21-0.23,0.38-0.34,0.57-0.26,0.43-0.56,0.74-0.69,1.26-0.13,0.53-0.22,0.88-0.34,1.38-0.19,0.74-0.04,1.21-0.35,1.83-0.27,0.55-0.69,1.16-0.92,1.6-0.29,0.6-0.3,1.1-0.45,1.72-0.2,0.8-0.28,1.47-0.58,2.07-0.25,0.51-0.64,1.07-0.8,1.72-0.14,0.57-0.32,0.81-0.46,1.37-0.16,0.66-0.67,1.55-0.92,1.95-0.42,0.71-0.53,0.91-1.14,1.37-0.65,0.49-0.75,1.1-1.38,1.72-0.61,0.62-0.75,1.44-1.26,1.95-0.42,0.42-0.81,1.52-1.03,1.95-0.25,0.5-0.55,1.27-0.69,1.83-0.16,0.66,0.23,1.19,0.23,1.84,0,0.96-0.62,0.62-1.26,1.26-0.41,0.4-1.02,0.76-1.38,1.03-0.56,0.42-0.6,0.82-1.26,1.15-0.58,0.29-0.98,0.49-1.37,0.68-0.48,0.24-0.83,0.58-1.26,0.69-0.6,0.15-1.22,0.23-1.84,0.23h-2.06c-0.83,0-1.39-0.17-1.61,0.69-0.25,0.99,0.01,1.26-1.14,1.26h-2.3-2.63c-0.78,0-0.91,0.22-1.38,0.46-0.61,0.31-1.06,0.75-1.26,1.26-0.24,0.6-0.51,1.08-0.8,1.37-0.46,0.46-0.75,0.53-1.26,1.04-0.49,0.48-0.74,0.7-1.15,1.26-0.63,0.83-0.86,0.8-1.95,0.8h-1.83-1.72c-0.48,0-1.01,0.5-1.38,0.69-0.55,0.27-0.83,0.58-1.26,0.8-0.6,0.3-1.26-0.23-1.49-0.35-0.45-0.22-0.86-0.51-1.26-0.91-0.18-0.18-0.79-0.39-1.03-0.58-0.46-0.45-0.92,0.92-1.38,1.38-0.37,0.37-1.12,0.57-1.6,0.57-0.6,0-1.3,0.76-1.95,0.92-0.56,0.14-0.79,0.34-1.61,0.34-0.91,0-1.29-0.08-1.95-0.57-0.64-0.48-2.2-0.61-2.98-0.8-0.86-0.22-1.68-0.84-2.52-1.26-0.88-0.44-1.62-1.16-2.52-1.61-0.74-0.36-0.97-0.55-1.61-1.03-0.77-0.57-1.17-0.92-2.06-0.92-0.81,0-1.1,0.04-1.72,0.35-0.57,0.29-1.05,1.16-1.49,1.6-0.21,0.21-1.49,0.12-1.84,0.12-0.75,0-1.51,0.11-2.29,0.11-0.66,0-1.85,0.41-2.52,0.58-0.83,0.2-1.39,0.34-2.29,0.34-0.85,0-1.39,0.06-2.07,0.23-0.69,0.17-0.88,0.38-1.37-0.12-0.43-0.42-1.02-0.91-1.61-0.91-0.67,0-1.25-0.35-2.06-0.35-0.63,0-1.18,0.12-1.84,0.12-0.56,0-1.22,0.11-1.83,0.11-0.64,0-1.26,0.46-1.72,0.8-0.44,0.34-0.34,0.92-0.69,1.27-0.57,0.57-0.92,0.63-1.49,0.91-0.52,0.26-0.94,0.3-1.49,0.58-0.64,0.31-1.15,0.57-1.15,1.37,0,0.07-1.27,0.81-1.37,0.92-0.49,0.49-0.69,0.91-1.03,1.37-0.33,0.44-0.63,0.79-0.92,1.38-0.26,0.52-0.1,1.23-0.34,1.72-0.22,0.44-0.98,0.46-1.27,1.03-0.22,0.44-0.93,0.7-1.26,1.03-0.34,0.34-0.99,0.61-1.37,0.8-0.56,0.28-0.93,0.58-1.38,0.8-0.54,0.27-0.91,0.46-1.37,0.69-0.63,0.31-1,0.76-1.38,1.26-0.39,0.52-0.67,0.8-1.15,1.03-0.67,0.34-0.88,0.73-1.49,1.04-0.87,0.43-1.33,0.8-2.29,0.8-0.63,0-1.28-0.03-1.83,0.11-0.52,0.13,0.13,1.09,0,1.61-0.06,0.21-1.13,0.55-1.26,0.69-0.09,0.08-1.7,0.19-1.84,0.22-0.62,0.16-0.79,0.63-0.92,1.15-0.08,0.35-0.05,0.34-0.11,0.69-0.06,0.25,0.57,1.11,0.57,1.72,0,0.43-0.72,0.88-1.03,1.03-0.46,0.23-0.88,0.56-1.38,0.69-0.56,0.14-0.69,0.59-0.8,1.03-0.13,0.51-0.11,1.21-0.11,1.72,0,0.6,0.02,1.17-0.12,1.72-0.17,0.69-0.26,0.83-0.69,1.26-0.61,0.61-0.67,0.66-1.6,1.03-0.54,0.21-0.79,0.43-1.03,0.92-0.28,0.56-0.58,0.53-0.58,1.37,0,0.95,0.63,1.6,1.04,2.41,0.25,0.5,0.44,0.84,0.57,1.37,0.12,0.5,0,1.2,0,1.72,0,0.56-0.15,1.13,0,1.72,0.16,0.66,0.19,1.18-0.23,1.61-0.33,0.33-0.23,0.94-0.23,1.49,0,0.52-0.11,0.97-0.11,1.6,0,0.71-0.13,1.25,0.34,1.72,0.56,0.56,1.26,0.89,1.26,1.6,0,0.64,0.82,1.05,1.26,1.38,0.62,0.46,1.01,1.06,1.15,1.6,0.25,1,1.55,1.46,2.18,2.3,0.37,0.49,0.23,1.23,0.23,1.83,0,0.79,0.07,1.19,0.46,1.83,0.5,0.84,0.51,2.05,0.8,3.21,0.09,0.35,0.23,0.69,0.34,1.03,0.35,1.05-0.2,1.29,0.46,1.95,0.61,0.61,1.12,1.16,0.92,1.95-0.16,0.63-0.35,0.83-0.35,1.61,0,0.66-1.6,0.62-0.34,1.26,0.77,0.38,0.8,0.22,1.03,0.68,0.13,0.26-0.77,0.26-0.11,0.92l-0.23,15.13" fill-rule="evenodd" stroke-dashoffset="0" stroke="#27aaea" stroke-linecap="butt" stroke-miterlimit="4" stroke-width="0.99984044" fill="#daf0fd"/>
  <path id="path3669" stroke-linejoin="round" style="stroke-dasharray:none;" d="M179.03,390.92c0.17,0.34,0.74,0.76,1.03,1.15l-0.46,23.38,0.23,12.49c-0.64,0.25,0.38,1.33,0.69,1.95,0.24,0.48,0.23,1.13,0.23,1.72v2.29c0,0.6,0.23,0.95,0.23,1.72,0,0.55,0.34,1.01,0.34,1.72,0,0.73,1.03,0.9,1.03,1.83v1.72c0,0.8,0.21,1.36,0.58,1.72,0.72,0.72,0.28,0.71,0.11,1.37-0.15,0.61-0.23,1.05-0.23,1.72,0,0.64,0.01,1.17,0.23,1.61,0.25,0.49,0.46,1.04,0.46,1.49v1.72,1.72c0,0.7,0.07,1.22,0.23,1.83,0.12,0.5,0,1.2,0,1.72v1.72c0,1.05,1.32,1.02,1.03,2.18-0.13,0.5,0,1.2,0,1.71v1.84c0,0.24,0.84,1.35,1.03,1.6,0.27,0.36-0.16,1.23-0.23,1.49-0.1,0.43-0.11,1.03-0.11,1.61,0,0.59,0.14,1.19,0.34,1.6,0.18,0.36,0,1.31,0,1.72,0,0.18,0.47,0.12,0.57,0.12,0,0.75-0.55,0.95-0.68,1.49-0.17,0.67,0.03,1.12,0.57,1.26,0.34,0.08,0,1.94,0,2.17,0,0.66-0.11,1.23-0.11,1.84v1.72c0,0.7,0.09,1.06,0.22,1.6,0.14,0.56,0.12,1.13,0.12,1.72,0,0.71-0.12,1.26-0.12,1.95,0,0.89,0.35,1.51,0.35,2.29v1.95,1.83c0,0.81,0.1,1.25,0.57,1.72,0.65,0.65,0.8,1.03,0.8,1.95,0,0.58,0.31,1.46,0.46,2.06,0.17,0.67,0.12,1.45,0.12,2.18,0,0.81,0.64,1.62,0.8,2.41,0.1,0.49,0.11,1.11,0.23,1.6,0.19,0.78,0.65,1.76,1.03,2.52,0.09,0.19,0.15,0.39,0.23,0.58,0.26,0.65,0.23,1.36,0.23,2.06,0,0.67-0.1,1.2-0.23,1.72-0.16,0.65-0.1,1.34-0.34,1.83-0.2,0.41-0.25,1-0.35,1.38-0.15,0.6,0,1.44,0,2.06v1.84c0,0.74,0.23,1.59,0.23,2.4,0,0.86,0.15,1.39,0.35,2.18,0.19,0.78,0.16,1.57,0.34,2.29,0.14,0.56,0.34,1.07,0.34,1.61,0,0.56,0.12,1.22,0.12,1.83v1.72,1.95c0,0.8,0.53,1.32,0.92,1.83,0.17,0.23,0,1.3,0,1.61,0.34,0.46,0.45,1.87,0.45,2.52,0,0.67,0.09,1.13,0.23,1.72,0.18,0.72,0.35,1.16,0.35,1.94,0,0.85,0.8,1.5,0.8,2.41,0,0.6,0.23,1.27,0.23,1.95,0,0.81-0.29,1.25-0.57,1.95-0.22,0.55-0.57,0.99-0.69,1.49-0.15,0.59-0.12,1.28-0.12,1.95v3.09,1.95,2.64c0,0.97,0.58,1.65,0.58,2.63,0,0.66,0.11,1.38,0.11,2.06,0,0.71,0.12,1.33,0.12,2.07,0,0.77,0.23,1.68,0.23,2.52v1.83c0,0.85-0.04,1.75,0.11,2.52,0.16,0.8,0.11,1.83,0.11,2.64,0,0.7,0.24,1.38,0.46,1.83,0.29,0.57,0.23,1.5,0.23,2.18s0.23,1.22,0.23,1.95v2.18c0,0.81,0.05,1.61-0.11,2.4-0.18,0.88-0.23,1.63-0.23,2.53,0,0.68,0.53,1.19,0.69,1.83,0.16,0.66,0.23,1.21,0.23,1.95,0,0.63,0.11,1.3,0.11,1.95,0,0.88,0.34,1.25,0.69,1.94,0.03,0.08,0,0.36,0,0.46,0.14,0.3-0.12,1.74-0.12,2.18v2.29c0,0.67,0.2,1.13,0.35,1.72,0.18,0.73,0.57,0.92,0.57,1.72v2.06c0,0.86,0.14,1.12,0.34,1.95,0.14,0.53,0,1.29,0,1.84v1.83c0,0.73-0.15,1-0.45,1.6-0.27,0.54-0.35,0.9-0.35,1.61,0,0.57,0.84,1.56,1.03,1.95,0.24,0.47,0.12,1.28,0.12,1.83,0,0.81-0.07,1.67,0.11,2.41,0.04,0.15,0.08,0.3,0.12,0.46,0.24,0.96,0.69,1.48,0.69,2.52,0,0.75,0.22,1.45,0.22,2.18,0,0.85,0.81,1.51,0.81,2.4v1.95,2.52c0,0.74,0.11,1.12,0.11,1.84,0,1.02,0.46,1.77,0.46,2.75v1.95,1.83c0,0.76-0.07,1.57,0.12,2.29,0.05,0.24,0,0.65,0,0.92,0.2,0.8,0.68,1.14,0.68,1.95,0,0.7,0.31,0.78,0.81,1.03,0.71,0.35,0.68,0.59,0.68,1.37,0,0.71,0.08,1.23,0.23,1.84,0.18,0.69,0.25,1.06,0.46,1.49,0.25,0.5,0.41,1.04,0.57,1.72,0.16,0.6,0.84,1.6,1.27,2.17,0.52,0.71,0.59,0.89,0.8,1.72,0.14,0.58-0.02,1.29,0.11,1.84,0.16,0.63,0.16,1.33,0.35,2.06,0.12,0.5,0,1.2,0,1.72,0,0.94,0.21,1.23,0.57,1.95,0.31,0.62,0.55,1.16,0.69,1.72,0.14,0.57,0.31,1.24,0.46,1.83,0.18,0.72,0.4,1.15,0.57,1.83,0.16,0.63,0.46,1.13,0.46,1.84,0,0.77,0.34,1.38,0.34,2.06v1.72c0,0.78,0.07,1.27,0.35,1.95,0.23,0.59,0.47,0.93,0.91,1.37,0.39,0.39,0.23,1.32,0.23,1.84,0,0.72,0.1,1.5,0.23,2.17,0.11,0.56,0,1.27,0,1.84v1.72c0,0.42,0.93,1.62,1.15,1.95,0.34,0.51-0.35,1.11-0.35,1.72,0,0.48,0.12,1.15,0.12,1.71,0,0.44,0.68,1.13,0.8,1.61,0.12,0.47,0.69,0.92,0.8,1.37,0.26,1.02,0.33,1.34,1.15,1.95,0.26,0.2-0.34,0.59-0.34,0.92l-39.9,0.23-135.8-0.49v-79.97-214.93-234.93-94.966h25,5" fill-rule="evenodd" stroke-dashoffset="0" stroke="#27aaea" stroke-linecap="butt" stroke-miterlimit="4" stroke-width="0.99984044" fill="#daf0fd"/>
  <path id="path3673" stroke-linejoin="round" style="stroke-dasharray:none;" d="M654.33,697.93h120v-19.99-5l0.86-28.96c0-0.53-2.51-2.28-2.75-2.75-0.63-1.27-1.99-0.5-2.52-0.23-0.62,0.31-1.38,1.26-2.07,1.6-1.44,0.73-1.4,1.71-1.14,2.75,0.09,0.37,1.74,1.29,2.06,1.61,0.61,0.61,2.35,1.22,2.98,1.37,1.28,0.32-0.82,2.43-0.91,2.53-0.67,0.66-2.44,0.96-2.99,1.37-0.66,0.5-0.73,2.38-1.14,3.21-0.52,1.04-0.77,1.68-1.61,2.52-0.88,0.88-1.22,1.68-1.83,2.29-0.72,0.72-2.09,0.46-3.21,0.46-1.78,0-2.41,1.49-3.67,0.23-0.65-0.65-0.61-1.76-1.61-2.75-1.02-1.03-1.38-2.07-2.52-3.21-1.01-1.01-2-1.31-2.75-2.06-0.6-0.6-2.52-0.69-3.44-0.69-1.33,0-2.21-0.07-2.98-0.46-1.11-0.55-1.66-1.26-2.06-2.06-0.32-0.64-1.97-1.41-2.75-1.61-0.72-0.18-2.51,0.23-3.44,0.23h-3.67c-1.36,0-2.23-0.45-3.44-0.45-0.6,0-1.16-1.87-1.38-2.3-0.38-0.76-1.59-1.82-2.06-2.29-0.73-0.73-1.63-1.62-2.52-2.29-0.86-0.64-1.27-1.5-2.07-2.29-0.88-0.89-1.45-1.86-2.29-2.98-0.73-0.97-0.85-1.55-1.15-2.75-0.25-1.02,0.01-2.55,0.23-3.44,0.25-1,0-2.4,0-3.44,0-1.18-0.67-2.01-0.91-2.98-0.28-1.11-1.04-1.9-1.84-2.29-1.03-0.52-2.79,0.25-3.21,0.46-1.12,0.55-1.56,1.1-2.29,1.83-1,1-1.68,0.51-2.07,2.06-0.23,0.94-1.27,1.73-1.83,2.29-0.65,0.65-1.17,1.95-1.6,2.53-0.47,0.61-1.42,0.98-2.07,1.14-0.9,1.21-3.37-0.31-3.67-0.46-0.78-0.39-1.53-1.72-2.29-2.29-0.79-0.59-2.2-0.43-3.21-0.69-1.09-0.27-1.56-1.1-2.29-1.83-0.79-0.79-1.25-1.24-2.07-2.06l-2.29-2.29c-0.97-0.97-2.73-1.74-3.67-2.3-0.74-0.44-2.84-0.02-3.67-0.23-0.09-0.02,1.05,2.2,1.15,2.3,0.84,0.84,1.38,1.09,2.52,1.37,0.89,0.22,1.52,1.03,2.29,1.61,0.75,0.56,1.31,1.47,2.3,2.06,0.91,0.55,1.28,1.28,1.83,1.83,0.63,0.63,1.69,0.94,2.52,1.15,0.53,0.13,1.52,1.74,1.84,2.06,0.8,0.8,0.92,1.07,0.92,2.52,0,1.19-0.74,1.88-1.38,2.52-0.81,0.81-0.79,1.43-0.46,2.76,0.2,0.81,1.45,1.45,1.84,1.83,0.66,0.66,0.59,1.51,1.14,2.06,1.48,1.48,1.9,1.87,2.29,3.44,0.21,0.8,2.97,0.92,3.67,0.92,1.65,0,1.94,0.28,3.21,0.91,1.45,0.73,2.73,1.71,3.9,2.3,0.88,0.43,1.73,0.81,2.29,1.37,0.72,0.71,2.23,1.61,3.21,1.61,0.39,0,2.24,2.08,2.53,2.29,0.95,0.71,1.46,1.92,2.06,2.52,0.71,0.71,1.51,0.51,2.06,1.6,0.42,0.84-1,2.01-1.37,2.3-1.08,0.81-1.86,0.1-2.29,1.83-0.24,0.96-0.43,1.68-0.69,2.75-0.4,1.6,0.19,1.9-1.38,2.29-1.39,0.35-1.72,0.57-2.52,1.38-0.76,0.76-1.31,0.85-2.06,1.6-0.34,0.34-2.17,0.97-2.53,1.15-0.54,0.27-0.23,2.63-0.23,3.21,0,1.79,0.01,2.11-1.14,2.98-0.55,0.41-1.92,0.76-2.52,0.91-0.81,0.21-0.92,2.06-0.92,2.76,0,0.96-0.23,2.31-0.23,3.43,0,0.94,1.63,0.95,2.29,1.61,0.81,0.8,1.29,0.92,2.75,0.92,0.82,0,1.59,2.1,2.07,2.75,0.87,1.16,2.29-0.95,2.29,1.6,0,1.13,1.1,1.15,2.29,1.15h3.67c0.5,0-0.05-2.3,1.61-2.3,1.2,0,2.2-0.27,3.21,0.23,1.22,0.61-0.6,2.07-1.38,2.07-1.5,0-1.35,1.1-1.83,2.06-0.11,0.22-3.07,0-3.44,0h-3.67-3.67-3.44-3.44c-1.05,0-1.98-0.83-2.52-1.38-0.77-0.77-2.36-0.45-3.44-0.45h-3.67c-1.05,0-2.3-0.23-3.44-0.23-1.19,0-2.58-0.02-3.44-0.23-1.14-0.29-1.91-1-2.52-1.61-0.73-0.73-1.11-1.8-1.83-2.52-0.68-0.68-1.91-0.42-2.76,0-0.77,0.39-1.33,1.11-1.83,1.61-0.7,0.7-1.77,1.13-2.29,1.83-0.92,1.22-0.57,1.6-2.3,1.6-1.58,0-2.55-0.02-3.44-0.68-0.86-0.66-1.34-1.34-2.06-2.07-0.58-0.57-2.63,0.83-2.98,0.92-1.12,0.28-2.74,0-3.9,0-1.25,0-1.57,0.88-2.29,1.61-0.78,0.77-1.04,1.61-1.63,2.83z" fill-rule="evenodd" stroke-dashoffset="0" stroke="#27aaea" stroke-linecap="butt" stroke-miterlimit="4" stroke-width="0.99984044" fill="#daf0fd"/>
  <path id="path3675" stroke-linejoin="round" style="stroke-dasharray:none;" d="M528.7,103.48c-0.26,0.02-0.72-0.09-1.15-0.18-0.35-0.07-0.57-0.17-0.97-0.17-0.24,0-0.45,0.23-0.8,0.23-0.37,0-0.66,0.1-0.92,0.23s-0.24,0.54-0.34,0.75c-0.14,0.27-0.42,0.35-0.69,0.45-0.21,0.09-0.4,0.36-0.46,0.58-0.07,0.28-0.21,0.45-0.34,0.63-0.2,0.26-0.29,0.3-0.29,0.8,0,0.31,0.17,0.6,0.17,0.97,0,0.55,0.1,0.5,0.52,0.81,0.31,0.23,0.66,0.26,0.86,0.46,0.31,0.3,0.09,0.64,0.51,0.85,0.38,0.19,0.75,0.76,0.98,0.98,0.31,0.31,0.57,0.83,0.86,1.2,0.19,0.26,0.36,0.26,0.46,0.63,0.05,0.23,0.37,0.49,0.57,0.69,0.31,0.31,0.55,0.5,0.8,0.75,0.35,0.34,0.59,0.73,0.86,1.08,0.22,0.29,0.42,0.36,0.69,0.63,0.35,0.36,0.85,0.86,1.26,1.27,0.31,0.3,0.53,0.52,0.8,0.8,0.23,0.22,0.56,0.45,0.81,0.57,0.36,0.18,0.74,0.66,1.08,0.92,0.27,0.2,0.86,0.28,1.15,0.46,0.2,0.11,0.71,0.13,0.86,0.17,0.44,0.11,1.1,0.87,1.38,1.14,0.05,0.06,0.11,0.12,0.17,0.18,0.22,0.22,0.57,0.28,0.8,0.4,0.27,0.13,0.73,0.05,1.03,0.05,0.41,0,0.74,0.12,1.15,0.12,0.28,0,0.32-0.5,0.57-0.63,0.32-0.16,0.63-0.31,0.92-0.46,0.24-0.12,0.19-0.44,0.46-0.57,0.34-0.17,0.52-0.41,0.74-0.63,0.28-0.28,0.32-0.46,0.46-0.75,0.04-0.07,0.08-0.15,0.12-0.23,0.12-0.24,0.46-0.46,0.57-0.57,0.26-0.26,0.06-0.52-0.17-0.75-0.24-0.24-0.35-0.41-0.52-0.74-0.05-0.11-0.07-0.23-0.11-0.34-0.09-0.28-0.06-0.64-0.12-0.86-0.08-0.34-0.73-0.1-0.97-0.35-0.34-0.34-0.58-0.67-0.8-0.97-0.18-0.24-0.19-0.47-0.12-0.75,0.07-0.26,0.23-0.32,0.23-0.68,0-0.1-0.56-0.43-0.63-0.46-0.21-0.11-0.52-0.6-0.63-0.75-0.13-0.17-0.75-0.34-0.92-0.51-0.22-0.22-0.19-0.43-0.4-0.63-0.32-0.33-0.13-0.81-0.69-0.81-0.41,0-0.66-0.04-0.97-0.23-0.29-0.17-0.4-0.4-0.4-0.74,0-0.32-0.58-0.41-0.81-0.57-0.32-0.24-0.38-0.43-0.68-0.58-0.42-0.2-0.98-0.3-1.38-0.46-0.29-0.11-0.3-0.49-0.63-0.57-0.29-0.07-0.51-0.34-0.69-0.51-0.36-0.37-0.9-0.38-1.32-0.69-0.27-0.21-0.59-0.31-0.8-0.52-0.25-0.25-0.76-0.38-1.09-0.51-0.32-0.13-0.32-0.28-0.69-0.46-0.11-0.06-0.22-0.12-0.34-0.17z" fill-rule="evenodd" stroke-dashoffset="0" stroke="#27aaea" stroke-linecap="butt" stroke-miterlimit="4" stroke-width="0.99984044" fill="#c0dc58"/>
  <path id="path3677" stroke-linejoin="round" style="stroke-dasharray:none;" d="M39.328,73.134h145l152.42-0.028v0.648c0,1.006-0.01,1.467-0.49,1.945-0.53,0.527-1.14,0.756-1.14,1.621,0,0.897,0.02,1.648,0.33,2.269,0.48,0.97,0.34,1.155,0.97,1.783,0.26,0.258-0.7,1.671-0.81,2.107-0.28,1.128-0.18,0.991-0.81,1.621-0.52,0.52-1.34,0.369-1.95,0.972-0.48,0.482-1.59-1.103-1.78-1.296-0.51-0.513-1.03-0.866-1.46-1.297-0.6-0.604-1.08-1.258-1.3-2.107-0.17-0.707,0-1.699,0-2.431,0-0.752-0.7-1.189-1.13-1.621-0.64-0.635-1.58-0.487-2.43-0.487-1.2,0-1.23-0.094-1.95-0.81-0.33-0.333-1.65-0.162-2.27-0.162-0.87,0-0.96,0.762-1.13,1.459-0.21,0.836-1,1.296-1.79,1.296-1.35,0-1.36,0.07-2.27,0.973-0.72,0.725-0.81,0.738-0.81,1.945v2.431c0,0.248,2.3,0,2.6,0,0.97,0,1.99,0.312,0.65,0.648-0.69,0.172-1.78,0.038-2.27,0.163-0.85,0.211,0.16,1.541,0.48,1.62,1.06,0.265,1.64,1.045,2.6,1.621,0.57,0.345,0.89,1.073,0,1.297-0.75,0.186-1.6,0.162-2.44,0.162-1.14,0-1.47,0.006-2.27,0.486-0.55,0.335-0.35,1.481-0.97,1.945-0.67,0.505-1.13,0.854-1.13,1.783,0,1.224-0.14,1.367-0.81,2.269-0.51,0.67,0.31,2.417,0.64,2.756,0.52,0.517,0.54,1.685,0.98,2.265,0.57,0.76,0.03,1.11-0.49,1.62-0.28,0.28-0.32,2.09-0.32,2.6v2.75,2.6c0,0.78,0.43,1.56,0.81,1.94,0.65,0.65,0.98,1.26,1.62,2.11,0.72,0.95,0.59,1.34,1.13,2.43,0.33,0.65,0.13,1.61,0,2.11-0.25,1-0.3,1.13-1.46,1.13-1.22,0-2.07-0.5-2.91-1.13-0.7-0.53-1.07-0.78-1.79-1.14-0.69-0.34-1.78,0.2-2.59,0-0.68-0.17-1.27-0.92-2.11-1.13-0.92-0.23-1.31-0.61-2.11-0.81-0.64-0.16-1.45-0.81-2.1-1.14-0.57-0.28-1.87,0.29-2.27,0.49-0.76,0.38-1.64,1.27-2.11,1.62-0.88,0.66-1.08,0.33-1.95-0.32-0.53-0.4-1.13-1.18-1.46-1.62-0.4-0.54-0.48-1.51-0.48-2.11,0-0.65-1.4-0.29-1.79-0.81-0.47-0.64-0.82-0.98-1.46-1.3-0.76-0.38-1.7,0.24-1.94,0.49-0.64,0.64-0.92,0.91-1.46,1.46-0.57,0.56-1.06,1.08-1.46,1.62-0.53,0.7-1.65,0.48-2.43,0.48-0.85,0-1.28-0.43-1.79-0.81s-1.55-0.34-2.1-0.48c-0.91-0.23-1.16-0.35-1.79-0.98-0.61-0.61-1.22-0.48-2.27-0.48-0.71,0-1.25-0.49-2.1-0.49-1.11,0-1.55-0.12-2.27-0.48-0.74-0.37-1.05-0.75-1.95-0.98-1.11-0.28-1.39-0.09-1.95,0.65-0.27,0.37-2.02,0.22-2.43,0.33-0.64,0.16-1.35,0.75-1.62,1.29-0.11,0.23-1.36,0.78-1.62,0.97-0.57,0.43-0.49,1.31-0.49,2.11,0,0.47,0.72,0.6,1.14,0.81,0.65,0.33-1.3,0.81-1.62,1.46-0.34,0.67-0.89,1.03-1.46,1.46-0.66,0.49-0.41,1.18-1.3,1.62-0.77,0.39-1.48,0.67-2.11,1.13-0.37,0.28-0.74,1.23-1.13,1.63-0.42,0.42-0.6,1.19-0.81,1.62-0.18,0.35-1.63,1.05-1.95,1.13-0.54,0.14-1.22,1.23-1.46,1.46-0.54,0.54-0.85,0.85-1.3,1.3-0.51,0.51-0.77,0.99-0.97,1.78-0.13,0.53-1.28,1.05-1.78,1.3-0.83,0.41-1.11,0.6-1.46,1.29-0.46,0.92-0.09,1.18-1.14,0.65-0.63-0.31-1.27-0.28-2.1-0.49-0.86-0.21-1.71-0.16-2.6-0.16-0.82,0-1.85,0.02-2.43,0.16-0.75,0.19-1.68,0.02-2.27,0.17-0.83,0.2-1.79,0.16-2.43,0.32-0.59,0.15-1.09,0.72-1.3,1.14-0.27,0.55-1.1,0.61-1.46,0.97-0.63,0.63-0.81,0.22-0.81,1.62,0,0.87,0.16,1.62,0.16,2.43,0,0.6,0.68,1.51,0.98,2.11,0.2,0.41,1.37,0.76,1.78,0.97,0.67,0.33,1.07,0.58,1.62,1.13,0.56,0.29-0.97,1-0.97,1.63,0,0.8-1.23,0.48-1.95,0.48h-2.59c-0.78,0-1.22-0.8-1.46-1.3-0.39-0.78-0.7-1.18-1.14-1.62-0.56-0.56-0.72-1.2-1.29-1.78-0.56-0.55-0.33-1.66-0.33-2.43,0-1.04-0.16-1.46-0.65-1.95-0.8-0.8-1.36,0.14-1.62,0.65-0.43,0.87-0.64,1.14-1.78,1.14-0.96,0-0.59,0.75-1.46,0.97-0.98,0.24-1.96-0.02-2.43-0.49-0.42-0.41-1.87-0.16-2.43-0.16-1.21,0-0.74,1.38-1.79,0.33-0.52-0.52-0.77-1.07-1.13-1.79-0.35-0.68,0.11-1.39-0.16-1.94-0.17-0.34-1.97-1-2.44-1.46-0.49-0.5-0.85-1.07-1.13-1.62-0.31-0.63,0.11-1.03,0.49-1.78,0.14-0.29-1.48-1.39-1.63-1.46-0.67-0.34-1.18-1.02-1.62-1.46-0.64-0.65-1.51-1.08-2.27-1.46-0.55-0.28-1.65-0.21-2.11-0.32-1.05-0.27-1.35-0.61-2.26-0.98-0.85-0.34-1.42-0.72-2.44-0.97-0.69-0.17-1.53-0.16-2.43-0.16-0.85,0-1.5-0.27-2.27-0.65-0.96-0.48-1.82-1.02-2.27-1.62-0.48-0.64-1.82-0.99-2.43-1.3-0.84-0.42-1.85,0.44-2.27,0.65-0.76,0.38-1.52,0.49-2.43,0.49-0.96,0-1.76-0.17-2.76-0.17-1.21,0-2.02-0.44-3.08-0.97-0.7-0.35-1.37-0.91-2.11-1.46-0.61-0.46-1.16-0.82-1.78-1.13-0.64-0.32-1.67-0.16-2.43-0.16h-2.43c-0.41,0-1.09,1.08-1.3,1.29-0.64,0.64-1.17,0.39-1.62,1.3-0.57,1.12-0.04,0.76-1.14,0.49-0.42-0.11-1.53-1.53-1.78-1.79-0.33-0.33-1.65-0.16-2.27-0.16-0.84,0-1.68-0.02-2.43,0.16-0.83,0.21-1.25,0.65-2.27,0.65-1.07,0-1.55-0.3-2.27-0.48-0.76-0.19-1.82,0-2.6,0-0.97,0-1.79-0.08-2.59,0.32-0.61,0.31-1.55,0.16-2.27,0.16-0.48,0-1.65,0.54-2.11,0.65-0.75,0.19-1.82,0-2.59,0-1.19,0-1.45-0.02-2.27,0.81-0.44,0.44-0.47,1.39-0.65,2.11-0.2,0.79-0.92,1.24-1.3,1.62-0.6,0.6-0.55,1.2-1.3,1.94-0.55,0.56-0.97,1.15-1.29,1.79-0.39,0.77-0.11,1.72,0.16,2.27,0.22,0.43,0.86,0.7,1.13,0.97,0.49,0.97-2.18-0.05-3.24,0.16-0.91,0.18-1.62-0.01-1.62,0.97,0,1.03-0.18,1.44,0.16,2.11,0.19,0.38-1.12,0.44-1.3,1.13-0.2,0.82,0.04,1.82-0.16,2.6-0.03,0.11-1.96,0.33-2.27,0.48-1.01,0.51-0.74,1.11-1.94,0.81-1.04-0.25-1.88-0.43-2.76,0-0.69,0.35-1.06,1.02-1.62,1.3-0.49,0.24-0.87,0.97-1.3,1.3-0.58,0.44-1.27,0.75-1.62,1.46-0.33,0.65-0.92,1.08-1.3,1.46-0.61,0.61-0.48,1.31-0.48,2.26,0,0.6-0.99,1.16-1.3,1.46-0.62,0.63-0.2,1.45,0,1.95,0.49,1.21,1.95,0.58,1.95,2.11,0,0.87,0.47,1.41,0.64,2.1,0.18,0.71,0,1.7,0,2.43,0,0.85,0.02,1.83,0.17,2.43,0.17,0.71,1.36,1.27,1.62,1.79,0.49,0.99,0.88,1.37,1.46,1.94,0.56,0.57,1.03,1.09,1.29,1.62,0.5,0.99-0.33,1.55-0.81,1.79-0.51,0.25-1.84,0-2.43,0-0.72,0-1.55-0.52-1.94-0.81-0.8-0.6-1.09-0.27-1.46,0.48-0.46,0.91,0.4,1.46-0.98,1.46-0.51,0-1.58-0.35-2.1-0.49-1.28-0.31-1.42-0.41-0.98-1.29,0.35-0.7,0.77-1.2,1.14-2.11,0,0,2.28-0.12,2.43-0.16,0.75-0.19,0.81-0.69,0.81-1.62s-0.94-1.27-1.46-1.78c-0.53-0.54-0.98-1-1.13-1.63-0.14-0.55-1.04-1.03-1.46-1.45-0.62-0.63-0.98-0.29-0.98-1.46,0-1.05,0.23-1.64-0.16-2.6-0.28-0.71-0.64-1.44-0.97-2.1-0.12-0.24-2.21-0.6-2.43-0.65-0.65-0.16-1.28-1.33-1.62-1.78-0.43-0.57,0-1.41,0-2.11s0.31,1.45,0.81,1.94c0.6,0.6,1.56-0.36,1.94-0.65,0.24-0.17-1.06-1.68-1.13-1.78-0.61-0.81-0.97-0.59-0.97-1.78v-2.43c0-0.99-0.49-1.23-0.49-2.27,0-0.66-1.146-1.31-1.461-1.62-0.654-0.66-0.758-1.2-1.783-1.46-0.787-0.2-1.813-0.01-2.432-0.16-0.753-0.19-0.736-1.06-1.297-1.62-0.658-0.66-1.399-0.57-1.946-1.3-0.437-0.58-0.162-1.58-0.162-2.43,0-0.95,0.02-1.58-0.324-2.27-0.385-0.77-1.369-1.25-2.108-1.62-0.605-0.3-2.051,0-2.756,0-1.438,0-0.885-0.52-0.649-1.46,0.224-0.9-0.132-1.59-0.486-1.95-0.528-0.52-1.044-0.88-1.459-1.29-0.872-0.87-0.788-0.84-1.298-0.33-0.242,0.25,0,2.05,0,2.43,0,0.3-1.541,0.86-1.783,0.98-1.03,0.51-0.367,1.35-1.459,1.62-1.089,0.27-1.683-0.23-2.108-0.65-0.367-0.37,0.162-1.92,0.162-2.27,0-0.11,1.302-1.57,1.459-1.78,0.611-0.82,0.796-0.97,1.946-0.97,1.188,0,1.687,0.06,2.432,0.81,0.212,0.21,2.091-0.64,2.27-0.81,0.942-0.95,1.424-0.1,1.135,0.48-0.288,0.58,0.549,0.33,1.621,0.33,1.071,0,0.799-0.93,0.973-1.63,0.14-0.56,1.197-1.03,1.459-1.29,0.588-0.59,0.811-1.16,0.811-2.11v-2.43-0.65c0-1.16,0.615-1.49-0.324-2.43-0.545-0.54-1.27-0.62-1.784-1.13-0.403-0.41-0.81-1.09-0.81-1.95,0-0.68,0.648-1.26,0.648-1.94,0-0.97-0.612-1.26-1.135-1.79-0.525-0.52-0.614-0.93-1.135-1.46-0.597-0.59-1.055-1.13-1.297-1.62-0.331-0.66-1.133-1.29-1.621-1.78-0.611-0.61-0.652-1.3-1.297-1.945-0.636-0.635-1.02-1.008-1.622-1.459-0.641-0.481-0.857-1.019-1.459-1.62-0.672-0.672-1.002-1.15-1.621-1.459-0.725-0.362-1.1-1.441-1.784-1.783-0.556-0.278-0.823-0.979-1.459-1.297-0.88-0.44-0.582-1.076-0.486-1.459,0.084-0.336,2.276-0.162,2.594-0.162,1.541,0,1.226,0.717,2.432,1.621,0.362,0.271,2.125,0,2.594,0,1.031,0,1.286,0.313,1.946,0.973,0.712,0.712,1.135,0.943,1.135,2.107,0,0.497,0.965,1.592,1.134,2.269,0.195,0.776,1.099,0.761,1.946,0.972,0.716,0.179,0.444,1.417,1.135,2.112,1.382,1.38,1.776,1.09,2.594,0,0.537-0.72,1.328-0.983,2.108-1.139,0.943-0.189,2.119,0,3.081,0,1.187,0,0.902-0.648,1.945-0.648,0.912,0,1.895-0.325,2.915-0.325,0.11,0,0.96-1.283,1.14-1.458,0.51-0.511,0.87-1.374,1.3-1.945,0.31-0.414,1.95-0.162,2.43-0.162,0.9,0,1.66,0.162,2.59,0.162,1.04,0,1.3-0.118,1.3-1.135,0-1.048,1.39-0.996,1.94-1.134,0.91-0.226,2.37,0.162,3.41,0.162,0.15,0,1.54-1.582,1.94-1.783,0.55-0.274,1.85-0.016,2.44-0.162,0.77-0.194,1.22-0.574,1.62-0.973,0.58-0.583,0.8-0.962,1.46-1.621,0.77-0.774,1.75-0.941,1.46-2.107-0.13-0.501-1.16-1.176-1.46-1.783-0.44-0.873-1.11,0.294-1.46,0.649-0.55,0.548-1.28,0.634-1.79,1.134-0.7,0.708-2.07,0.486-3.08,0.486-0.88,0-1.75-0.047-2.59,0.163-1.17,0.292-1.75-0.198-2.59,0.648-0.6,0.6-1.38,0.486-2.27,0.486-1.01,0-2.04,0.382-2.92,0.162-1.09-0.272-1.68-1.005-2.43-1.459-1.02-0.606-1.21-0.177-1.63,0.649-0.39,0.797-0.85,0.78-1.62,0.972-1.11,0.279-1.487-0.131-2.105,0.487-0.868,0.867-0.929,1.134-2.27,1.134h-2.756c-0.968,0-1.184,0.498-1.784,1.297-0.476,0.635-1.903-0.444-1.945-0.486-0.512-0.512-0.803-1.135-1.784-1.135-0.849,0-1.845-0.162-2.756-0.162-1.314,0-2.79,0.226-3.891-0.324-0.851-0.426-1.41-0.444-2.432-0.649-0.702-0.14-1.512,0.675-2.108,0.973-0.604,0.302-1.022,0.648-2.27,0.648-1.129,0-0.811,0.608-0.811,1.621,0,0.036-2.364-1.037-2.756-1.135-0.316-0.079-1.217-1.115-1.459-1.296-0.875-0.656-0.373-0.973-1.784-0.973-1.188,0-1.748,0.064-2.594,0.487-0.639,0.319-1.935-0.238-2.432-0.487-0.579-0.289-0.815-1.151-0.973-1.783-0.257-1.029,0.157-1.719-0.972-1.945-0.973-0.194-1.096,0.934-1.46,1.297-0.242,0.242-2.046,0-2.432,0-1.096,0-1.964-0.991-2.594-1.621-0.621-0.621-1.129-1.212-1.945-1.621-0.137-0.068-0.217-0.216-0.325-0.324-0.199-0.099-0.432-0.108-0.648-0.162-0.567-0.142-0.915-0.917-1.784-1.134-0.363-0.091-1.065-1.164-1.459-1.459-0.728-0.546-1.102-1.273-1.783-1.783-0.571-0.428-0.907-0.696-1.46-0.973-0.63-0.315-0.898-0.773-1.621-1.134-0.87-0.435-1.597-0.717-2.432-1.135-1.28-0.64-0.872-0.277-2.007-1.268z" fill-rule="evenodd" stroke-dashoffset="0" stroke="#27aaea" stroke-linecap="butt" stroke-miterlimit="4" stroke-width="0.99984044" fill="#c0dc58"/>
  <path id="path3679" stroke-linejoin="round" style="stroke-dasharray:none;" d="M274.64,687.3c0.96,0.44,1.89,2.05,2.75,3.21,0.62,0.82,0.54,2.69,0.92,3.44,0.39,0.78,2.06,0.74,2.75,0.92,0.99,0.24,2.05-1.59,2.53-2.07,0.72-0.72-0.6-2.78-0.69-2.98-0.56-1.11-0.92-1.86-0.92-3.21v-3.43-3.44c0-0.69-1.69-1.8-2.06-2.3-0.75-0.99-1.83-0.25-1.38-2.06,0.37-1.46,1.21-1.64,2.52-2.29,1.21-0.6,1.15-1.59,1.15-2.98,0-0.96-0.48-2.39-0.69-3.21-0.27-1.09-0.23-2.26-0.23-3.44v-3.67c0-1.87-0.71-1.83-2.52-1.83-1.28,0-1.91-0.97-2.75-1.6-0.93-0.7-1.33-1.56-2.06-2.3-1.06-1.05-1.73-1.26-2.53-2.06-0.74-0.74-1.8-1.34-2.52-2.06-0.87-0.87-1.45-1.68-2.06-2.29-0.81-0.81-2.2-1.77-3.21-2.53-1-0.75-1.64-1.9-2.07-2.75-0.39-0.79-1.15-1.62-1.6-2.52-0.43-0.86-0.86-2.17-1.38-3.21-0.52-1.05-1.13-1.58-1.83-2.29l-2.52-2.52c-0.72-0.54-2.6-0.25-3.44-0.46-1.28-0.32-2.33-0.36-3.44-0.92-0.98-0.48-1.31-0.85-2.07-1.6-0.86-0.86-1.61-1.38-2.29-2.06-0.94-0.94-1.36-1.09-2.52-1.38-1.3-0.32-1.91-1.22-2.52-1.83-0.85-0.85-1.6-1.6-2.3-2.29-0.84-0.84-1.37-1.38-2.06-2.3-0.64-0.85-1.67-1.42-2.52-2.06-0.68-0.51-1.1-1.32-1.61-1.83-0.69-0.7-1.43-1.21-2.06-1.84-0.9-0.9-1.42-1.62-2.29-2.06-0.87-0.43-1.52-0.61-2.76-0.92-1.36-0.34-1.69-1-1.37-2.29,0.39-1.56,0.94-1.85,1.83-2.75,1.15-1.15,1.73-1.54,3.44-0.69,1.76,0.88,3.29,2.54,5.05,2.98,1.18,0.3,1.83,0.81,1.83,2.07,0,1.21,0.6,2.33,1.15,3.43,0.47,0.95,1.6,1.38,2.52,1.84,1.04,0.52,1.67,2.86,2.75,3.67,0.96,0.71,0.81-1.83,2.06,0.68,0.45,0.9,0.01-2.08,0.46-2.98,0.56-1.11,3.19-2.16,3.9-2.52,1.12-0.56,1.72-1.51,2.75-2.29,1.16-0.87,1.38-1.61,2.3-2.52,0.78-0.79,0.64-1.79,1.37-2.52,1.14-1.14,1.35,0.46,2.75,0.46h4.36c0.97,0,2.14-0.92,3.44-0.92,1.51,0,2.78,0.01,3.67,0.46,1.15,0.57,3.02,0.46,4.35,0.46,1.15,0,2.5,0.67,3.44,1.14,1.21,0.6,2.28-0.67,2.76-1.14,0.96-0.97,1.65-0.67,2.52-0.23,1.03,0.51,1.49,0.68,2.98,0.68h3.44c1.52,0,0.24-2.42,0-2.75-0.69-0.91-1.47-1.6-2.75-1.6-1.36,0-1.55-0.43-1.84-1.61-0.25-1.02,0.69-1.65,0.69-2.98,0-1.16-1.84-1.6-2.75-1.6-1.02,0-2.33,1.15-3.21,1.37-1,0.25-1.78,1.1-2.29,1.61-1.11,1.11-1.65,1.15-3.44,1.15-0.92,0-1.74-1.52-2.3-2.07-1.24-1.24-1.38-1.21-0.23-2.75,1.01-1.35,1.23-1.83-0.68-1.83-1.54,0-2.21,0.83-2.99,1.6-0.92,0.92-1.03,2.21-2.29,2.52-1.23,0.31-1.82,1.03-3.21,1.38-0.8,0.2-2.48,0.87-2.98,1.37-0.72,0.73-1.59,0.68-2.29,1.38-0.83,0.83-1.51,1.74-2.29,2.52-0.77,0.77-1.3-1.75-2.07-2.52-1.18-1.18-2.52,0.06-2.52-1.83,0-1.13,0.92-2.53-0.69-2.53h-3.67c-1.33,0-2.7,0.07-3.9-0.22-1.05-0.27-1.72-0.81-2.29-1.38-0.91-0.91-1.43-1.66-2.06-2.29-0.81-0.81-1.23-1.46-1.84-2.07-0.72-0.72-0.77-2.23-1.14-2.97-0.71-1.41-1.98,0.79-2.07,1.14-0.27,1.08-0.97,1.66-1.6,2.29-0.7,0.7-1.17,1.17-1.84,1.84s-1.5,1.05-2.06,1.6c-0.63,0.63-1.15,1.8-1.15,2.75,0,0.63-1.13,1.31-1.37,2.29-0.28,1.14-0.25,2.34-0.69,3.21-0.62,1.25-0.36,1.31,0.69,1.84,0.83,0.41-0.52,2.42-0.69,2.75-0.77,1.54-0.65,1.46-2.06,2.52-0.87,0.65-1.38,1.26-1.38,2.52v3.44c0,0.57,1.4,2.15,1.61,2.98,0.22,0.91,0.88,1.57,1.37,2.06,0.74,0.74,0.8,2.18,1.38,2.75,0.61,0.61,0.58,1.73,1.37,2.52,1.04,1.04,1.63,0.77,2.07,2.53,0.2,0.8,1.38,2.07,1.83,2.98,0.54,1.08,1.05,1.92,1.84,2.98,0.86,1.15,1.78,1.58,2.75,2.06,0.75,0.38,1.12,1.09,1.6,2.06,0.44,0.22,1.13,2.73,1.38,2.98,1.08,1.08,0.06,2-0.69,2.75-0.69,0.69-0.69,2.1-0.69,2.75,0,1.61,3.21,0,4.82,0,1.37,0,2.4,0.74,3.21,1.15,1.03,0.52,1.65,1.19,2.29,1.83,0.73,0.73,2.12,1.06,2.75,1.38,1.45,0.72,1.76,1.18,2.3,2.52,0.51,1.3,1.27,1.95,2.98,2.29,1.28,0.26,1.93,1.25,2.52,1.83,0.98,0.98,1.49,0.7,2.06,1.84,0.48,0.95,0.98,1.51,1.38,2.29,0.6,1.21,1.3,1.3,2.06,2.06,0.99,0.99,0.75,1.15,1.15,2.75,0.26,1.07,0.69,1.95,0.69,2.98,0,0.78,2.35,0.46,2.98,0.46,0.71,0,1.44,1.53,2.06,1.84,1.08,0.53,0.41,1.37,2.06,1.37,1.62,0,1.55,0.69,2.98,0.69,1.52,0,1.15,0.9,1.15,2.29v3.44c0,1.74,0.64,1.78,1.61,2.75,0.55,0.56,0.32,1.96,0.91,2.75z" fill-rule="evenodd" stroke-dashoffset="0" stroke="#27aaea" stroke-linecap="butt" stroke-miterlimit="4" stroke-width="0.99984044" fill="#daf0fd"/>
  <path id="path3696" stroke-linejoin="round" style="stroke-dasharray:none;" d="M308.7,118z" stroke-dashoffset="0" stroke="#27aaea" stroke-linecap="butt" stroke-miterlimit="4" stroke-width="0.99984044" fill="none"/>
  <path id="path3700" stroke-linejoin="round" style="stroke-dasharray:none;" d="M309.67,118.33l6.81,71.31" stroke-dashoffset="0" stroke="#ff4800" stroke-linecap="butt" stroke-miterlimit="4" stroke-width="2.99952126" fill="none"/>
  <path id="path4587" stroke-linejoin="round" style="stroke-dasharray:none;" d="M677.39,293.38l97.28-113.14" stroke-dashoffset="0" stroke="#ff4800" stroke-linecap="butt" stroke-miterlimit="4" stroke-width="2.99952126" fill="none"/>
  <rect id="rect9031" stroke-linejoin="round" style="stroke-dasharray:none;" stroke-dashoffset="0" height="624.72" width="734.37" stroke="#000" stroke-linecap="butt" stroke-miterlimit="4" y="72.648" x="39.747" stroke-width="2.9833" fill="none"/>
  <path id="path15487" stroke-linejoin="round" style="marker-end:url(#StopM);marker-start:url(#StopM);stroke-dasharray:none;" d="M544.82,728.37h224.64" stroke-dashoffset="0" stroke="#000" stroke-linecap="butt" stroke-miterlimit="4" stroke-width="3.5" fill="none"/>
  <text id="text14576" font-size="" xml:space="preserve" transform="translate(3.228663,0.809787)" height="26.264" width="21.213" y="739.38" x="535.38">0</text>
  <text id="text14584" font-size="" xml:space="preserve" transform="translate(455.5789,-9.291813)" height="48.487" width="76.772" y="747.46" x="291.93">5 km</text>
  <path id="path19050" stroke-linejoin="round" style="stroke-dasharray:none;" d="M677.31,292.89l-65.66,65.16c-21.41,13.21-11.21,26.43-8.59,39.65l1.26,26.26c-5.26,10.22-9.96,20.39,1.27,29.29,14.29,20.88,2.72,41.76-1.01,62.63-0.33,6.5-6.37,12.05-10.36,17.93-1.22,11.52,2.39,24.97-4.8,34.1-18.71,14.72-35.21,15.57-51.26,13.63-17.81,5.5-27.12-0.69-40.15-1.76l-34.86,13.13c-32.83,11.26-28.19,38.35-32.57,61.62-14.58,21.25-21.05,23.57-30.05,31.82-16.62,2.31-38.79-3.72-48.24,9.34" stroke-dashoffset="0" stroke="#ff4800" stroke-linecap="butt" stroke-miterlimit="4" stroke-width="3.5" fill="none"/>
  <path id="path19941" stroke-linejoin="round" style="stroke-dasharray:none;" d="M535.63,343.65c-7.83,22.95-10.36,42.01,4.55,48.24l62.63,7.57" stroke-dashoffset="0" stroke="#ff4800" stroke-linecap="butt" stroke-miterlimit="4" stroke-width="3.5" fill="none"/>
  <path id="path19943" stroke-linejoin="round" style="stroke-dasharray:none;" d="M656.09,351.99c-13.22,21.14-39.28,33.39-4.54,68.69l4.04,45.96c8.99,42.47-28.28,65.66-48.49,95.96l-17.68,5.05c0.68,0.17,1.35,0.34,2.02,0.51,1.9,0.47,3.16,3.15,4.04,4.04,1.3,1.29,3.76,1.88,5.06,2.53,0.5,0.25,1.27,1.27,1.51,1.51l13.64,33.34,15.15,53.53c9.44,11.12,11.08,22.23,12.63,33.34" stroke-dashoffset="0" stroke="#ff4800" stroke-linecap="butt" stroke-miterlimit="4" stroke-width="3.5" fill="none"/>
  <path id="path19945" stroke-linejoin="round" style="stroke-dasharray:none;" d="M417.19,224.71c-24.94,9.31-49.44,15.04-71.72,3.03-20.38-8.42-21.85-24.4-29.04-38.1" stroke-dashoffset="0" stroke="#ff4800" stroke-linecap="butt" stroke-miterlimit="4" stroke-width="3.5" fill="none"/>
  <path id="path19947" stroke-linejoin="round" style="stroke-dasharray:none;" d="M54.296,780.29h51.014" stroke-dashoffset="0" stroke="#ff4800" stroke-linecap="butt" stroke-miterlimit="4" stroke-width="3.5" fill="none"/>
  <path id="path19949" stroke-linejoin="round" style="stroke-dasharray:none;" d="M54.524,846.53l52.076-0.55" stroke-dashoffset="0" stroke="#ff4800" stroke-linecap="butt" stroke-miterlimit="4" stroke-width="2" fill="none"/>
  <path id="path20836" stroke-linejoin="round" style="stroke-dasharray:none;" d="M339.92,695.94v-0.5c4.35-27.58-6.68-43.97-16.67-61.12,3.18-20.88,2.82-42.94,2.02-65.15l-8.59-155.56c-0.33-0.68-0.67-1.35-1.01-2.02-1.26-2.54-1.38-3.52-2.02-6.06-0.58-2.33-1.01-3.62-1.01-6.57,0-3-0.87-3.77-2.02-6.06-1.11-2.22-1.35-2.86-2.02-5.56-0.94-3.77,1.31-5.05,4.55-5.05h8.58,7.58c3.07,0,5.34-0.45,7.58-1.01,2.23-0.56,1.51-5.14,1.51-7.07v-3.03l-3.53-63.64v-2.02c0-1.46,2.47-4.44,3.03-5.56,1.01-2.03,1.84-3.68,3.03-6.06,1-2.01,3.07-3.61,4.04-5.55,1.1-2.22,0.63-5.32,1.51-7.07,0.83-1.67,0.54-4.69,1.01-6.57,0.55-2.2,0-5.29,0-7.58v-8.08-7.57-7.58c0-2.78-0.11-5.6,0.51-8.08,0.48-1.93,0.5-3.28,0.5-5.56" stroke-dashoffset="0" stroke="#ff4800" stroke-linecap="butt" stroke-miterlimit="4" stroke-width="2" fill="none"/>
  <path id="path20838" stroke-linejoin="round" style="stroke-dasharray:none;" d="M309.64,118.57c-4.8-15.21,3.65-32.322-18.93-44.999" stroke-dashoffset="0" stroke="#ff4800" stroke-linecap="butt" stroke-miterlimit="4" stroke-width="3.5" fill="none"/>
  <path id="path21725" stroke-linejoin="round" style="stroke-dasharray:none;" d="M416.07,224.64l30.36,26.07,80.71-13.21,25.72,154.64" stroke-dashoffset="0" stroke="#ff4800" stroke-linecap="butt" stroke-miterlimit="4" stroke-width="2" fill="none"/>
  <path id="path21727" stroke-linejoin="round" style="stroke-dasharray:none;" d="M531.43,265l83.93-13.57c0.47,0.24,0.95,0.47,1.43,0.71,1.99,1,1.7-0.25,3.57-0.71,2.25-0.56,2.83-1.69,4.64-2.14,1.9-0.48,3.26-0.72,5.36-0.72h2.85l25.72,33.57v6.43c0,1.69-1.19,3.34-2.14,4.29-1.01,1-1.88,2.23-2.86,3.21-1.04,1.04-1.97,1.97-2.86,2.86-1.33,1.33-1.68,2.29-2.5,3.93-0.76,1.51-1.85,2.62-2.5,3.93-0.63,1.26-1.23,2.46-1.78,3.57-0.57,1.12,0,4.06,0,5.35,0,2.05,0.15,3.53,0.71,4.65,0.3,0.6,0.79,1.06,1.07,1.43" stroke-dashoffset="0" stroke="#ff4800" stroke-linecap="butt" stroke-miterlimit="4" stroke-width="2" fill="none"/>
  <path id="path21729" stroke-linejoin="round" style="stroke-dasharray:none;" d="M648.21,268.57h-0.35l-165,162.86c2.14,0-4.29,0.36-6.43,0.36-2.21,0-3.49,0.31-5,1.07-1.49,0.74-1.79,1.96-3.93,2.5-2.37,0.59-1.32,2.14-3.93,2.14-1.86,0-3.67-0.06-5.36,0.36-1.65,0.41-3.99,0-5.71,0-1.96,0-2.88,2.16-3.57,2.85-1.19,1.19-1.67,1.67-2.14,3.58-0.47,1.85,0.96,3.81,1.78,4.64,1.08,1.08,1.49,3.46,1.79,4.64,0.15,0.62,3.11,1.68,3.57,2.14,1.23,1.23,1.7,1.46,2.14,3.22,0.16,0.63,3.67,1.66,3.93,1.78,0.71,0.36,0.36,3.92,0.36,5,0,1.67-0.53,3.19-1.07,4.29-0.93,1.85-1.57,2.7-2.15,5-0.36,1.45-2.11,2.02-2.5,3.57-0.27,1.09-1.68,2.3-2.14,3.22-0.62,1.23,0,4.66,0,6.07,0,2.32-0.44,3.02-1.07,4.28-0.66,1.32-1.95,2.46-2.5,3.57-0.75,1.5-0.31,4.09-0.72,5.72-0.38,1.55-0.69,3.12-1.07,4.64-0.05,0.22-4.37,1.01-4.64,1.07-1.74,0.44-3,1.33-4.64,2.15-1.66,0.82-3.63,1.78-5.72,1.78-2.15,0-2.72,0.72-4.64,0.72-1.64,0-3.58,0.35-5.36,0.35-1.25,0-3.74,1.03-5.35,1.43-1.28,0.32-2.56,1.13-3.58,2.14-1.39,1.4-2.37,1.19-3.21,2.86-0.83,1.67-2.01,1.97-3.21,3.57-1.32,1.75-2.5,1.42-2.5,3.93,0,2.77-0.16,2.66-1.79,4.29-1.02,1.02-1.88,1.52-2.86,2.5-1.39,1.39-3.53,1.75-5,3.21-1.81,1.82-1.63,2.2-4.28,2.86-1.59,0.39-3.78,0.36-5.36,0.36-1.24,0-3.19,1.42-4.64,1.78-1.84,0.46-3.56,0.36-5.36,0.36-1.75,0-4.43,0.3-6.07,0.71-1.57,0.4-3.08,0.36-5,0.36-0.27,0-2.67,2.66-2.86,2.86-0.37,0.37-0.49,0.49-0.71,0.71l-22.5,22.14-98.22,5c-16.78,11.04-21.31,25.58-25,40.36-0.24,0.6-0.47,1.19-0.71,1.79-0.58,1.45,0.36,4.08,0.36,5.71,0,1.24,3.41,2.96,3.92,3.22,0.06,0.02,0.34,4.91,0.36,5,0.39,1.56,0.72,2.96,0.72,5,0,1.61,1.41,2.79,1.78,4.28,0.36,1.45,1.43,1.75,1.43,3.93,0,2.08,0.36,3.04,0.36,5,0,1.34,2.47,4.73,3.21,5.71,1.11,1.48,2.05,1.24,2.86,2.86,0.59,1.19,0.83,2.73,1.43,3.93,0.68,1.37,0.71,2.66,0.71,4.29l0.72,30.71c0.26,0.53,0,1.19,0,1.79" stroke-dashoffset="0" stroke="#ff4800" stroke-linecap="butt" stroke-miterlimit="4" stroke-width="2" fill="none"/>
  <path id="path21731" stroke-linejoin="round" style="stroke-dasharray:none;" d="M213.93,614.64l-14.64-10c0.03-0.2,0.06-0.41,0.09-0.62,0.1-0.67,0.13-1.37,0.13-2.02,0-0.77,0.12-1.42,0.12-2.15,0-0.7,0.51-1.63,0.51-2.65,0-0.87,0.25-1.74,0.25-2.65v-2.15c0-0.74-0.11-1.89-0.25-2.77-0.14-0.81,0.07-1.62-0.13-2.4-0.19-0.78-0.76-1.3-0.76-2.02,0-0.5-0.96-1.83-1.13-2.53-0.16-0.62-0.13-1.32-0.13-2.02v-2.4c0-0.66,0.13-1.43,0.13-2.15v-2.52-2.78-2.4c0-0.96,0.75-1.59,0.75-2.65v-2.02c0-0.87-0.12-1.68-0.12-2.53v-0.63c0-0.86-0.13-1.76-0.13-2.65v-2.52-2.66c0-1.12-0.8-1.98-1.01-3.03-0.13-0.65-0.13-1.32-0.13-2.02,0-1.21,0.26-2.39,0.26-3.66,0-0.77,0.05-1.55-0.13-2.27-0.02-0.08,0-0.17,0-0.25,0-0.77-0.44-1.91-0.63-2.65-0.2-0.79,0-1.98,0-2.78,0-1.04-0.06-1.94-0.25-2.91-0.22-1.1-0.47-2.03-0.63-3.15-0.16-1.08-0.26-2.19-0.26-3.29,0-0.81-0.12-1.61-0.12-2.4,0-0.85-0.38-1.51-0.38-2.39,0-1.13-0.51-2.29-0.51-3.54,0-1.53-0.45-3.41-0.75-4.92-0.18-0.88-0.38-1.46-0.38-2.4,0-1.21-0.26-2.32-0.26-3.54v-2.27-2.4c0-1.28-0.45-2.43-0.75-3.66-0.19-0.76-0.09-1.42-0.38-2.15-0.3-0.75-0.25-1.93-0.25-2.9v-3.16c0-1.24,0.02-2.42-0.26-3.54-0.43-1.72-0.12-4.28-0.12-6.06v-2.77-3.04c0-1.5-0.32-2.14-0.89-3.28-0.51-1.02-0.26-1.66-1.01-2.65-0.56-0.75-0.83-1.87-1.01-2.78-0.23-1.16-0.9-2.47-1.13-3.41-0.18-0.7-0.13-1.34-0.13-2.14,0-1.21,0.38-2.42,0.38-3.67,0-1,0.59-1.79,0.76-2.77,0.1-0.64,0-1.38,0-2.02,0-0.74-0.63-1.5-0.76-2.15-0.16-0.81-0.06-1.62-0.25-2.4-0.27-1.07-0.51-2.05-0.51-3.16,0-0.83-0.8-1.94-1.01-2.77-0.2-0.8-0.3-1.32-0.5-2.15-0.15-0.58,0-1.41,0-2.02,0-1.29-0.3-1.63-0.51-2.91-0.12-0.71,0-1.54,0-2.27l-2.65-51.26-2.78-20.84c-0.14-0.85-0.79-1.29-1.26-1.77-0.17-0.16-0.34-0.33-0.51-0.5-0.48-0.48-0.58-0.96-1.01-1.39-0.77-0.77-1.59-1.28-2.14-2.02-0.51-0.68-0.93-1.06-1.14-1.89-0.18-0.74-0.13-1.65-0.13-2.4,0-0.93,0.1-1.74,0.76-2.4,0.59-0.6,1.49-0.56,2.27-0.76,1.6-0.4,2.86-1.07,4.42-1.51,1.06-0.31,2.39-1.19,3.54-1.65,1.13-0.45,2-0.94,3.28-1.26,1.63-0.41,3.42-0.33,5.05,0,1.8,0.36,3.6,0.51,5.43,0.51h1.77l27.78,2.65,65.15-4.17,107.06-5.25,139.64-21.78" stroke-dashoffset="0" stroke="#ff4800" stroke-linecap="butt" stroke-miterlimit="4" stroke-width="2" fill="none"/>
  <path id="path21733" stroke-linejoin="round" style="stroke-dasharray:none;" d="M542.14,205.36l69.29,60.35" stroke-dashoffset="0" stroke="#ff4800" stroke-linecap="butt" stroke-miterlimit="4" stroke-width="2" fill="none"/>
  <path id="path21735" stroke-linejoin="round" style="stroke-dasharray:none;" d="M633.21,248.21l-21.42-29.28c-21.94-24.22-45.87-17.57-69.65-13.22-0.24,0.06-0.47,0.12-0.71,0.18-1.12,0.28-1.29,0.47-2.14,0.9-0.82,0.4-1.11,0.76-2.33,1.07-1.19,0.29-1.95,0.87-2.5,1.6-0.76,1.02-2.36,2-3.21,2.68-0.47,0.38-2.12,0.18-2.86,0.18h-3.21c-1.66,0-3.03-0.21-4.29-0.71-0.62-0.25-1.08-1.64-1.25-2.32-0.3-1.22,0.34-1.99-0.53-2.86-0.96-0.96-2.14-1.11-3.75-1.43-1.25-0.25-2.43-0.21-3.4,0.18-1.46,0.58-2.37,1.3-3.39,2.32-0.81,0.82-1.64,1.36-2.5,1.79s-1.39,0.85-1.96,1.42c-1,1-1.83,1.9-2.68,3.04-0.58,0.78-1.41,1.59-1.97,2.14-0.53,0.53-1.83,0.83-2.32,1.07-0.71,0.36-1.51,0.56-2.14,0.72-0.96,0.24-1.97,0.31-2.86,0.53-0.82,0.21-2,0-2.85,0-1,0-1.58-0.24-1.79-1.07-0.13-0.51-1.68-1.32-1.96-1.6-0.61-0.61-0.94-0.92-1.61-1.25-1.02-0.51-1.85-0.93-2.86-1.43-0.81-0.41-1.62-0.36-2.68-0.36h-3.03-3.22-2.85-1.97c-0.81,0-2.13,0.54-3.21,0.54-1.04,0-1.84,0.32-2.68,0.53-0.9,0.23-1.8,0.14-2.68,0.36-1.03,0.26-1.75,0.79-2.86,1.07-0.76,0.19-1.44,0.54-2.32,0.54h-2.68-3.03c-0.94,0-1.84-0.04-2.68,0.17-1.03,0.26-1.53,0.23-2.5,0.72-0.63,0.31-1.59,0.36-2.32,0.36-0.61,0-1.64,0.17-2.5,0.17-1.1,0-1.39,0.68-2.15,1.43-0.59,0.59-1.53,0.82-1.96,1.25-0.6,0.61-1.23,0.88-1.79,1.43-0.46,0.47-1.9,0.42-2.5,0.72-0.86,0.43-1.44,0.19-2.14,0.89s-0.73,0.99-1.61,1.43-1.12,0.83-2.32,0.53c-0.76-0.19-1.63-0.18-2.5-0.18h-3.03-1.43" stroke-dashoffset="0" stroke="#ff4800" stroke-linecap="butt" stroke-miterlimit="4" stroke-width="2" fill="none"/>
  <path id="path21737" stroke-linejoin="round" style="stroke-dasharray:none;" d="M609.29,305.71l54.28,53.58,11.43,158.57-34.29,115-11.42,20.71c0.23,1.19,0.47,2.38,0.71,3.57,0.84,4.18-1.18,6.9-2.86,8.57-1.78,1.79-2.5,4.65-4.28,6.43-2.16,2.16-3.3,5.44-5,7.15-1.79,1.78-5.36,1.78-7.15,3.57-2.48,2.48-4.16,3.32-5.71,6.43-0.9,1.79-0.86,4.14-1.43,6.42" stroke-dashoffset="0" stroke="#ff4800" stroke-linecap="butt" stroke-miterlimit="4" stroke-width="2" fill="none"/>
  <path id="path21739" stroke-linejoin="round" style="stroke-dasharray:none;" d="M526.07,388.57l9.64,129.29c-7.11,46.65-31.96,54.72-54.64,67.5" stroke-dashoffset="0" stroke="#ff4800" stroke-linecap="butt" stroke-miterlimit="4" stroke-width="2" fill="none"/>
  <path id="path21741" stroke-linejoin="round" style="stroke-dasharray:none;" d="M534.64,502.14l56.07-1.43c0.6-0.11,1.19-0.23,1.79-0.35,1.91-0.38,2.83-0.72,5-0.72,2.05,0,3.26-1.78,5.71-1.78,1.19,0,3.24,0.45,4.29,0.71" stroke-dashoffset="0" stroke="#ff4800" stroke-linecap="butt" stroke-miterlimit="4" stroke-width="2" fill="none"/>
  <path id="path21743" stroke-linejoin="round" style="stroke-dasharray:none;" d="M552.5,501.79l-21.07,40.35c1.96,0-0.25,4.15-1.43,5.72-0.6,0.8-0.1,4.33-0.36,5.35-0.33,1.33-0.35,2.77-0.35,4.29-8.28,19.73-22.64,30.33-34.29,45l-42.14,66.79c-12.06,18.27-26.94,22.43-41.79,26.78" stroke-dashoffset="0" stroke="#ff4800" stroke-linecap="butt" stroke-miterlimit="4" stroke-width="2" fill="none"/>
  <path id="path21745" stroke-linejoin="round" style="stroke-dasharray:none;" d="M325.71,578.57l25,14.64c14.26,26.4,41.12,21.25,62.15,30.72l31.07,15.71,17.86,17.86,30.35,17.5c13.79,0.37,30.19,12.51,45.72,20.71" stroke-dashoffset="0" stroke="#ff4800" stroke-linecap="butt" stroke-miterlimit="4" stroke-width="2" fill="none"/>
  <path id="path21749" stroke-linejoin="round" style="stroke-dasharray:none;" d="M510,585.36c-23.61,4.35-29.79,21.54-35.71,38.93l-8.93,17.5-18.93,18.57-23.93,13.93-12.86,12.14c-10.18,4.34-14.67,6.79-19.28,9.28" stroke-dashoffset="0" stroke="#ff4800" stroke-linecap="butt" stroke-miterlimit="4" stroke-width="2" fill="none"/>
  <path id="path21751" stroke-linejoin="round" style="stroke-dasharray:none;" d="M482.86,585.36v3.21l-17.86,7.14c-20.43,27.87-35.79,64.43-62.14,82.15-0.12,0.47-0.24,0.95-0.36,1.43-0.37,1.46-0.71,2.95-0.71,5,0,1.02,2.84,2.31,3.21,2.5,1.81,0.9,1.99,1.27,3.21,2.5,1.61,1.6,0.01,2.14,3.22,2.14,1.21,0,2.19,1.96,2.5,3.21" stroke-dashoffset="0" stroke="#ff4800" stroke-linecap="butt" stroke-miterlimit="4" stroke-width="2" fill="none"/>
  <text id="text21753" transform="translate(16.16244,34.34519)" xml:space="preserve" font-size="" width="108.09" y="85.812" x="573.77" height="91.924" font-style="italic" fill="#27aaea"><flowPara id="flowPara22646">San Francisco</flowPara>San Francisco</text>
  <text id="text22650" transform="translate(61.61931,-10.10153)" xml:space="preserve" font-size="" width="154.55" y="196.93" x="122.23" height="37.376" font-style="italic">Golden Gate</text>
  <text id="text23543" transform="translate(23.23351,-59.799)" xml:space="preserve" font-size="" width="119.2" y="520.18" x="58.589" height="140.41" font-style="italic" fill="#27aaea">Pacifique</text>
  <text id="text24438" font-size="" xml:space="preserve" transform="translate(4.545687,6.565996)" width="44.447" y="151.47" x="116.17" height="41.416" font-style="italic">Bonita</text>
  <text id="text24448" font-size="" xml:space="preserve" transform="translate(-1.010153,1.515229)" width="65.66" y="106.02" x="319.21" height="36.365" font-style="italic">Lime Point</text>
  <text id="text24456" font-size="" xml:space="preserve" transform="translate(-2.525381,2.020305)" width="97.985" y="175.72" x="323.25" height="18.183" font-style="italic">Fort Point</text>
  <text id="text24464" font-size="" xml:space="preserve" transform="translate(24.24366,6.060915)" height="21.213" width="92.934" y="324.21" x="72.731">Point Lobos</text>
  <text id="text24472" font-size="" xml:space="preserve" transform="translate(-28.28427,-3.030457)" width="68.69" y="95.913" x="546.49" height="54.548" font-style="italic"><flowPara id="flowPara24480">d'Alcatraz</flowPara>d'Alcatraz</text>
  <text id="text24484" font-size="" xml:space="preserve" transform="translate(1.010153,7.071068)" width="97.985" y="176.73" x="602.05" height="23.234" font-style="italic">North Point</text>
  <text id="text24492" font-size="" xml:space="preserve" transform="translate(-3.535534,0)" width="77.782" y="290.87" x="688.92" height="19.193" font-style="italic">Rincon Point</text>
  <text id="text24500" font-size="" xml:space="preserve" transform="translate(-2.020305,0)" width="59.599" y="438.36" x="709.13" height="34.345" font-style="italic">Point</text>
  <text id="text24510" font-size="" xml:space="preserve" font-style="italic" width="72.731" y="663.62" x="698.02" height="29.294">Point</text>
  <text id="text24520" font-size="" xml:space="preserve" transform="translate(19.1929,2.020305)" width="89.904" y="93.893" x="686.9" height="77.782" font-style="italic"><flowPara id="flowPara24530">    Trsor</flowPara>    Trsor</text>
  <text id="text24532" xml:space="preserve" font-size="" transform="matrix(0.998962,-4.556009e-2,4.556009e-2,0.998962,9.576289,15.59169)" width="203.04" y="387.85" x="195.97" height="29.294" fill="#004e00">Golden Gate Park</text>
  <text id="text25449" xml:space="preserve" font-size="" transform="translate(291.9341,-18.18275)" width="114.15" y="591.9" x="-130.31" height="70.711" fill="#004e00">  Park</text>
  <text id="text25459" xml:space="preserve" font-size="" transform="translate(36.36549,-6.060912)" width="128.29" y="293.9" x="159.6" height="61.619" fill="#004e00">  Park</text>
  <text id="text26354" xml:space="preserve" font-size="" transform="translate(15.15229,10.10153)" width="126.27" y="617.15" x="500.03" height="85.863" fill="#004e00">    Park</text>
  <text id="text27249" xml:space="preserve" font-size="" transform="translate(47.47717,27.27412)" width="146.47" y="227.23" x="310.12" height="101.02" fill="#004e00">Presidio</text>
  <text id="text28148" xml:space="preserve" font-size="" transform="translate(36.36549,-12.12183)" width="199" y="98.944" x="100.01" height="51.518" fill="#004e00">Golden Gate N.R.A.</text>
  <text id="text29043" xml:space="preserve" font-size="" transform="translate(-9.091373,1.010153)" width="55.558" y="161.57" x="473.76" height="43.437" fill="#004e00">Mason</text>
  <text id="text29946" transform="matrix(0.72453,0.689243,-0.689243,0.72453,494.0714,9.6262)" xml:space="preserve" font-size="" width="103.46" y="622.2" x="225.26" height="95.026" font-style="italic" fill="#27aaea">Lac Merced</text>
  <text id="text29954" xml:space="preserve" font-size="" transform="translate(479.8225,-91.92388)" width="130.31" y="220.16" x="-159.6" height="109.1" fill="#ff4800">Golden Gate</text>
  <text id="text29964" xml:space="preserve" font-size="" transform="matrix(0.639149,-0.769083,0.769083,0.639149,641.4585,-11.93167)" width="128.29" y="227.23" x="-180.82" height="113.14" fill="#ff4800">Bay Bridge</text>
  <text id="text29972" xml:space="preserve" font-size="" transform="matrix(0.654998,-0.755631,0.755631,0.654998,577.5729,1.187184)" width="208.09" y="250.47" x="-164.65" height="79.802" fill="#ff4800">San Francisco-Oakland</text>
  <text id="text29980" font-size="" xml:space="preserve" transform="matrix(0.747199,-0.664601,0.664601,0.747199,453.4051,-79.39634)" height="48.487" width="43.437" y="417.14" x="-176.78" fill="#ff4800">80</text>
  <text id="text29988" font-size="" xml:space="preserve" transform="matrix(0.984468,-0.175565,0.175565,0.984468,500.3554,-176.6715)" height="50.508" width="65.66" y="368.65" x="-187.89" fill="#ff4800">101</text>
  <text id="text29996" font-size="" xml:space="preserve" transform="matrix(0.981042,-0.193795,0.193795,0.981042,617.664,140.8836)" height="52.528" width="63.64" y="406.03" x="-153.54" fill="#ff4800">280</text>
  <text id="text30004" font-size="" xml:space="preserve" transform="matrix(0.39007,0.920785,-0.920785,0.39007,1068.61,594.0511)" height="55.558" width="73.741" y="408.05" x="-176.78" fill="#ff4800">101</text>
  <text id="text30012" font-size="" xml:space="preserve" transform="matrix(0.703445,-0.71075,0.71075,0.703445,342.7467,-150.876)" height="48.487" width="128.29" y="499.97" x="-192.94">Market Street</text>
  <text id="text30020" font-size="" xml:space="preserve" transform="matrix(0.59389,0.804546,-0.804546,0.59389,1025.614,120.8114)" height="80.812" width="199" y="392.9" x="-175.77">The embarcadero</text>
  <text id="text30028" font-size="" xml:space="preserve" transform="matrix(0.990071,-0.140571,0.140571,0.990071,-24.32376,63.82762)" height="26.264" width="78.792" y="252.49" x="448.51">Lombard St.</text>
  <text id="text30036" font-size="" xml:space="preserve" transform="matrix(0.156029,0.987753,-0.987753,0.156029,869.4885,403.2232)" height="92.934" width="161.62" y="314.11" x="-186.88">Van Ness Av.</text>
  <text id="text30044" font-size="" xml:space="preserve" transform="matrix(0.745144,0.666904,-0.666904,0.745144,986.3845,4.787414)" height="94.954" width="165.67" y="434.31" x="-188.9">Columbus Av.</text>
  <text id="text30052" font-size="" xml:space="preserve" transform="matrix(0.98827,-0.152712,0.152712,0.98827,-16.60133,70.23543)" height="57.579" width="191.93" y="315.12" x="386.89">Geary Boulevard</text>
  <text id="text30068" font-size="" xml:space="preserve" transform="matrix(9.946484e-2,0.995041,-0.995041,9.946484e-2,645.5432,596.2813)" height="164.65" width="345.47" y="428.25" x="-155.56">Great Highway</text>
  <text id="text30076" font-size="" xml:space="preserve" transform="matrix(6.380323e-2,0.997962,-0.997962,6.380323e-2,789.685,578.098)" height="153.54" width="233.35" y="450.48" x="-166.68">19e Avenue</text>
  <text id="text30084" font-size="" xml:space="preserve" transform="matrix(4.407553e-2,0.999028,-0.999028,4.407553e-2,733.6683,594.6755)" height="79.802" width="153.54" y="410.07" x="-165.67">Route One</text>
  <text id="text30092" font-size="" xml:space="preserve" transform="matrix(0.984941,-0.172893,0.172893,0.984941,392.8569,4.862708)" height="93.944" width="194.96" y="513.11" x="-133.34">Portola</text>
  <text id="text30100" font-size="" xml:space="preserve" transform="matrix(0.742361,-0.67,0.67,0.742361,226.5455,40.09172)" height="96.975" width="165.67" y="467.65" x="-196.98">Drive</text>
  <text id="text30108" font-size="" xml:space="preserve" transform="matrix(0.952922,0.303215,-0.303215,0.952922,728.3455,142.7896)" height="67.68" width="148.49" y="543.41" x="-196.98">Geneva Av.</text>
  <text id="text30116" font-size="" xml:space="preserve" transform="matrix(0.990501,0.137502,-0.137502,0.990501,781.5095,-86.58676)" height="137.38" width="170.72" y="509.07" x="-172.74">Central Fwy</text>
  <text id="text30124" font-size="" xml:space="preserve" transform="translate(13.13199,6.060919)" height="233.35" width="303.05" y="709.08" x="41.416"><flowPara id="flowPara30134">          Autoroute ou </flowPara><flowPara id="flowPara30142"/>          Principal parc</text>
  <rect id="rect31031" stroke-linejoin="round" style="stroke-dasharray:none;" fill-rule="evenodd" stroke-dashoffset="0" height="23.234" width="36.52" stroke="#000" stroke-linecap="butt" stroke-miterlimit="4" y="887.37" x="62.48" stroke-width="2" fill="#c0dc58"/>
 </g>
</svg>