<?xml version="1.0" encoding="utf-8"?>
<!-- Generator: Adobe Illustrator 16.0.4, SVG Export Plug-In . SVG Version: 6.00 Build 0)  -->
<!DOCTYPE svg PUBLIC "-//W3C//DTD SVG 1.1//EN" "http://www.w3.org/Graphics/SVG/1.1/DTD/svg11.dtd">
<svg version="1.1" id="Layer_1" xmlns="http://www.w3.org/2000/svg" xmlns:xlink="http://www.w3.org/1999/xlink" x="0px" y="0px"
	 width="20.785px" height="40.189px" viewBox="0 0 20.785 40.189" enable-background="new 0 0 20.785 40.189" xml:space="preserve">
<g>
	<polygon fill="#8DC63F" points="20.785,34.2 10.393,28.2 0,34.2 10.393,40.189 	"/>
	<path fill="#603913" d="M11.979,34.695c-2,0.907-2.625-0.101-2.625-0.101L8.274,10.093l2.333-0.413
		C10.608,9.68,11.207,28.388,11.979,34.695z"/>
	<path fill="#009444" d="M15.604,25.462c-4.667-6.062-6.3-13.669-6.3-13.669s-2.87,12.219-5.985,13.669
		C6.653,27.471,11.27,29.373,15.604,25.462z"/>
	<path fill="#39B54A" d="M15.604,19.32c-4.667-6.061-6.3-13.668-6.3-13.668S6.434,17.87,3.319,19.32
		C6.653,21.329,11.27,23.231,15.604,19.32z"/>
	<path fill="#8DC63F" d="M15.604,13.67C10.937,7.608,9.304,0,9.304,0s-2.87,12.22-5.985,13.67
		C6.653,15.678,11.27,17.58,15.604,13.67z"/>
</g>
</svg>
